<svg width="473" height="316" viewBox="0 0 473 316" fill="none" xmlns="http://www.w3.org/2000/svg">
<path opacity="0.1" d="M210.222 298.684C322.854 298.684 414.16 297.657 414.16 296.39C414.16 295.123 322.854 294.096 210.222 294.096C97.5895 294.096 6.2832 295.123 6.2832 296.39C6.2832 297.657 97.5895 298.684 210.222 298.684Z" fill="black"/>
<path d="M25.0266 76.3796C23.4595 76.3796 22.1719 75.0928 22.1719 73.5269V53.8614C22.1719 52.2955 23.4595 51.0087 25.0266 51.0087C26.5937 51.0087 27.8814 52.2955 27.8814 53.8614V73.5147C27.8814 75.0928 26.6058 76.3796 25.0266 76.3796Z" fill="#F0EFEF"/>
<path d="M204.172 76.3795C202.605 76.3795 201.317 75.0928 201.317 73.5268V53.8614C201.317 52.2954 202.605 51.0087 204.172 51.0087C205.739 51.0087 207.027 52.2954 207.027 53.8614V73.5147C207.027 75.0928 205.751 76.3795 204.172 76.3795Z" fill="#F0EFEF"/>
<path d="M383.316 76.3795C381.749 76.3795 380.461 75.0928 380.461 73.5268V53.8614C380.461 52.2954 381.749 51.0087 383.316 51.0087C384.883 51.0087 386.17 52.2954 386.17 53.8614V73.5147C386.17 75.0928 384.883 76.3795 383.316 76.3795Z" fill="#F0EFEF"/>
<path d="M385.066 57.6731H25.0273V61.4726H385.066V57.6731Z" fill="#F0EFEF"/>
<path d="M388.649 284.967H28.3792C20.2159 284.967 13.6074 278.351 13.6074 270.206V87.0863C13.6074 78.9288 20.228 72.3251 28.3792 72.3251H388.661C396.824 72.3251 403.432 78.9409 403.432 87.0863V270.206C403.432 278.363 396.812 284.967 388.649 284.967Z" fill="#38A0A8"/>
<path d="M397.322 132.22H20.459V251.645H397.322V132.22Z" fill="#E5F4F8"/>
<path opacity="0.3" d="M403.432 153.949C341.053 145.597 260.792 141.13 168.699 151.873C109.685 158.756 57.6191 170.507 13.6074 183.374C13.6074 166.331 13.6074 149.275 13.6074 132.232H403.432V153.949Z" fill="#1F5C7B"/>
<path d="M412.727 89.6598V136.905H3.57422V89.6598C3.57422 80.1427 11.3003 72.4222 20.8242 72.4222H395.477C405.001 72.4222 412.727 80.1427 412.727 89.6598Z" fill="#9DD4DF"/>
<path d="M48.8487 118.624C56.7587 118.624 63.171 112.216 63.171 104.312C63.171 96.4074 56.7587 89.9997 48.8487 89.9997C40.9387 89.9997 34.5264 96.4074 34.5264 104.312C34.5264 112.216 40.9387 118.624 48.8487 118.624Z" fill="#F0EFEF"/>
<path d="M48.8475 110.964C52.524 110.964 55.5045 107.986 55.5045 104.312C55.5045 100.638 52.524 97.6595 48.8475 97.6595C45.1709 97.6595 42.1904 100.638 42.1904 104.312C42.1904 107.986 45.1709 110.964 48.8475 110.964Z" fill="#78675A"/>
<path d="M48.848 109.653C51.8 109.653 54.1931 107.262 54.1931 104.312C54.1931 101.362 51.8 98.9706 48.848 98.9706C45.896 98.9706 43.5029 101.362 43.5029 104.312C43.5029 107.262 45.896 109.653 48.848 109.653Z" fill="#7AC146"/>
<path d="M336.632 118.624C344.542 118.624 350.954 112.216 350.954 104.312C350.954 96.4075 344.542 89.9998 336.632 89.9998C328.722 89.9998 322.31 96.4075 322.31 104.312C322.31 112.216 328.722 118.624 336.632 118.624Z" fill="#F0EFEF"/>
<path d="M336.632 110.964C340.308 110.964 343.289 107.986 343.289 104.312C343.289 100.638 340.308 97.6595 336.632 97.6595C332.955 97.6595 329.975 100.638 329.975 104.312C329.975 107.986 332.955 110.964 336.632 110.964Z" fill="#78675A"/>
<path d="M336.63 109.653C339.582 109.653 341.975 107.262 341.975 104.312C341.975 101.362 339.582 98.9706 336.63 98.9706C333.678 98.9706 331.285 101.362 331.285 104.312C331.285 107.262 333.678 109.653 336.63 109.653Z" fill="#F2D16E"/>
<path d="M378.42 118.624C386.33 118.624 392.742 112.216 392.742 104.312C392.742 96.4074 386.33 89.9997 378.42 89.9997C370.51 89.9997 364.098 96.4074 364.098 104.312C364.098 112.216 370.51 118.624 378.42 118.624Z" fill="#F0EFEF"/>
<path d="M378.42 110.964C382.096 110.964 385.077 107.986 385.077 104.312C385.077 100.638 382.096 97.6595 378.42 97.6595C374.743 97.6595 371.763 100.638 371.763 104.312C371.763 107.986 374.743 110.964 378.42 110.964Z" fill="#78675A"/>
<path d="M378.419 109.653C381.371 109.653 383.764 107.262 383.764 104.312C383.764 101.362 381.371 98.9706 378.419 98.9706C375.467 98.9706 373.074 101.362 373.074 104.312C373.074 107.262 375.467 109.653 378.419 109.653Z" fill="#F15E40"/>
<path d="M113.644 110.576C110.182 110.576 107.376 107.771 107.376 104.312C107.376 100.852 110.182 98.048 113.644 98.048C117.106 98.048 119.913 100.852 119.913 104.312C119.913 107.759 117.094 110.576 113.644 110.576Z" fill="#F0EFEF"/>
<path d="M128.305 110.576C124.843 110.576 122.037 107.771 122.037 104.312C122.037 100.852 124.843 98.048 128.305 98.048C131.768 98.048 134.574 100.852 134.574 104.312C134.574 107.759 131.768 110.576 128.305 110.576Z" fill="#F0EFEF"/>
<path d="M157.643 110.576C154.181 110.576 151.375 107.771 151.375 104.312C151.375 100.852 154.181 98.048 157.643 98.048C161.105 98.048 163.912 100.852 163.912 104.312C163.912 107.759 161.093 110.576 157.643 110.576Z" fill="#F0EFEF"/>
<path d="M172.306 110.576C168.844 110.576 166.038 107.771 166.038 104.312C166.038 100.852 168.844 98.048 172.306 98.048C175.769 98.048 178.575 100.852 178.575 104.312C178.575 107.759 175.769 110.576 172.306 110.576Z" fill="#F0EFEF"/>
<path d="M142.98 110.576C139.518 110.576 136.712 107.771 136.712 104.312C136.712 100.852 139.518 98.048 142.98 98.048C146.442 98.048 149.249 100.852 149.249 104.312C149.249 107.759 146.43 110.576 142.98 110.576Z" fill="#F0EFEF"/>
<path d="M232.549 110.576C229.086 110.576 226.28 107.771 226.28 104.312C226.28 100.852 229.086 98.048 232.549 98.048C236.011 98.048 238.817 100.852 238.817 104.312C238.817 107.759 236.011 110.576 232.549 110.576Z" fill="#F0EFEF"/>
<path d="M247.221 110.576C243.759 110.576 240.953 107.771 240.953 104.312C240.953 100.852 243.759 98.048 247.221 98.048C250.684 98.048 253.49 100.852 253.49 104.312C253.49 107.759 250.671 110.576 247.221 110.576Z" fill="#F0EFEF"/>
<path d="M276.548 110.576C273.085 110.576 270.279 107.771 270.279 104.312C270.279 100.852 273.085 98.048 276.548 98.048C280.01 98.048 282.816 100.852 282.816 104.312C282.816 107.759 280.01 110.576 276.548 110.576Z" fill="#F0EFEF"/>
<path d="M291.222 110.576C287.76 110.576 284.954 107.771 284.954 104.312C284.954 100.852 287.76 98.048 291.222 98.048C294.685 98.048 297.491 100.852 297.491 104.312C297.491 107.759 294.672 110.576 291.222 110.576Z" fill="#F0EFEF"/>
<path d="M261.885 110.576C258.422 110.576 255.616 107.771 255.616 104.312C255.616 100.852 258.422 98.048 261.885 98.048C265.347 98.048 268.153 100.852 268.153 104.312C268.153 107.759 265.347 110.576 261.885 110.576Z" fill="#F0EFEF"/>
<path d="M124.456 190.281C124.456 189.881 124.42 180.558 129.473 175.447C131.587 173.311 134.284 172.23 137.466 172.23V174.464C134.891 174.464 132.741 175.326 131.052 177.025C126.643 181.481 126.679 190.184 126.679 190.269L124.456 190.281Z" fill="#CCCCCB"/>
<path d="M166.344 190.281L164.109 190.257C164.109 190.124 164.121 181.432 159.723 177.001C158.047 175.302 155.884 174.452 153.321 174.452V172.218C156.504 172.218 159.201 173.299 161.315 175.435C166.38 180.558 166.344 189.893 166.344 190.281ZM165.226 190.281L164.109 190.269L165.226 190.281Z" fill="#CCCCCB"/>
<path d="M153.514 177.669H137.637C136.033 177.669 134.733 176.358 134.733 174.768V141.142C134.733 139.54 136.045 138.241 137.637 138.241H153.514C155.118 138.241 156.417 139.552 156.417 141.142V174.768C156.417 176.358 155.118 177.669 153.514 177.669Z" fill="#EDEDED"/>
<path d="M166.317 162.762H124.845C123.12 162.762 121.723 161.366 121.723 159.642V145.282C121.723 143.558 123.12 142.162 124.845 142.162H166.317C168.042 142.162 169.439 143.558 169.439 145.282V159.642C169.439 161.366 168.042 162.762 166.317 162.762Z" fill="#CCCCCB"/>
<path d="M172.295 136.796H118.856V157.943H172.295V136.796Z" fill="#EDEDED"/>
<path d="M129.985 150.429C131.575 150.429 132.864 149.14 132.864 147.552C132.864 145.963 131.575 144.675 129.985 144.675C128.394 144.675 127.105 145.963 127.105 147.552C127.105 149.14 128.394 150.429 129.985 150.429Z" fill="#7D7D7D"/>
<path d="M129.985 149.251C130.924 149.251 131.686 148.49 131.686 147.552C131.686 146.613 130.924 145.852 129.985 145.852C129.046 145.852 128.284 146.613 128.284 147.552C128.284 148.49 129.046 149.251 129.985 149.251Z" fill="#C34C33"/>
<path d="M129.984 145.852H120.145V149.239H129.984V145.852Z" fill="#C34C33"/>
<path d="M120.327 150.696C122.065 150.696 123.473 149.288 123.473 147.552C123.473 145.815 122.065 144.408 120.327 144.408C118.589 144.408 117.181 145.815 117.181 147.552C117.181 149.288 118.589 150.696 120.327 150.696Z" fill="#F15E40"/>
<path d="M85.3545 142.162L120.328 144.408V150.696L85.3545 152.941V142.162Z" fill="#F15E40"/>
<path d="M85.3536 152.941C88.3324 152.941 90.7473 150.528 90.7473 147.552C90.7473 144.575 88.3324 142.162 85.3536 142.162C82.3748 142.162 79.96 144.575 79.96 147.552C79.96 150.528 82.3748 152.941 85.3536 152.941Z" fill="#C34C33"/>
<path d="M305.021 190.281C305.021 189.881 305.057 180.558 300.004 175.447C297.89 173.311 295.193 172.23 292.011 172.23V174.464C294.586 174.464 296.736 175.326 298.425 177.025C302.834 181.48 302.798 190.184 302.798 190.269L305.021 190.281Z" fill="#CCCCCB"/>
<path d="M268.165 175.447C270.279 173.311 272.976 172.23 276.158 172.23V174.464C273.595 174.464 271.433 175.326 269.756 177.013C265.359 181.444 265.371 190.136 265.371 190.269L263.136 190.293C263.136 189.893 263.099 180.558 268.165 175.447ZM265.371 190.269L264.253 190.281L265.371 190.269Z" fill="#CCCCCB"/>
<path d="M275.952 177.669H291.829C293.433 177.669 294.733 176.358 294.733 174.767V141.142C294.733 139.54 293.421 138.241 291.829 138.241H275.952C274.361 138.241 273.049 139.552 273.049 141.142V174.767C273.049 176.358 274.361 177.669 275.952 177.669Z" fill="#EDEDED"/>
<path d="M263.16 162.762H304.633C306.358 162.762 307.755 161.366 307.755 159.642V145.281C307.755 143.558 306.358 142.162 304.633 142.162H263.16C261.435 142.162 260.038 143.558 260.038 145.281V159.642C260.038 161.366 261.435 162.762 263.16 162.762Z" fill="#CCCCCB"/>
<path d="M257.174 157.954H310.612V136.807H257.174V157.954Z" fill="#EDEDED"/>
<path d="M299.485 150.428C301.075 150.428 302.364 149.14 302.364 147.551C302.364 145.963 301.075 144.674 299.485 144.674C297.894 144.674 296.605 145.963 296.605 147.551C296.605 149.14 297.894 150.428 299.485 150.428Z" fill="#7D7D7D"/>
<path d="M299.484 149.251C300.423 149.251 301.185 148.49 301.185 147.551C301.185 146.613 300.423 145.852 299.484 145.852C298.545 145.852 297.783 146.613 297.783 147.551C297.783 148.49 298.545 149.251 299.484 149.251Z" fill="#C34C33"/>
<path d="M299.498 149.252H309.338V145.865H299.498V149.252Z" fill="#C34C33"/>
<path d="M309.155 150.696C310.893 150.696 312.301 149.288 312.301 147.551C312.301 145.815 310.893 144.407 309.155 144.407C307.417 144.407 306.009 145.815 306.009 147.551C306.009 149.288 307.417 150.696 309.155 150.696Z" fill="#F15E40"/>
<path d="M344.129 142.162L309.155 144.407V150.696L344.129 152.941V142.162Z" fill="#F15E40"/>
<path d="M344.128 152.941C347.107 152.941 349.522 150.528 349.522 147.551C349.522 144.575 347.107 142.162 344.128 142.162C341.149 142.162 338.734 144.575 338.734 147.551C338.734 150.528 341.149 152.941 344.128 152.941Z" fill="#C34C33"/>
<path d="M76.2917 200.406C85.0202 200.406 92.096 193.335 92.096 184.613C92.096 175.89 85.0202 168.819 76.2917 168.819C67.5632 168.819 60.4873 175.89 60.4873 184.613C60.4873 193.335 67.5632 200.406 76.2917 200.406Z" fill="#453930"/>
<path d="M90.7469 184.576V184.613C90.7469 184.928 90.7347 185.232 90.7226 185.535C90.2488 193.086 83.9684 199.058 76.2909 199.058C68.6135 199.058 62.333 193.086 61.8593 185.535C61.835 185.232 61.835 184.916 61.835 184.613V184.576C61.8471 182.148 62.4424 179.866 63.5114 177.863C63.6571 177.584 63.8151 177.305 63.9851 177.026C65.2364 174.986 66.9857 173.287 69.0629 172.097C69.3423 171.939 69.6217 171.781 69.9133 171.648C71.7355 170.75 73.7642 170.228 75.9143 170.167C76.0358 170.167 76.1694 170.167 76.2909 170.167C76.4853 170.167 76.6796 170.167 76.874 170.179C78.9634 170.264 80.9436 170.798 82.7171 171.672C83.0087 171.818 83.2881 171.964 83.5675 172.133C85.6326 173.335 87.3698 175.035 88.6089 177.062C88.7789 177.329 88.9368 177.608 89.0826 177.9C90.1395 179.89 90.7347 182.16 90.7469 184.576Z" fill="white"/>
<path d="M78.0039 186.434C78.0189 185.751 77.4765 185.184 76.7923 185.169C76.1081 185.154 75.5413 185.696 75.5263 186.38C75.5112 187.064 76.0537 187.63 76.7378 187.645C77.422 187.66 77.9889 187.118 78.0039 186.434Z" fill="#353535"/>
<path d="M79.033 188.485L68.4401 180.728C68.3915 180.691 68.44 180.619 68.4886 180.655L79.5554 187.708C79.5796 187.72 79.5796 187.756 79.5675 187.769L79.0937 188.461C79.0816 188.497 79.0573 188.497 79.033 188.485Z" fill="#353535"/>
<path d="M76.8737 170.167V171.769H75.9141V170.155C76.0355 170.155 76.1692 170.155 76.2906 170.155C76.485 170.155 76.6794 170.167 76.8737 170.167Z" fill="#ED1C5C"/>
<path d="M83.5678 172.121L82.7904 173.457L81.9521 172.983L82.7175 171.672C83.009 171.806 83.2884 171.964 83.5678 172.121Z" fill="#ED1C5C"/>
<path d="M89.0945 177.887L87.7218 178.676L87.248 177.851L88.6329 177.05C88.7787 177.329 88.9366 177.608 89.0945 177.887Z" fill="#ED1C5C"/>
<path d="M90.7468 184.576V184.613C90.7468 184.928 90.7346 185.232 90.7225 185.535H89.1797V184.576H90.7468Z" fill="#ED1C5C"/>
<path d="M70.6903 172.983L69.8521 173.457L69.0625 172.085C69.3419 171.927 69.6213 171.769 69.9129 171.636L70.6903 172.983Z" fill="#ED1C5C"/>
<path d="M65.4184 177.851L64.9325 178.677L63.499 177.851C63.6448 177.572 63.8027 177.293 63.9728 177.013L65.4184 177.851Z" fill="#ED1C5C"/>
<path d="M63.4745 184.576V185.535H61.871C61.8467 185.232 61.8467 184.916 61.8467 184.613V184.576H63.4745Z" fill="#ED1C5C"/>
<path d="M347.089 200.405C355.817 200.405 362.893 193.335 362.893 184.612C362.893 175.89 355.817 168.819 347.089 168.819C338.36 168.819 331.284 175.89 331.284 184.612C331.284 193.335 338.36 200.405 347.089 200.405Z" fill="#453930"/>
<path d="M361.546 184.576V184.613C361.546 184.928 361.534 185.232 361.521 185.535C361.048 193.086 354.767 199.058 347.09 199.058C339.412 199.058 333.132 193.086 332.658 185.535C332.634 185.232 332.634 184.916 332.634 184.613V184.576C332.646 182.148 333.241 179.866 334.31 177.863C334.456 177.584 334.614 177.305 334.784 177.026C336.035 174.986 337.784 173.287 339.862 172.097C340.141 171.939 340.421 171.781 340.712 171.648C342.534 170.75 344.563 170.228 346.713 170.167C346.835 170.167 346.968 170.167 347.09 170.167C347.284 170.167 347.478 170.167 347.673 170.179C349.762 170.264 351.742 170.798 353.516 171.672C353.808 171.818 354.087 171.964 354.366 172.133C356.431 173.335 358.169 175.035 359.408 177.062C359.578 177.329 359.736 177.608 359.881 177.9C360.938 179.89 361.534 182.16 361.546 184.576Z" fill="white"/>
<path d="M347.094 185.851C347.778 185.851 348.333 185.296 348.333 184.612C348.333 183.929 347.778 183.374 347.094 183.374C346.409 183.374 345.854 183.929 345.854 184.612C345.854 185.296 346.409 185.851 347.094 185.851Z" fill="#353535"/>
<path d="M345.064 186.931L352.583 176.176C352.62 176.127 352.692 176.176 352.656 176.224L345.841 187.429C345.829 187.453 345.805 187.453 345.78 187.441L345.076 186.992C345.052 186.98 345.051 186.955 345.064 186.931Z" fill="#353535"/>
<path d="M347.674 170.167V171.769H346.714V170.155C346.835 170.155 346.969 170.155 347.09 170.155C347.285 170.155 347.479 170.167 347.674 170.167Z" fill="#ED1C5C"/>
<path d="M354.368 172.121L353.59 173.457L352.752 172.983L353.517 171.672C353.809 171.806 354.088 171.963 354.368 172.121Z" fill="#ED1C5C"/>
<path d="M359.893 177.887L358.521 178.676L358.047 177.851L359.432 177.05C359.578 177.329 359.735 177.608 359.893 177.887Z" fill="#ED1C5C"/>
<path d="M361.547 184.576V184.612C361.547 184.928 361.534 185.232 361.522 185.535H359.979V184.576H361.547Z" fill="#ED1C5C"/>
<path d="M341.477 172.983L340.639 173.457L339.85 172.085C340.129 171.927 340.408 171.769 340.7 171.636L341.477 172.983Z" fill="#ED1C5C"/>
<path d="M336.218 177.851L335.732 178.676L334.299 177.851C334.445 177.572 334.603 177.293 334.773 177.013L336.218 177.851Z" fill="#ED1C5C"/>
<path d="M334.274 184.576V185.535H332.671C332.646 185.232 332.646 184.916 332.646 184.612V184.576H334.274Z" fill="#ED1C5C"/>
<path d="M53.0279 141.215H48.5332V155.09H53.0279V141.215Z" fill="#CCCCCB"/>
<path d="M46.3477 156.002L4.04199 195.905L6.22662 198.218L48.5323 158.315L46.3477 156.002Z" fill="#CCCCCB"/>
<path d="M52.6393 145.633H48.8978C47.5494 145.633 46.4561 144.541 46.4561 143.193V136.796H55.2997V142.975C55.2997 144.444 54.1092 145.633 52.6393 145.633Z" fill="#EDEDED"/>
<path d="M52.4452 158.04L46.0189 164.461C44.6705 165.809 42.4596 165.809 41.1112 164.461L40.1637 163.514C38.8152 162.167 38.8152 159.958 40.1637 158.61L46.5899 152.189C47.9383 150.841 50.1492 150.841 51.4976 152.189L52.4452 153.135C53.7936 154.483 53.7936 156.692 52.4452 158.04Z" fill="#EDEDED"/>
<path d="M9.22218 197.358L4.47236 201.838C4.05933 202.226 3.3912 202.214 3.00247 201.789L0.281344 198.912C-0.107387 198.5 -0.0952394 197.832 0.329936 197.443L5.07975 192.964C5.49278 192.576 6.16091 192.588 6.54964 193.013L9.27077 195.89C9.6595 196.302 9.64735 196.958 9.22218 197.358Z" fill="#EDEDED"/>
<path d="M367.371 155.09H371.866V141.215H367.371V155.09Z" fill="#CCCCCB"/>
<path d="M371.903 158.328L414.209 198.232L416.394 195.919L374.088 156.015L371.903 158.328Z" fill="#CCCCCB"/>
<path d="M367.755 145.634H371.497C372.845 145.634 373.938 144.541 373.938 143.194V136.796H365.095V142.975C365.095 144.444 366.285 145.634 367.755 145.634Z" fill="#EDEDED"/>
<path d="M367.949 158.04L374.375 164.461C375.723 165.809 377.934 165.809 379.283 164.461L380.23 163.514C381.579 162.167 381.579 159.958 380.23 158.61L373.804 152.189C372.456 150.841 370.245 150.841 368.896 152.189L367.949 153.135C366.6 154.483 366.6 156.692 367.949 158.04Z" fill="#EDEDED"/>
<path d="M411.171 197.358L415.921 201.838C416.334 202.226 417.002 202.214 417.391 201.789L420.112 198.912C420.501 198.5 420.489 197.832 420.063 197.443L415.314 192.964C414.901 192.576 414.233 192.588 413.844 193.013L411.123 195.89C410.734 196.302 410.758 196.958 411.171 197.358Z" fill="#EDEDED"/>
<path d="M412.714 132.22H3.57422V136.905H412.714V132.22Z" fill="#1F5C7B"/>
<path d="M389.839 264.95H29.1807C27.5893 264.95 26.2773 263.638 26.2773 262.048V237.928C26.2773 236.325 27.5893 235.026 29.1807 235.026H389.839C391.442 235.026 392.742 236.337 392.742 237.928V262.036C392.742 263.638 391.442 264.95 389.839 264.95Z" fill="#217EAE"/>
<path d="M56.9142 296.948H39.1904C37.5991 296.948 36.2871 295.637 36.2871 294.047V266.2C36.2871 264.61 37.5991 263.299 39.1904 263.299H56.902C58.4934 263.299 59.8054 264.61 59.8054 266.2V294.047C59.8175 295.649 58.5056 296.948 56.9142 296.948Z" fill="#5C5C5D"/>
<path d="M382.563 296.948H364.852C363.26 296.948 361.948 295.637 361.948 294.047V266.2C361.948 264.61 363.26 263.299 364.852 263.299H382.563C384.167 263.299 385.467 264.61 385.467 266.2V294.047C385.467 295.649 384.155 296.948 382.563 296.948Z" fill="#5C5C5D"/>
<path d="M414.159 242.844V283.753C414.159 285.295 412.907 286.557 411.352 286.557H7.58155C6.03877 286.557 4.77539 285.307 4.77539 283.753V242.844C4.77539 241.302 6.02662 240.04 7.58155 240.04H411.365C412.907 240.052 414.159 241.302 414.159 242.844Z" fill="#9DD4DF"/>
<path d="M94.7696 98.2423H73.936C72.8791 98.2423 72.0166 97.3804 72.0166 96.3243C72.0166 95.2682 72.8791 94.4063 73.936 94.4063H94.7817C95.8386 94.4063 96.7011 95.2682 96.7011 96.3243C96.6889 97.3804 95.8264 98.2423 94.7696 98.2423Z" fill="#604F42"/>
<path d="M94.7666 106.57H73.933C72.8762 106.57 72.0137 105.708 72.0137 104.652C72.0137 103.596 72.8762 102.734 73.933 102.734H94.7788C95.8356 102.734 96.6981 103.596 96.6981 104.652C96.686 105.72 95.8235 106.57 94.7666 106.57Z" fill="#604F42"/>
<path d="M94.7666 114.909H73.933C72.8762 114.909 72.0137 114.048 72.0137 112.991C72.0137 111.935 72.8762 111.073 73.933 111.073H94.7788C95.8356 111.073 96.6981 111.935 96.6981 112.991C96.686 114.048 95.8235 114.909 94.7666 114.909Z" fill="#604F42"/>
<path d="M214.595 98.2423H193.749C192.693 98.2423 191.83 97.3804 191.83 96.3243C191.83 95.2682 192.693 94.4063 193.749 94.4063H214.595C215.652 94.4063 216.515 95.2682 216.515 96.3243C216.515 97.3804 215.652 98.2423 214.595 98.2423Z" fill="#604F42"/>
<path d="M214.596 106.57H193.75C192.694 106.57 191.831 105.708 191.831 104.652C191.831 103.596 192.694 102.734 193.75 102.734H214.596C215.653 102.734 216.516 103.596 216.516 104.652C216.516 105.72 215.653 106.57 214.596 106.57Z" fill="#604F42"/>
<path d="M214.596 114.909H193.75C192.694 114.909 191.831 114.048 191.831 112.991C191.831 111.935 192.694 111.073 193.75 111.073H214.596C215.653 111.073 216.516 111.935 216.516 112.991C216.516 114.048 215.653 114.909 214.596 114.909Z" fill="#604F42"/>
<path d="M140.821 235.026H124.422L125.685 231.47L126.742 228.471L127.811 225.424H137.432L139.813 232.162L140.821 235.026Z" fill="white"/>
<g opacity="0.05">
<path opacity="0.05" d="M139.811 232.162C133.239 233.983 128.173 232.538 125.683 231.482L126.739 228.471L130.663 225.424H137.43L139.811 232.162Z" fill="black"/>
</g>
<path d="M152.459 207.823C152.459 221.164 143.579 231.992 132.633 231.992C121.688 231.992 112.796 221.176 112.796 207.823H152.459Z" fill="white"/>
<path d="M141.255 228.884C140.952 228.884 140.66 228.872 140.381 228.848C139.494 228.763 138.716 228.544 138.048 228.192C137.404 227.852 136.846 227.379 136.408 226.796C135.959 226.214 135.606 225.485 135.364 224.66C134.963 223.324 134.598 221.321 136.032 219.452C137.174 217.959 139.324 216.696 142.798 215.482C144.608 214.851 146.564 213.88 148.459 212.945C150.378 211.999 152.2 211.1 153.865 210.53C155.918 209.826 157.424 209.741 158.602 210.263C159.647 210.724 160.376 211.634 160.777 212.982C161.068 213.989 161.081 215.203 160.789 216.478C160.485 217.801 159.878 219.173 159.015 220.435C158.056 221.843 156.817 223.118 155.322 224.211C153.658 225.437 151.702 226.408 149.528 227.112C146.722 228.022 144.742 228.52 143.09 228.751C142.409 228.836 141.814 228.884 141.255 228.884ZM156.865 211.719C154.97 211.719 152.067 213.152 149.236 214.56C147.293 215.519 145.288 216.514 143.369 217.182C136.372 219.634 136.384 221.783 137.076 224.138C137.441 225.339 138.024 226.141 138.874 226.59C139.798 227.075 141.085 227.197 142.822 226.954C144.365 226.748 146.248 226.262 148.945 225.388C153.707 223.846 156.221 221.285 157.497 219.416C158.226 218.335 158.748 217.182 159.003 216.077C159.222 215.106 159.234 214.184 159.028 213.479C158.785 212.654 158.408 212.144 157.861 211.901C157.582 211.78 157.242 211.719 156.865 211.719Z" fill="white"/>
<path d="M74.2376 56.0707H53.4404V72.3251H74.2376V56.0707Z" fill="#EA833D"/>
<path d="M40.8925 64.9931C37.9284 64.9931 35.1344 63.8398 33.045 61.7398C30.9434 59.6397 29.7894 56.8598 29.7894 53.8979C29.7894 53.5701 29.7894 53.2302 29.7772 52.9025C29.7651 51.5307 29.7529 50.244 29.9594 49.0179C30.2145 47.4762 30.7976 46.2745 31.7209 45.3398C33.4337 43.6039 36.3492 42.8027 40.8804 42.8027C44.8527 42.8027 47.8168 43.9316 49.6754 46.1531C51.2303 48.0104 51.9835 50.5475 51.9835 53.8979C51.9835 56.8598 50.8295 59.6518 48.7279 61.7398C46.6506 63.8398 43.8566 64.9931 40.8925 64.9931ZM40.8925 45.9953C37.3696 45.9953 35.0494 46.5294 34.0047 47.5855C32.9964 48.6052 32.96 50.2561 32.9842 52.8782C32.9842 53.2059 32.9964 53.5458 32.9964 53.8979C32.9964 58.2558 36.5436 61.8005 40.9047 61.8005C45.2657 61.8005 48.8129 58.2558 48.8129 53.8979C48.8008 48.3624 46.4319 45.9953 40.8925 45.9953Z" fill="#EA833D"/>
<path d="M83.8709 38.4568V57.8674C83.8709 65.418 77.6876 71.5968 70.1316 71.5968H57.5586C50.0026 71.5968 43.8193 65.418 43.8193 57.8674V38.4568H83.8709Z" fill="#EA833D"/>
<path d="M448.477 279.274H427.68V295.528H448.477V279.274Z" fill="#1F5C7B"/>
<path d="M453.177 273.848C451.075 271.747 449.921 268.968 449.921 266.006C449.921 262.655 450.674 260.118 452.229 258.261C454.088 256.039 457.052 254.91 461.024 254.91C465.555 254.91 468.471 255.712 470.184 257.448C471.119 258.382 471.69 259.584 471.945 261.126C472.152 262.352 472.139 263.651 472.127 265.01C472.127 265.338 472.115 265.666 472.115 266.006C472.115 268.968 470.961 271.76 468.859 273.848C466.758 275.948 463.976 277.101 461.012 277.101C458.048 277.101 455.278 275.948 453.177 273.848ZM453.128 266.006C453.128 270.364 456.675 273.908 461.036 273.908C465.397 273.908 468.944 270.364 468.944 266.006C468.944 265.654 468.944 265.314 468.957 264.986C468.981 262.376 468.944 260.713 467.936 259.693C466.891 258.637 464.571 258.103 461.048 258.103C455.485 258.103 453.128 260.47 453.128 266.006Z" fill="#1F5C7B"/>
<path d="M418.045 261.66V281.07C418.045 288.621 424.228 294.8 431.784 294.8H444.345C451.901 294.8 458.084 288.621 458.084 281.07V261.66H418.045Z" fill="#1F5C7B"/>
<path d="M458.096 281.07V238.523H418.045V281.07" fill="#1F5C7B"/>
<path d="M260.817 144.177C260.222 144.177 259.736 143.691 259.736 143.097V141.81C259.736 141.215 260.222 140.729 260.817 140.729C261.413 140.729 261.899 141.215 261.899 141.81V143.097C261.886 143.691 261.401 144.177 260.817 144.177Z" fill="white"/>
<path d="M260.816 152.941C260.221 152.941 259.735 152.456 259.735 151.861V146.083C259.735 145.488 260.221 145.002 260.816 145.002C261.412 145.002 261.898 145.488 261.898 146.083V151.861C261.885 152.456 261.4 152.941 260.816 152.941Z" fill="white"/>
<path d="M167.619 144.177C167.024 144.177 166.538 143.691 166.538 143.096V141.81C166.538 141.215 167.024 140.729 167.619 140.729C168.215 140.729 168.7 141.215 168.7 141.81V143.096C168.688 143.691 168.202 144.177 167.619 144.177Z" fill="white"/>
<path d="M167.618 152.941C167.023 152.941 166.537 152.456 166.537 151.861V146.083C166.537 145.488 167.023 145.002 167.618 145.002C168.214 145.002 168.699 145.488 168.699 146.083V151.861C168.687 152.456 168.201 152.941 167.618 152.941Z" fill="white"/>
<path d="M126.122 207.822H124.907V190.281L126.122 190.269V207.822Z" fill="#542C20"/>
<g opacity="0.4">
<path opacity="0.4" d="M120.848 206.244C120.848 206.244 119.244 203.064 122.585 202.396C125.925 201.729 130.991 200.867 131.659 198.366C132.327 195.878 132.048 195.465 132.048 195.465C132.048 195.465 134.478 200.612 131.635 202.093C128.792 203.562 123.119 203.938 122.147 204.496C121.224 205.018 120.848 206.244 120.848 206.244Z" fill="white"/>
<path opacity="0.4" d="M129.387 197.395C129.387 197.395 130.602 193.802 124.152 193.243C117.701 192.685 116.766 187.611 117.786 185.972C117.786 185.972 117.725 191.932 125.196 192.26C132.679 192.588 129.387 197.395 129.387 197.395Z" fill="white"/>
<path opacity="0.4" d="M123.192 190.451C123.058 190.282 122.536 187.259 128.294 186.628C134.064 185.996 134.55 185.05 133.857 183.957C133.165 182.864 120.082 181.189 118.502 177.244C117.336 174.343 119.814 172.704 119.814 172.704C119.814 172.704 117.421 176.856 122.815 178.701C127.492 180.303 136.226 181.396 136.688 183.799C137.016 185.499 136.785 187.951 130.092 187.72C123.422 187.49 123.192 190.451 123.192 190.451Z" fill="white"/>
</g>
<path d="M339.036 28.6244H362.154C363.04 28.6244 363.781 29.3163 363.854 30.2025L366.867 70.5531H334.335L337.348 30.2025C337.408 29.3163 338.149 28.6244 339.036 28.6244Z" fill="#B97C3C"/>
<path d="M333.825 70.5532H367.366C367.851 70.5532 368.252 70.9538 368.252 71.4393C368.252 71.9249 367.851 72.3255 367.366 72.3255H333.825C333.339 72.3255 332.938 71.9249 332.938 71.4393C332.938 70.9416 333.339 70.5532 333.825 70.5532Z" fill="#AB6F31"/>
<path d="M339.036 24.9825H362.154C363.04 24.9825 363.781 25.6744 363.854 26.5606L366.867 66.9112H334.335L337.348 26.5606C337.408 25.6623 338.149 24.9825 339.036 24.9825Z" fill="#B97C3C"/>
<path d="M333.825 66.899H367.366C367.851 66.899 368.252 67.2996 368.252 67.7852C368.252 68.2708 367.851 68.6714 367.366 68.6714H333.825C333.339 68.6714 332.938 68.2708 332.938 67.7852C332.938 67.2996 333.339 66.899 333.825 66.899Z" fill="#AB6F31"/>
<path d="M339.036 21.1345H362.154C363.04 21.1345 363.781 21.8265 363.854 22.7126L366.867 63.0632H334.335L337.348 22.7126C337.408 21.8265 338.149 21.1345 339.036 21.1345Z" fill="#B97C3C"/>
<path d="M333.825 63.0633H367.366C367.851 63.0633 368.252 63.4639 368.252 63.9495C368.252 64.435 367.851 64.8356 367.366 64.8356H333.825C333.339 64.8356 332.938 64.435 332.938 63.9495C332.938 63.4639 333.339 63.0633 333.825 63.0633Z" fill="#AB6F31"/>
<path d="M339.036 17.4926H362.154C363.04 17.4926 363.781 18.1845 363.854 19.0707L366.867 59.4213H334.335L337.348 19.0707C337.408 18.1845 338.149 17.4926 339.036 17.4926Z" fill="#B97C3C"/>
<path d="M333.825 59.4214H367.366C367.851 59.4214 368.252 59.822 368.252 60.3075C368.252 60.7931 367.851 61.1937 367.366 61.1937H333.825C333.339 61.1937 332.938 60.7931 332.938 60.3075C332.938 59.8098 333.339 59.4214 333.825 59.4214Z" fill="#AB6F31"/>
<path d="M339.036 13.6445H362.154C363.04 13.6445 363.781 14.3365 363.854 15.2226L366.867 55.5732H334.335L337.348 15.2226C337.408 14.3365 338.149 13.6445 339.036 13.6445Z" fill="#B97C3C"/>
<path d="M333.825 55.5733H367.366C367.851 55.5733 368.252 55.9739 368.252 56.4595C368.252 56.945 367.851 57.3456 367.366 57.3456H333.825C333.339 57.3456 332.938 56.945 332.938 56.4595C332.938 55.9739 333.339 55.5733 333.825 55.5733Z" fill="#AB6F31"/>
<path d="M339.037 10.0027H362.155C363.041 10.0027 363.782 10.6947 363.855 11.5808L366.868 51.9315H334.336L337.349 11.5808C337.409 10.6947 338.15 10.0027 339.037 10.0027Z" fill="#B97C3C"/>
<path d="M333.826 51.9315H367.367C367.852 51.9315 368.253 52.3321 368.253 52.8177C368.253 53.3032 367.852 53.7038 367.367 53.7038H333.826C333.34 53.7038 332.939 53.3032 332.939 52.8177C332.939 52.3321 333.34 51.9315 333.826 51.9315Z" fill="#AB6F31"/>
<path d="M327.484 199.034L327.023 202.032C327.023 202.032 315.409 208.405 308.837 210.53L304.646 203.295C312.02 201.219 316.236 200.248 322.091 199.204L327.484 199.034Z" fill="#375BA9"/>
<path d="M314.51 266.467L309.141 236.301L296.944 236.289C298.366 245.855 302.217 257.897 305.776 267.098L314.51 266.467Z" fill="#263240"/>
<path d="M300.456 266.467L302.229 236.301H290.361C289.523 245.964 290.422 256.913 291.758 266.467H300.456Z" fill="#263240"/>
<path d="M291.758 266.467C290.75 277.38 292.208 286.897 294.431 299.68H296.496L300.444 266.467H291.758Z" fill="#263240"/>
<path d="M307.878 225.849C307.878 220.496 310.648 207.993 310.429 203.513C303.736 200.442 293.665 199.981 286.352 203.513C286.109 211.027 290.58 227.063 290.58 227.063L290.033 236.337H309.142L307.854 225.849H307.878Z" fill="#5D94CE"/>
<path d="M308.885 225.849C308.909 220.496 310.647 207.993 310.428 203.501C308.363 202.554 305.982 201.862 303.455 201.45L305.484 210.517L306.334 240.004H311.667L308.885 225.849Z" fill="#375BA9"/>
<path d="M295.718 240.004L296.945 211.744C297.103 208.272 296.18 204.776 294.418 201.255C294.37 201.255 294.321 201.268 294.272 201.268L291.904 201.656C289.96 202.057 288.077 202.664 286.352 203.489C286.109 211.003 289.911 227.039 289.911 227.039L287.53 239.991H295.718V240.004Z" fill="#375BA9"/>
<path d="M301.052 196.897L301.841 203.453L296.764 201.098L297.286 195.052L301.052 196.897Z" fill="#F5ACC8"/>
<path d="M303.287 196.363C303.311 197.395 302.291 198.318 300.359 197.577L297.249 195.586L295.779 191.168L297.516 187.405L303.262 187.757L303.287 196.363Z" fill="#F5ACC8"/>
<path d="M299.096 192.333L298.574 193.195L298.392 196.242L298.404 196.327L300.347 197.577C302.279 198.318 303.299 197.395 303.275 196.363V195.064H299.813L299.096 192.333Z" fill="#38394F"/>
<path d="M297.869 192.588C298.817 193.911 299.217 193.025 299.217 190.573L303.53 189.42L304.66 186.203L303.226 186.482H297.675C295.209 186.458 294.188 188.291 294.941 191.022L295.974 194.336C296.253 195.234 296.314 195.708 297.201 196.023L297.99 193.96L297.869 192.588Z" fill="#38394F"/>
<path d="M298.262 193.974C298.591 193.838 298.661 193.251 298.419 192.662C298.176 192.073 297.713 191.705 297.384 191.84C297.056 191.976 296.986 192.563 297.228 193.152C297.47 193.741 297.933 194.109 298.262 193.974Z" fill="#F5ACC8"/>
<path d="M286.547 227.537H283.461C283.461 227.537 284.554 210.166 286.352 203.501L294.807 206.16L289.085 227.245L286.547 227.537Z" fill="#375BA9"/>
<path d="M294.431 299.68H296.496L299.739 301.853L302.448 302.302L302.533 303.601H294.674L294.431 299.68Z" fill="#263240"/>
<path d="M305.814 266.467C304.806 277.38 306.263 286.897 308.486 299.68H310.551L314.499 266.467H305.814Z" fill="#263240"/>
<path d="M308.485 299.68H310.563L313.794 301.853L316.503 302.302L316.588 303.601H308.728L308.485 299.68Z" fill="#263240"/>
<path d="M327.024 202.02L331.239 188.752L329.623 188.23L322.092 199.192L323.61 200.818L327.024 202.02Z" fill="#375BA9"/>
<path d="M332.234 183.314L332.344 184.54L332.526 185.511L332.672 183.35L333.158 183.265L333.291 185.936L331.238 188.752L329.562 188.497L329.44 185.911L330.352 182.816L331.639 182.937L332.733 181.808L333.012 182.027L332.234 183.314Z" fill="#F5ACC8"/>
<path d="M312.274 229.758H297.891C297.369 229.758 296.943 229.333 296.943 228.811C296.943 228.289 297.369 227.864 297.891 227.864H312.274C312.796 227.864 313.221 228.289 313.221 228.811C313.221 229.333 312.796 229.758 312.274 229.758Z" fill="#94ACD9"/>
<path d="M308.168 228.811L312.638 214.438C312.796 213.916 313.355 213.492 313.89 213.492H336.169C336.691 213.492 336.983 213.916 336.825 214.438L332.354 228.811C332.196 229.333 331.638 229.758 331.103 229.758H308.824C308.301 229.758 308.01 229.333 308.168 228.811Z" fill="white"/>
<path d="M308.168 228.811L312.638 214.438C312.796 213.916 313.355 213.492 313.889 213.492H314.837L309.783 229.758H308.836C308.301 229.758 308.01 229.333 308.168 228.811Z" fill="#94ACD9"/>
<path d="M287.53 226.687L283.461 227.549C283.242 230.523 284.53 232.004 286.801 232.514C293.082 232.635 298.755 231.967 302.836 231.142L303.067 229.37L287.53 226.687Z" fill="#375BA9"/>
<path d="M303.078 229.37L306.164 229.758H308.193C308.035 230.499 307.525 231.506 306.808 231.737L305.508 232.137L302.848 231.142L303.078 229.37Z" fill="#F5ACC8"/>
<path d="M100.745 17.262V21.6442C100.745 22.6275 101.073 23.5865 101.692 24.3513L102.81 25.7594C104.717 28.163 104.681 31.5741 102.7 33.9291C101.996 34.7667 101.012 35.3008 99.9307 35.4465C97.5498 35.7621 95.3632 34.0869 95.0473 31.7076L93.7354 21.7656L95.5211 16.91L100.745 17.262Z" fill="#38394F"/>
<path d="M102.785 52.1377L101.995 51.4215C101.424 51.1302 95.6784 31.6954 101.716 28.6849C103.587 29.1462 104.473 30.4329 104.923 34.0018L106.356 48.6781L102.785 52.1377Z" fill="#406CB4"/>
<path d="M121.529 51.5065L121.359 53.121C117.593 54.2135 107.692 54.3349 102.772 52.1377L103.368 49.9405L104.582 47.6584L121.529 51.5065Z" fill="#406CB4"/>
<path d="M121.372 53.121L124.688 52.3319L126.632 52.684L126.559 52.1013C126.474 51.4215 126 50.8509 125.344 50.6446L124.287 50.3168L125.198 49.9284L126.012 50.159L126.401 49.8798L125.101 49.4185L123.23 49.9891L121.129 51.4336L121.372 53.121Z" fill="#F5ACC8"/>
<path d="M143.857 99.7355L145.716 99.7962L148.145 102.406L150.466 103.171L150.283 104.324L143.311 103.219L143.857 99.7355Z" fill="#3E67B1"/>
<path d="M102.979 47.8284C102.809 46.5174 102.687 44.7936 102.59 42.8999C102.481 40.7391 103.319 40.4721 103.222 38.2142C103.088 35.2158 101.363 31.5983 101.716 28.6971C95.3866 26.7427 91.2442 26.8762 85.1338 30.8821C85.8262 36.1627 88.0979 42.1109 88.7053 46.7237C89.2155 50.5597 84.4657 54.2015 85.5833 62.6746L105.749 62.4197L102.967 47.8284H102.979Z" fill="#4570B7"/>
<path d="M96.2141 23.4164L96.6149 29.3039L92.8855 27.6651L92.6426 22.2146L96.2141 23.4164Z" fill="#F5ACC8"/>
<path d="M98.9222 23.9626C98.7279 24.8731 97.6589 25.48 96.1039 24.4361L93.7837 22.0568L93.3828 17.8809L95.6666 14.9311L100.635 16.3999L98.9222 23.9626Z" fill="#F5ACC8"/>
<path d="M96.5168 18.0631L100.283 17.9296C101.327 17.7961 102.287 16.7642 102.166 15.3318L100.854 15.2832L95.9944 14.1664C93.8321 13.6445 92.5809 15.0405 92.6902 17.6018L96.5168 18.0631Z" fill="#38394F"/>
<path d="M92.691 17.6018C93.1283 20.8915 91.0996 22.324 89.1559 23.6471L86.8478 25.116C85.9246 25.7108 85.4873 26.8397 85.8031 27.8958C86.1554 29.1219 87.2973 30.8699 88.5728 30.8335C92.4237 30.7243 95.8615 27.6288 95.5821 17.2134L92.691 17.6018Z" fill="#38394F"/>
<path d="M145.716 99.7963L136.727 60.1012C136.314 58.7173 134.139 56.2652 131.005 56.6779L85.5723 62.6625C86.3133 68.283 90.8566 74.7531 99.0442 73.6849C105.495 72.8351 121.068 69.7154 130.471 67.7853C132.949 77.2538 138.44 89.9028 143.846 99.7477L145.716 99.7963Z" fill="#27A48F"/>
<path d="M119.805 58.1588L85.584 62.6625C86.41 68.9506 88.8396 75.0202 97.0273 73.9519C102.591 73.2236 111.265 71.2813 117.509 69.7882C118.165 79.5117 121.226 92.1 124.773 102.88L126.607 103.232L124.858 61.6671C124.676 60.2589 122.939 57.7461 119.805 58.1588Z" fill="#27A48F"/>
<path d="M124.773 102.88L126.595 103.232L128.964 105.696L131.26 106.533L131.041 107.687L124.104 106.351L124.773 102.88Z" fill="#4E7BBE"/>
<path d="M88.7301 53.9829L87.9891 53.2181C87.4303 52.8904 82.1946 33.8926 85.1343 30.8699C87.7218 30.7728 91.7428 32.4359 91.9736 36.0169L92.5081 50.7539L88.7301 53.9829Z" fill="#4570B7"/>
<path d="M107.486 53.3517L107.316 54.9662C103.55 56.0587 93.6494 56.1801 88.7295 53.9829L89.3247 51.7858L90.5395 49.5036L107.486 53.3517Z" fill="#4570B7"/>
<path d="M107.317 54.9662L110.634 54.1771L112.577 54.5292L112.504 53.9465C112.419 53.2667 111.946 52.6962 111.29 52.4898L110.233 52.162L111.144 51.7736L111.958 52.0042L112.346 51.725L111.047 51.2637L109.176 51.8343L107.074 53.2788L107.317 54.9662Z" fill="#F5ACC8"/>
<path d="M117.777 58.5108L104.596 60.2467C104.111 60.3074 103.673 59.9675 103.612 59.4941C103.552 59.0085 103.892 58.5715 104.366 58.5108L117.546 56.7749C118.032 56.7142 118.469 57.0541 118.53 57.5275C118.603 58.0131 118.263 58.4501 117.777 58.5108Z" fill="#94ACD9"/>
<path d="M113.902 58.1345L116.258 44.4294C116.343 43.9317 116.805 43.4704 117.291 43.4097L137.711 40.7148C138.197 40.6541 138.513 41.0062 138.428 41.5039L136.071 55.209C135.986 55.7067 135.525 56.168 135.039 56.2287L114.618 58.9236C114.132 58.9964 113.816 58.6322 113.902 58.1345Z" fill="white"/>
<path d="M113.902 58.1345L116.258 44.4294C116.343 43.9317 116.805 43.4704 117.291 43.4097L118.165 43.3005L115.493 58.8265L114.618 58.9357C114.132 58.9964 113.816 58.6322 113.902 58.1345Z" fill="#94ACD9"/>
<path d="M244.528 314.901C244.321 314.901 244.127 314.78 244.054 314.573L205.545 210.723H176.645L215.008 314.221C215.106 314.488 214.972 314.78 214.705 314.877C214.437 314.974 214.146 314.84 214.049 314.573L175.431 210.395C175.37 210.237 175.394 210.067 175.491 209.934C175.588 209.8 175.746 209.715 175.904 209.715H205.885C206.104 209.715 206.286 209.849 206.359 210.043L244.977 314.221C245.074 314.488 244.941 314.78 244.673 314.877C244.637 314.901 244.588 314.901 244.528 314.901Z" fill="white" stroke="white" stroke-miterlimit="10"/>
<path d="M213.345 230.79H183.364C183.084 230.79 182.854 230.559 182.854 230.28C182.854 230.001 183.084 229.77 183.364 229.77H213.345C213.624 229.77 213.855 230.001 213.855 230.28C213.855 230.559 213.624 230.79 213.345 230.79Z" fill="white" stroke="white" stroke-miterlimit="10"/>
<path d="M220.779 250.856H190.798C190.519 250.856 190.288 250.625 190.288 250.346C190.288 250.067 190.519 249.836 190.798 249.836H220.779C221.059 249.836 221.289 250.067 221.289 250.346C221.289 250.625 221.059 250.856 220.779 250.856Z" fill="white" stroke="white" stroke-miterlimit="10"/>
<path d="M228.227 270.922H198.246C197.966 270.922 197.735 270.691 197.735 270.412C197.735 270.133 197.966 269.902 198.246 269.902H228.227C228.506 269.902 228.737 270.133 228.737 270.412C228.737 270.691 228.506 270.922 228.227 270.922Z" fill="white" stroke="white" stroke-miterlimit="10"/>
<path d="M235.66 290.988H205.679C205.4 290.988 205.169 290.757 205.169 290.478C205.169 290.199 205.4 289.968 205.679 289.968H235.66C235.939 289.968 236.17 290.199 236.17 290.478C236.17 290.77 235.939 290.988 235.66 290.988Z" fill="white" stroke="white" stroke-miterlimit="10"/>
<path d="M175.915 314.902C175.636 314.902 175.405 314.672 175.405 314.392V210.214C175.405 209.935 175.636 209.704 175.915 209.704C176.195 209.704 176.426 209.935 176.426 210.214V314.392C176.426 314.684 176.195 314.902 175.915 314.902Z" fill="white" stroke="white" stroke-miterlimit="10"/>
<path d="M193.797 195.416C196.433 205.844 196.761 215.325 196.433 227.015L194.477 227.002L186.521 198.852L193.797 195.416Z" fill="#6654A3"/>
<path d="M211.545 214.159L208.824 185.207L221.288 185.887C222.551 192.733 219.891 204.047 219.891 214.171L211.545 214.159Z" fill="#6654A3"/>
<path d="M184.456 191.107L210.161 179.89L217.887 191.495C209.165 194.688 195.911 197.626 186.521 198.852L184.456 191.107Z" fill="#6654A3"/>
<path d="M219.891 214.159C220.219 224.635 218.275 233.764 215.396 246.037H213.404L211.545 214.159H219.891Z" fill="#6654A3"/>
<path d="M204.269 176.346C204.269 171.211 203.382 156.522 203.589 152.213C208.144 151.46 214.923 150.344 221.944 153.718C222.187 160.929 217.377 176.334 217.377 176.334L204.269 176.346Z" fill="#217EAE"/>
<path d="M192.473 152.747L182.682 135.437L181.103 136.153C181.26 140.45 185.549 152.128 189.582 156.134L192.473 152.747Z" fill="#F5ACC8"/>
<path d="M181.103 136.153L180.593 135.595C179.791 135.145 179.451 134.174 179.791 133.312L180.204 132.293L178.819 130.071L179.074 129.44L182.476 132.997L182.646 135.449L181.103 136.153Z" fill="#F5ACC8"/>
<path d="M192.473 152.747L189.582 156.134C194.174 158.756 201.463 159.12 206.273 157.979L203.953 152.14L192.473 152.747Z" fill="#217EAE"/>
<path d="M215.396 246.037H213.403L210.706 248.125L208.18 248.549L208.35 249.8H215.881L215.396 246.037Z" fill="#55C8E7"/>
<path d="M196.64 226.517H194.538L191.829 228.617L189.314 229.042L189.472 230.28H197.004L196.64 226.517Z" fill="#55C8E7"/>
<path d="M211.073 147.418L211.122 151.448L214.426 151.582L214.973 146.447L211.073 147.418Z" fill="#F5ACC8"/>
<path d="M209.08 146.471C208.85 147.442 209.627 148.511 211.583 148.195L214.899 146.945L217.171 143.084L216.296 139.2L210.83 138.374L209.08 146.471Z" fill="#F5ACC8"/>
<path d="M214.073 141.846L210.259 139.904L209.846 136.663L211.133 137.209L216.333 138.326C218.653 138.799 219.236 140.717 217.985 143.133L214.073 141.846Z" fill="#38394F"/>
<path d="M217.985 143.133C216.771 146.168 218.726 148.401 220.512 150.174L222.65 152.165C223.513 152.966 223.731 154.228 223.209 155.284C222.59 156.498 220.816 158.064 217.645 157.384C213.624 156.522 210.563 152.128 212.896 141.251L217.985 143.133Z" fill="#38394F"/>
<path d="M221.287 185.875C221.239 185.644 221.19 185.426 221.141 185.195C220.558 182.743 217.363 176.334 217.363 176.334H204.256C202.822 179.441 201.523 182.585 200.356 185.875H221.287Z" fill="#6654A3"/>
<path d="M291.429 59.9189L290.445 66.8261C297.904 68.04 305.97 69.9095 315.919 70.7349C318.458 70.9413 320.742 69.169 321.119 66.644L322.431 58.2073L312.129 56.3257L294.891 56.8356C293.142 56.8841 291.684 58.183 291.429 59.9189Z" fill="#407EC0"/>
<path d="M312.409 70.0794C312.494 82.8983 310.113 92.1969 306.299 106.618L303.918 106.266L302.424 68.5984L312.409 70.0794Z" fill="#4283C4"/>
<path d="M306.299 106.618L303.918 106.266L299.982 108.245L296.836 108.306L296.617 109.787L305.631 111.122L306.299 106.618Z" fill="#2AAAE2"/>
<path d="M300.431 68.3071C298.087 80.774 293.713 89.7691 287.068 103.778L284.688 103.426L290.446 66.8261L300.431 68.3071Z" fill="#407EC0"/>
<path d="M287.069 103.778L284.7 103.426L280.557 105.38L277.363 105.417L277.022 106.898L286.048 108.221L287.069 103.778Z" fill="#2AAAE2"/>
<path d="M302.57 61.9582L302.424 68.5983C309.883 69.8123 317.949 71.6817 327.898 72.5072C330.437 72.7135 332.721 70.9412 333.097 68.4163L334.409 59.9795L324.108 58.098L306.105 58.45C304.173 58.4864 302.618 60.0402 302.57 61.9582Z" fill="#4283C4"/>
<path d="M323.767 19.884L316.551 18.8158C315.154 23.6957 313.55 28.6364 312.785 33.832L321.252 35.0823C322.601 29.8746 323.317 24.0235 323.767 19.884Z" fill="#375BA9"/>
<path d="M313.368 33.9169C312.785 37.85 312.348 41.8681 312.032 45.9833L312.834 47.4885L317.122 47.7556C317.122 47.7556 318.932 41.8438 320.682 34.9973L313.368 33.9169Z" fill="#F5ACC8"/>
<path d="M313.272 42.2808L295.925 49.6372L296.702 51.5794C301.902 51.6159 312.154 50.6083 317.22 45.9347L313.272 42.2808Z" fill="#F5ACC8"/>
<path d="M296.289 49.5279L292.413 49.3944L289.875 51.3367L289.474 53.2547L291.308 52.1136L296.689 51.5795L296.289 49.5279Z" fill="#F5ACC8"/>
<path d="M315.688 44.9028C316.599 38.7604 315.543 23.9264 316.551 18.8158C324.751 16.4243 336.4 17.614 344.199 22.9067C343.203 31.574 335.344 49.2244 335.344 49.2244L334.396 59.9676L312.457 56.7264L315.688 44.9028Z" fill="#375BA9"/>
<path d="M328.977 12.8918L326.961 20.2724L333.193 18.4394L333.618 11.4108L328.977 12.8918Z" fill="#F5ACC8"/>
<path d="M326.512 11.8964C326.306 13.086 327.326 14.312 329.671 13.7901L333.582 12.0177L336.024 7.18636L334.676 2.57347L328.007 2.00293L326.512 11.8964Z" fill="#F5ACC8"/>
<path d="M333.375 8.47314C332.063 9.83273 331.759 8.7402 332.172 5.92392L327.422 3.88453L326.669 0L328.272 0.558402L334.638 1.50526C337.48 1.89371 338.331 4.16374 336.995 7.18639L335.233 10.816C334.759 11.7993 334.614 12.3455 333.545 12.5519L332.986 10.0512L333.375 8.47314Z" fill="#38394F"/>
<path d="M333.99 9.22576C334.367 8.59212 334.383 7.90607 334.026 7.69342C333.669 7.48076 333.073 7.82203 332.695 8.45567C332.318 9.0893 332.301 9.77536 332.659 9.98801C333.016 10.2007 333.612 9.85939 333.99 9.22576Z" fill="#F5ACC8"/>
<path d="M333.644 36.8181C333.17 40.6904 332.842 44.4779 332.478 49.0179L333.279 50.5232L337.568 50.7902C337.568 50.7902 339.39 44.8299 341.151 37.9349L333.644 36.8181Z" fill="#F5ACC8"/>
<path d="M344.213 22.9067L335.333 25.9293C334.58 29.9838 333.474 33.3342 333.073 36.7332L341.735 38.0199C343.047 32.8244 343.763 27.0219 344.213 22.9067Z" fill="#375BA9"/>
<path d="M333.049 48.0225L325.699 65.3694L327.606 66.2313C331.372 62.6381 338.029 54.784 338.418 47.9254L333.049 48.0225Z" fill="#F5ACC8"/>
<path d="M326.015 64.8718L322.906 67.1904L322.152 70.2859L323.027 72.0339L323.744 70.0067L327.619 66.2314L326.015 64.8718Z" fill="#F5ACC8"/>
<g filter="url(#filter0_d)">
<path fill-rule="evenodd" clip-rule="evenodd" d="M436.449 271.959C435.72 272.053 435.214 272.946 435.318 273.953C435.422 274.961 436.096 275.701 436.825 275.607C437.553 275.513 438.06 274.62 437.956 273.613C437.852 272.605 437.177 271.865 436.449 271.959ZM436.11 272.51C435.872 272.541 435.707 272.833 435.741 273.163C435.775 273.493 435.995 273.735 436.233 273.704C436.471 273.674 436.636 273.381 436.602 273.052C436.568 272.722 436.348 272.48 436.11 272.51Z" fill="white"/>
<path fill-rule="evenodd" clip-rule="evenodd" d="M449.984 270.941C450.392 269.724 442.918 267.899 442.782 267.899L436.802 251.316C436.531 250.708 435.987 251.164 435.987 251.164L432.046 255.12C431.638 255.424 431.503 255.272 431.503 255.272L430.959 254.359C430.415 253.751 430.144 254.055 430.144 254.055L427.969 257.097C427.969 257.097 426.746 258.619 427.154 258.923C427.562 259.227 428.241 258.923 428.785 258.619C429.328 258.314 429.464 258.619 429.464 258.619C429.464 258.619 430.28 260.292 430.551 260.749C430.823 261.205 431.095 261.053 431.095 261.053L434.085 259.075L433.677 266.529C433.677 266.529 428.785 266.529 426.882 267.138C424.98 267.747 426.746 268.659 426.746 268.659C428.621 269.964 431.026 270.782 433.304 271.296C433.307 271.341 433.31 271.389 433.314 271.441C433.339 271.803 433.373 272.3 433.407 272.839C433.475 273.929 433.541 275.156 433.541 275.809C433.541 276.682 433.809 277.275 434.169 277.644C434.339 277.819 434.512 277.925 434.647 277.988C434.715 278.019 434.774 278.041 434.821 278.055L434.824 278.056C434.843 278.065 434.866 278.076 434.894 278.088C434.972 278.124 435.084 278.174 435.225 278.236C435.507 278.36 435.905 278.53 436.373 278.714C437.302 279.08 438.529 279.513 439.667 279.752C440.895 280.01 441.752 279.766 442.326 279.364C442.606 279.168 442.799 278.948 442.926 278.768C442.989 278.677 443.036 278.597 443.069 278.534C443.085 278.502 443.098 278.474 443.109 278.452C443.111 278.446 443.114 278.44 443.116 278.435L444.219 276.12L444.786 274.374L445.413 271.988C447.617 271.83 449.788 271.526 449.984 270.941ZM434.762 272.733C434.736 272.305 434.709 271.904 434.686 271.575C437.931 272.158 440.607 272.158 440.607 272.158C440.607 272.158 440.714 272.158 440.904 272.157C440.408 272.469 440.104 273.188 440.185 273.977C440.287 274.974 440.967 275.704 441.703 275.609C442.439 275.514 442.952 274.629 442.85 273.633C442.779 272.951 442.439 272.393 441.995 272.14C442.554 272.127 443.241 272.107 443.975 272.072L443.495 273.898L442.975 275.499L441.899 277.758L441.896 277.765C441.891 277.775 441.878 277.798 441.856 277.829C441.813 277.891 441.734 277.984 441.606 278.074C441.365 278.243 440.864 278.455 439.917 278.257C438.88 278.039 437.729 277.635 436.824 277.279C436.374 277.102 435.991 276.939 435.721 276.82C435.586 276.761 435.48 276.713 435.408 276.68C435.371 276.663 435.344 276.65 435.326 276.642L435.305 276.632L435.299 276.63L435.226 276.595L435.174 276.585C435.173 276.585 435.171 276.584 435.17 276.583C435.152 276.575 435.121 276.557 435.087 276.523C435.04 276.474 434.9 276.306 434.9 275.809C434.9 275.093 434.83 273.811 434.762 272.733ZM441.601 269.277C441.574 269.271 441.553 269.25 441.544 269.222L437.209 255.728L436.393 253.294C436.137 252.576 435.759 253.08 435.718 253.137C435.715 253.142 435.713 253.145 435.708 253.148L431.909 256.793C431.637 257.097 431.365 256.793 431.365 256.793L430.47 255.648C430.44 255.61 430.387 255.608 430.357 255.646L429.191 257.097C428.807 257.529 429.391 257.281 429.457 257.253C429.459 257.251 429.462 257.25 429.464 257.249C429.466 257.248 429.468 257.246 429.47 257.245C429.873 256.948 430.008 257.25 430.008 257.25L431.095 259.379C431.231 259.684 431.367 259.531 431.367 259.531L435.308 257.097V258.771L435.036 266.225L434.905 268.274C434.903 268.32 434.869 268.355 434.828 268.354C434.225 268.335 430.038 268.224 430.415 268.507C430.823 268.811 432.182 269.268 432.182 269.268C436.259 270.637 443.325 270.637 443.325 270.637C443.325 270.637 446.179 270.637 444.956 270.181C443.833 269.762 441.909 269.342 441.601 269.277ZM440.623 273.081C440.594 272.796 440.737 272.544 440.943 272.517C441.149 272.491 441.339 272.7 441.369 272.984C441.398 273.269 441.255 273.521 441.049 273.548C440.843 273.575 440.653 273.365 440.623 273.081Z" fill="white"/>
</g>
<defs>
<filter id="filter0_d" x="399" y="232" width="78" height="78" filterUnits="userSpaceOnUse" color-interpolation-filters="sRGB">
<feFlood flood-opacity="0" result="BackgroundImageFix"/>
<feColorMatrix in="SourceAlpha" type="matrix" values="0 0 0 0 0 0 0 0 0 0 0 0 0 0 0 0 0 0 127 0"/>
<feOffset dy="5"/>
<feGaussianBlur stdDeviation="5"/>
<feColorMatrix type="matrix" values="0 0 0 0 0 0 0 0 0 0 0 0 0 0 0 0 0 0 0.15 0"/>
<feBlend mode="normal" in2="BackgroundImageFix" result="effect1_dropShadow"/>
<feBlend mode="normal" in="SourceGraphic" in2="effect1_dropShadow" result="shape"/>
</filter>
</defs>
</svg>
