<svg width="204" height="237" viewBox="0 0 204 237" fill="none" xmlns="http://www.w3.org/2000/svg">
<path d="M150.484 0H13.4585V209.765H150.484V0Z" fill="#0D0F04"/>
<path opacity="0.09" d="M18.3516 87.9769V192.081C18.3516 192.081 89.2002 218.218 113.78 171.727C138.36 125.236 159.604 68.8467 18.3516 87.9769Z" fill="white"/>
<path d="M13.4585 59.2815V78.5229C24.5807 77.1883 35.8142 76.6322 47.0476 76.4097C54.9444 76.1873 62.8412 76.1873 70.738 76.6322C78.1899 76.9658 85.6418 77.8556 93.0937 78.0781C102.659 78.3005 112.891 78.4117 121.9 81.8596C127.239 83.9728 132.911 87.0871 135.358 92.537C137.249 96.7634 137.805 100.767 137.36 104.883C137.583 106.329 137.805 107.663 137.916 109.109C138.472 113.336 138.695 117.673 138.472 122.011C138.027 132.355 136.47 142.698 133.801 152.597C131.577 161.05 129.13 170.393 124.125 177.511C114.56 191.191 99.9894 199.422 83.8622 203.092C67.4013 206.873 50.718 207.096 34.1458 204.649C28.9184 203.87 23.6909 202.869 18.4635 201.868C17.2401 201.646 16.1278 201.424 14.9044 201.201C14.4595 201.424 14.0146 201.535 13.4585 201.757V209.654H150.484V59.2815H13.4585Z" fill="#C2C2C2"/>
<path d="M105.439 95.2063L104.883 85.6412H58.7259L58.0586 95.2063H105.439Z" fill="#BBB8AA"/>
<path d="M56.8343 115.338L56.167 131.465H107.329L106.773 115.338H56.8343Z" fill="#BBB8AA"/>
<path d="M108.331 95.2062H55.1665V115.337H108.331V95.2062Z" fill="#D9D5C4"/>
<path d="M115.671 98.2093H108.331V112.335H115.671V98.2093Z" fill="#BBB8AA"/>
<path d="M189.968 91.3134C189.634 91.3134 120.454 96.9858 120.454 96.9858C118.007 97.2082 117.117 97.5419 115.783 98.4316V112.334C117.117 113.224 118.341 113.669 120.454 113.78C120.454 113.78 189.634 119.453 189.968 119.453C197.754 119.453 203.982 113.224 203.982 105.439C203.982 97.5419 197.642 91.3134 189.968 91.3134Z" fill="#936D45"/>
<path d="M83.8622 92.3147C75.298 92.5371 66.7339 93.8718 58.1698 93.6494L58.0586 95.0952H105.439L104.883 86.976C100.546 93.7606 90.8692 92.2035 83.8622 92.3147Z" fill="#C2C2C2"/>
<path d="M106.774 115.338H56.8347V115.671C60.1714 116.005 98.3206 116.561 101.657 120.231C105.105 124.124 102.547 128.239 98.4318 128.573C91.2024 129.24 83.9729 128.907 76.7435 129.129C73.4068 129.24 70.0702 129.24 66.6223 129.24C65.51 129.24 64.3978 129.352 63.2856 129.463C61.2836 129.574 58.6143 129.352 56.1674 129.463L56.0562 131.465H107.218L106.774 115.338Z" fill="#C2C2C2"/>
<path d="M106.774 95.2062C107.219 99.3214 106.218 103.548 103.548 106.662C99.7666 111.111 93.427 112.446 87.8659 113.002C80.5252 113.669 73.2957 113.558 65.9551 113.224C63.1745 113.113 60.394 112.891 57.6134 112.557C56.9461 112.446 56.0563 112.223 55.1665 112.112V115.449H108.331V95.2062H106.774Z" fill="#C2C2C2"/>
<path d="M114.559 98.2093C115.338 101.212 115.56 104.549 114.115 107.33C113.114 109.22 111.445 110.444 109.332 111C108.998 111.111 108.665 111.111 108.22 111.111V112.446H115.56V98.2093H114.559Z" fill="#C2C2C2"/>
<path opacity="0.25" d="M127.795 107.886C132.355 108.331 136.915 108.887 141.475 109.109C150.151 109.554 158.937 110.333 167.613 109.999C171.95 109.888 176.177 109.554 180.403 108.775C183.517 108.219 187.076 107.774 189.746 105.884C192.415 103.993 193.416 100.545 193.082 97.4307C193.082 97.0971 192.971 96.5409 192.971 95.9848C191.192 95.0951 189.301 94.5389 187.188 94.5389C186.854 94.5389 123.457 99.6552 123.457 99.6552C121.233 99.8776 120.343 100.1 119.12 100.99V106.773C121.789 107.774 125.014 107.663 127.795 107.886Z" fill="white"/>
<path d="M201.98 98.0981C201.646 99.7664 201.201 101.324 200.645 102.658C196.864 110.777 187.41 112.001 179.402 113.002C166.834 114.67 154.154 113.558 141.586 112.891C135.247 112.557 128.907 111.778 122.567 111.222C120.343 111 118.007 110.889 115.783 110.555V112.223C117.117 113.113 118.341 113.558 120.454 113.669C120.454 113.669 189.634 119.342 189.968 119.342C197.754 119.342 203.982 113.113 203.982 105.328C203.982 102.658 203.203 100.211 201.98 98.0981Z" fill="#C2C2C2"/>
<path d="M80.0811 131.465C80.0811 131.465 78.3013 136.359 80.7485 137.805C83.1957 139.14 86.1991 137.027 84.5305 131.465H80.0811Z" fill="#936D45"/>
<path opacity="0.25" d="M97.8756 102.769C97.8756 105.328 95.7623 107.33 93.3154 107.33H63.5079C60.9498 107.33 58.9478 105.216 58.9478 102.769C58.9478 100.211 61.061 98.2093 63.5079 98.2093H93.3154C95.8736 98.2093 97.8756 100.323 97.8756 102.769Z" fill="white"/>
<path d="M113.67 66.8446H50.2729V85.7524H113.67V66.8446Z" fill="#908E83"/>
<path d="M139.362 59.8376H24.6914V66.8446H139.362V59.8376Z" fill="#BBB8AA"/>
<path d="M87.3094 137.137C87.3094 137.137 80.8586 148.482 87.3094 148.482C93.7603 148.593 87.3094 137.137 87.3094 137.137Z" fill="#936D45"/>
<path d="M74.7414 132.799C74.7414 132.799 70.2926 140.585 74.7414 140.585C79.1903 140.585 74.7414 132.799 74.7414 132.799Z" fill="#74441C"/>
<path d="M78.9675 142.809C78.9675 142.809 76.0754 147.815 78.9675 147.815C81.8597 147.926 78.9675 142.809 78.9675 142.809Z" fill="#584127"/>
<path d="M162.274 10.7886H1.89111V59.8376H162.274V10.7886Z" fill="#3E3F33"/>
<path d="M164.053 236.57V221.11C164.053 219.775 162.941 218.663 161.606 218.663H2.44689C1.11222 218.663 0 219.775 0 221.11V236.57H164.053Z" fill="#24261C"/>
<path d="M157.491 218.774V211.1C157.491 210.433 156.935 209.876 156.267 209.876H7.78546C7.11812 209.876 6.56201 210.433 6.56201 211.1V218.774H157.491Z" fill="#3E3F33"/>
<path d="M51.1623 70.6262C52.2746 71.0711 53.498 71.5159 54.7215 71.7384C54.8327 71.7384 55.0551 71.8496 55.2776 71.8496C55.5 71.8496 55.7225 71.8496 55.9449 71.9608C58.8367 72.1833 61.7285 72.2945 64.509 72.4057C71.2936 72.6282 78.0781 73.6292 84.7515 74.5189C94.4278 75.7424 104.215 76.9658 113.78 78.8566V66.8446H50.3838V70.4037C50.6062 70.4037 50.8287 70.5149 51.1623 70.6262Z" fill="#C2C2C2"/>
<path d="M54.9439 62.7294C63.2855 62.507 71.7384 62.3958 80.0801 62.3958C96.2073 62.2845 112.223 63.7304 128.239 65.1763C131.91 65.1763 135.58 65.3988 139.25 65.6212V59.8376H24.6914V61.506C34.8126 61.506 44.9339 62.0621 54.9439 62.7294Z" fill="#C2C2C2"/>
<path d="M160.938 32.2545C156.712 39.7064 148.704 46.1573 140.918 49.7164C125.236 56.8346 108.33 58.1693 91.3132 57.7244C73.2952 57.2795 55.2772 56.8346 37.148 56.9459C26.4706 56.9459 15.6821 57.0571 4.89352 56.501C3.89252 56.501 2.7803 56.3898 1.7793 56.2785V59.8376H162.162V29.6964C161.828 30.5862 161.383 31.476 160.938 32.2545Z" fill="#C2C2C2"/>
<path d="M161.606 218.774H159.159V232.788H0V236.681H164.053V221.221C164.053 219.775 162.941 218.774 161.606 218.774Z" fill="#C2C2C2"/>
<path d="M156.267 209.765H152.152V215.882H6.56201V218.774H157.602V211.1C157.491 210.321 156.935 209.765 156.267 209.765Z" fill="#C2C2C2"/>
<path opacity="0.09" d="M153.487 225.114C153.487 226.56 152.375 227.672 150.929 227.672H6.22852C4.78263 227.672 3.67041 226.56 3.67041 225.114C3.67041 223.668 4.78263 222.556 6.22852 222.556H150.929C152.375 222.556 153.487 223.779 153.487 225.114Z" fill="white"/>
<path opacity="0.09" d="M150.595 212.546C150.595 213.436 149.816 214.214 148.927 214.214H11.9008C11.011 214.214 10.2324 213.436 10.2324 212.546C10.2324 211.656 11.011 210.877 11.9008 210.877H148.927C149.816 210.877 150.595 211.656 150.595 212.546Z" fill="white"/>
<path d="M60.8392 209.765H100.99C101.769 208.542 102.436 207.207 102.659 206.317L118.007 155.044C118.564 153.264 117.451 151.818 115.561 151.818H46.2691C44.4896 151.818 43.3773 153.264 43.8222 155.044L59.1709 206.317C59.5046 207.207 60.0607 208.653 60.8392 209.765Z" fill="#D0D7D1"/>
<path d="M116.228 160.716L114.226 167.501C119.787 169.503 123.68 174.73 123.68 180.959C123.68 188.856 117.229 195.306 109.332 195.306C108.22 195.306 107.107 195.195 105.995 194.862L103.993 201.646C105.661 202.091 107.552 202.313 109.332 202.313C121.121 202.313 130.687 192.748 130.687 180.959C130.798 171.616 124.681 163.608 116.228 160.716Z" fill="#ADB3AE"/>
<path opacity="0.25" d="M75.2973 196.085C81.1921 193.638 86.4195 189.968 90.5347 185.185C97.4305 177.066 101.991 166.833 102.992 156.267H51.4957C49.8274 156.267 48.9376 157.602 49.3825 159.159L61.3945 199.088C66.0658 198.309 70.7372 197.976 75.2973 196.085Z" fill="white"/>
<path d="M115.56 151.93H109.443C110.777 158.158 110.777 164.609 108.553 170.837C104.994 180.847 98.2092 188.633 89.4227 194.528C81.6371 199.755 72.5169 203.203 63.3966 204.871C61.9508 205.094 60.5049 205.428 58.9478 205.539L59.1702 206.429C59.3926 207.318 60.06 208.764 60.8385 209.876H100.99C101.768 208.653 102.436 207.318 102.658 206.429L118.007 155.155C118.452 153.376 117.451 151.93 115.56 151.93Z" fill="#C2C2C2"/>
<path d="M124.902 191.97C120.342 195.974 113.335 198.977 107.218 198.087C106.44 198.198 105.772 198.309 104.994 198.309L103.993 201.646C105.661 202.091 107.552 202.313 109.331 202.313C121.121 202.313 130.686 192.748 130.686 180.959C130.686 180.625 130.686 180.291 130.686 179.846C130.13 184.74 128.684 188.744 124.902 191.97Z" fill="#C2C2C2"/>
<path d="M123.346 177.622C123.679 174.842 123.457 171.95 122.234 169.614C121.677 168.502 118.341 162.941 116.784 162.829C116.339 162.829 116.005 162.718 115.671 162.607L114.226 167.612C118.674 169.169 122.122 172.951 123.346 177.622Z" fill="#C2C2C2"/>
<path opacity="0.09" d="M6.56201 18.2405H151.04C151.04 18.2405 151.485 47.9369 92.7593 49.1603C34.0339 50.3838 6.78446 45.6012 6.78446 45.6012L6.56201 18.2405Z" fill="white"/>
</svg>
