<svg width="586" height="252" viewBox="0 0 586 252" fill="none" xmlns="http://www.w3.org/2000/svg">
<g clip-path="url(#clip0)">
<path d="M16.6586 163.026L20.7975 170.213C21.4152 171.305 22.589 171.964 23.8451 171.964H58.398C59.6541 171.964 60.8073 171.305 61.4456 170.213L65.5846 163.026C66.9436 160.679 65.2551 157.755 62.537 157.755H19.7061C16.988 157.755 15.2995 160.679 16.6586 163.026Z" fill="url(#paint0_linear)"/>
<path d="M16.3498 174.27L33.0291 203.162C33.5851 204.13 34.6353 204.727 35.7472 204.727H46.4755C47.6081 204.727 48.6377 204.13 49.1936 203.162L65.8935 174.27C67.1085 172.17 65.5847 169.554 63.1754 169.554H19.0679C16.6381 169.554 15.1349 172.17 16.3498 174.27Z" fill="url(#paint1_linear)"/>
<path d="M71.4534 206.334H64.6993V202.38H17.7295V220.79C17.7295 226.659 20.0152 232.157 24.1541 236.297C28.2931 240.436 33.8116 242.722 39.6597 242.722H42.7691C48.6377 242.722 54.1357 240.436 58.2746 236.297C60.7045 233.867 62.4754 230.983 63.5461 227.833L75.3864 221.037C77.8368 219.637 79.34 217.021 79.34 214.2C79.34 209.855 75.7982 206.334 71.4534 206.334ZM73.6567 218.072L64.9052 223.096C65.1111 221.84 65.2141 220.543 65.2141 219.245V209.773H71.4534C73.9038 209.773 75.9012 211.77 75.9012 214.2C75.8806 215.806 75.0363 217.268 73.6567 218.072Z" fill="url(#paint2_linear)"/>
<path d="M74.5832 202.4H7.63937C6.69215 202.4 5.90967 201.618 5.90967 200.67C5.90967 199.723 6.69215 198.941 7.63937 198.941H74.5832C75.5304 198.941 76.3129 199.723 76.3129 200.67C76.3129 201.618 75.5304 202.4 74.5832 202.4Z" fill="url(#paint3_linear)"/>
<path d="M519.797 87.7793H511.046C507.895 87.7793 505.342 90.3328 505.342 93.4836V105.778L515.411 102.009L525.48 105.778V93.4836C525.501 90.3328 522.948 87.7793 519.797 87.7793Z" fill="url(#paint4_linear)"/>
<path d="M551.9 114.715C551.57 115.23 550.973 115.559 550.376 115.498C550.294 115.498 550.232 115.498 550.15 115.498H480.694C480.611 115.498 480.55 115.498 480.467 115.498C479.849 115.539 479.273 115.209 478.943 114.715L478.284 113.706C477.708 112.82 478.017 111.605 478.964 111.173H478.985L479.129 111.111L514.402 97.9316C514.608 97.8493 514.814 97.8287 515.02 97.8287H515.844C516.05 97.8287 516.256 97.8699 516.462 97.9316L551.735 111.111L551.879 111.173H551.9C552.847 111.626 553.177 112.841 552.579 113.706L551.9 114.715Z" fill="url(#paint5_linear)"/>
<path d="M478.82 143.401L452.792 117.557C451.618 116.383 451.268 114.591 451.906 113.047C452.545 111.502 454.048 110.493 455.716 110.493H486.233V116.465H460.164L481.517 137.82L478.82 143.401Z" fill="url(#paint6_linear)"/>
<path d="M547.988 164.921H482.876V189.694H547.988V164.921Z" fill="url(#paint7_linear)"/>
<path d="M557.315 234.587L547.596 185.514H483.247L473.528 234.587C473.095 236.75 473.651 238.953 475.051 240.642C476.452 242.33 478.511 243.319 480.694 243.319H550.149C552.353 243.319 554.412 242.351 555.792 240.642C557.192 238.953 557.748 236.75 557.315 234.587Z" fill="url(#paint8_linear)"/>
<path d="M527.951 185.514H502.891L498.917 243.319H531.926L527.951 185.514Z" fill="url(#paint9_linear)"/>
<path d="M555.792 113.994C554.391 112.306 552.332 111.317 550.149 111.317H480.694C478.49 111.317 476.431 112.285 475.051 113.994C473.651 115.683 473.095 117.907 473.528 120.049L483.247 169.122H547.596L557.315 120.049C557.748 117.907 557.192 115.703 555.792 113.994Z" fill="url(#paint10_linear)"/>
<path d="M498.917 111.317L502.891 169.143H527.951L531.926 111.317H498.917Z" fill="url(#paint11_linear)"/>
<path d="M573.418 148.714L570.844 147.52C570.062 147.149 569.712 146.222 570.083 145.44L579.431 125.506C580.358 123.508 580.173 121.14 578.855 119.287C577.681 117.639 575.725 116.713 573.707 116.713H472.437V110.741H573.645C577.928 110.741 581.985 112.903 584.209 116.568C586.35 120.09 586.556 124.373 584.847 128.039L575.498 147.973C575.128 148.735 574.201 149.085 573.418 148.714Z" fill="url(#paint12_linear)"/>
<path d="M574.222 251.33H4.81847C2.16213 251.33 0 249.476 0 247.211C0 244.946 2.16213 243.092 4.81847 243.092H574.222C576.878 243.092 579.04 244.946 579.04 247.211C579.04 249.476 576.878 251.33 574.222 251.33Z" fill="url(#paint13_linear)"/>
<path d="M331.28 97.1079V113.253C331.28 117.433 334.657 120.811 338.837 120.811H352.531C356.711 120.811 360.088 117.433 360.088 113.253V97.1079H331.28Z" fill="url(#paint14_linear)"/>
<path d="M321.89 76.2678V97.9729C321.89 101.206 324.505 103.821 327.738 103.821H363.63C366.862 103.821 369.478 101.206 369.478 97.9729V76.2678C369.478 73.0347 366.862 70.4194 363.63 70.4194H327.738C324.505 70.4194 321.89 73.0347 321.89 76.2678Z" fill="url(#paint15_linear)"/>
<path d="M387.001 155.489H378.785L379.794 146.449C380.124 143.483 377.797 140.868 374.811 140.868H315.548C312.562 140.868 310.235 143.463 310.565 146.449L317.896 212.841H372.464L374.626 193.319L394.188 181.869C398.512 179.336 401.189 174.661 401.189 169.657C401.148 161.832 394.806 155.489 387.001 155.489ZM390.749 176.041L375.511 184.958L378.023 162.203H387.001C391.099 162.203 394.414 165.539 394.414 169.616C394.414 172.273 393.014 174.723 390.749 176.041Z" fill="url(#paint16_linear)"/>
<path d="M273.85 77.1532H386.919C397.029 77.1532 405.246 68.9366 405.246 58.8254V18.9984C405.246 8.88717 397.029 0.670532 386.919 0.670532H219.652C206.412 0.670532 195.622 11.4407 195.622 24.7027V219.348C195.622 232.59 206.391 243.381 219.652 243.381H390.667C398.697 243.381 405.246 236.832 405.246 228.801V221.305C405.246 213.273 398.697 206.725 390.667 206.725H273.87C273.52 206.725 273.232 206.437 273.232 206.087V77.7916C273.211 77.4415 273.5 77.1532 273.85 77.1532Z" fill="url(#paint17_linear)"/>
<path d="M320.634 26.8031C320.634 24.9498 319.131 23.4465 317.278 23.4465H195.622C195.601 23.8583 195.581 24.2908 195.581 24.7232V30.1804H317.257C319.131 30.1598 320.634 28.6565 320.634 26.8031Z" fill="url(#paint18_linear)"/>
<path d="M386.734 30.1598H374.585C372.732 30.1598 371.229 28.6565 371.229 26.8031C371.229 24.9498 372.732 23.4465 374.585 23.4465H386.734C388.587 23.4465 390.091 24.9498 390.091 26.8031C390.111 28.6565 388.608 30.1598 386.734 30.1598Z" fill="#1F7EAD"/>
<path d="M233.716 93.4423C223.915 93.4423 215.946 85.4728 215.946 75.6705C215.946 65.8682 223.915 57.8987 233.716 57.8987C243.518 57.8987 251.487 65.8682 251.487 75.6705C251.487 85.4728 243.518 93.4423 233.716 93.4423ZM233.716 64.612C227.621 64.612 222.659 69.575 222.659 75.6705C222.659 81.7661 227.621 86.729 233.716 86.729C239.812 86.729 244.774 81.7661 244.774 75.6705C244.754 69.575 239.791 64.612 233.716 64.612Z" fill="#1F7EAD"/>
<path d="M229.392 171.861C227.539 171.861 226.036 170.357 226.036 168.504V110.658C226.036 108.805 227.539 107.301 229.392 107.301C231.245 107.301 232.749 108.805 232.749 110.658V168.483C232.749 170.357 231.245 171.861 229.392 171.861Z" fill="#1F7EAD"/>
<path d="M158.042 227.545L124.313 155.757C123.489 153.986 123.489 151.968 124.313 150.218L141.733 113.15C143.319 109.773 143.072 105.881 141.074 102.73C139.077 99.5792 135.659 97.7052 131.932 97.7052H74.769C71.0419 97.7052 67.6237 99.5792 65.6263 102.73C63.6289 105.881 63.3818 109.773 64.9673 113.15L82.3879 150.218C83.2116 151.989 83.2116 154.007 82.3879 155.757L48.6586 227.545C47.0731 230.922 47.3202 234.814 49.3176 237.965C51.315 241.115 54.7332 242.989 58.4603 242.989H148.24C151.967 242.989 155.386 241.115 157.383 237.965C159.401 234.814 159.648 230.922 158.042 227.545Z" fill="url(#paint19_linear)"/>
<path d="M134.341 171.779L127.031 156.231C126.042 154.13 126.042 151.721 127.031 149.62L133.991 134.793C135.103 132.446 134.052 129.48 131.005 128.409H76.2719C75.8395 128.409 75.4071 128.512 74.9953 128.698C72.4831 129.933 71.68 132.61 72.7096 134.773L79.6696 149.6C80.658 151.7 80.658 154.11 79.6696 156.21L72.1536 172.211C71.9683 172.602 71.8653 173.014 71.8859 173.447C71.9271 176.268 74.0068 178.142 76.4161 178.142H131.334C134.382 177.092 135.432 174.126 134.341 171.779Z" fill="url(#paint20_linear)"/>
<path d="M128.369 150.403H80.0196C78.7841 146.758 75.3247 144.122 71.2681 144.122C66.1819 144.122 62.0224 148.261 62.0224 153.368C62.0224 154.069 62.1047 154.728 62.2489 155.386L62.1665 155.325C62.0636 155.428 53.0856 165.848 38.5272 163.171C37.4152 162.965 36.3445 163.665 36.0768 164.756C35.7679 165.971 36.5504 167.186 37.7859 167.413C39.7215 167.763 41.5542 167.928 43.3045 167.928C49.2555 167.928 54.074 166.136 57.4098 164.344C59.6337 163.15 61.4252 161.853 62.7431 160.741C61.8165 165.189 59.0778 174.806 52.2619 178.307C51.3353 178.78 50.9028 179.892 51.2323 180.901C51.6441 182.137 53.065 182.755 54.2387 182.157C62.7431 177.792 65.9348 166.692 66.985 161.585C68.2617 162.244 69.7237 162.635 71.2475 162.635C75.8806 162.635 79.7107 159.217 80.3902 154.769H128.369V150.403Z" fill="url(#paint21_linear)"/>
<path d="M304.593 197.643H295.945C295.945 197.643 295.924 197.643 295.924 197.623V197.376C295.924 194.575 293.638 192.289 290.838 192.289H239.029C236.229 192.289 233.943 194.575 233.943 197.376V214.468C233.943 222.746 237.176 230.53 243.024 236.379C248.419 241.774 255.441 244.925 262.977 245.399C272.326 245.975 281.489 242.289 287.831 235.37C290.467 232.487 292.506 229.192 293.885 225.609L309.638 216.568C312.789 214.756 314.724 211.399 314.724 207.775C314.724 202.174 310.173 197.643 304.593 197.643ZM307.579 213.273L295.409 220.255C295.389 220.255 295.389 220.255 295.389 220.234C295.594 219.122 295.739 217.989 295.821 216.836C295.821 216.815 295.821 216.774 295.821 216.754C295.842 216.548 295.842 216.342 295.862 216.136C295.862 216.095 295.862 216.033 295.862 215.992C295.862 215.786 295.883 215.6 295.883 215.395C295.883 215.333 295.883 215.271 295.883 215.23C295.883 214.983 295.883 214.715 295.883 214.468V201.535C295.883 201.535 295.883 201.515 295.903 201.515H304.552C308.073 201.515 310.915 204.439 310.812 207.981C310.771 210.185 309.494 212.161 307.579 213.273Z" fill="url(#paint22_linear)"/>
<path d="M250.169 180.572C248.934 180.572 247.987 179.418 248.275 178.203C248.522 177.215 248.872 176.494 249.202 175.856C249.634 174.991 249.963 174.353 249.963 172.911C249.963 171.47 249.655 170.831 249.202 169.966C248.687 168.937 248.028 167.639 248.028 165.271C248.028 162.903 248.687 161.605 249.202 160.576C249.449 160.061 249.675 159.649 249.799 159.093C250.005 158.228 250.787 157.631 251.673 157.631C252.908 157.631 253.855 158.784 253.567 159.999C253.32 160.988 252.97 161.708 252.64 162.347C252.208 163.212 251.878 163.85 251.878 165.292C251.878 166.733 252.187 167.371 252.64 168.236C253.155 169.266 253.814 170.563 253.814 172.932C253.814 175.3 253.155 176.597 252.64 177.627C252.393 178.142 252.167 178.553 252.043 179.11C251.837 179.974 251.055 180.572 250.169 180.572Z" fill="url(#paint23_linear)"/>
<path d="M264.172 180.572C262.936 180.572 261.989 178.884 262.277 177.106C262.524 175.659 262.875 174.605 263.204 173.67C263.636 172.405 263.966 171.471 263.966 169.361C263.966 167.251 263.657 166.317 263.204 165.052C262.689 163.545 262.03 161.646 262.03 158.18C262.03 154.715 262.689 152.816 263.204 151.309C263.451 150.556 263.678 149.953 263.801 149.14C264.007 147.874 264.79 147 265.675 147C266.91 147 267.858 148.688 267.569 150.466C267.322 151.912 266.972 152.967 266.643 153.901C266.21 155.167 265.881 156.101 265.881 158.211C265.881 160.32 266.19 161.254 266.643 162.52C267.178 164.027 267.817 165.925 267.817 169.391C267.817 172.857 267.158 174.755 266.643 176.262C266.396 177.016 266.169 177.618 266.046 178.432C265.84 179.698 265.057 180.572 264.172 180.572Z" fill="url(#paint24_linear)"/>
<path d="M278.174 180.572C276.939 180.572 275.992 179.418 276.28 178.203C276.527 177.215 276.877 176.494 277.206 175.856C277.639 174.991 277.968 174.353 277.968 172.911C277.968 171.47 277.659 170.831 277.206 169.966C276.671 168.937 276.033 167.639 276.033 165.271C276.033 162.903 276.692 161.605 277.206 160.576C277.454 160.061 277.68 159.649 277.804 159.093C278.01 158.228 278.792 157.631 279.677 157.631C280.913 157.631 281.86 158.784 281.572 159.999C281.325 160.988 280.975 161.708 280.645 162.347C280.213 163.212 279.883 163.85 279.883 165.292C279.883 166.733 280.192 167.371 280.645 168.236C281.16 169.266 281.819 170.563 281.819 172.932C281.819 175.3 281.16 176.597 280.645 177.627C280.398 178.142 280.172 178.553 280.048 179.11C279.842 179.974 279.06 180.572 278.174 180.572Z" fill="url(#paint25_linear)"/>
<path d="M350.451 129.46C351.46 133.084 348.351 135.226 345.694 135.226C343.017 135.226 340.279 133.002 340.938 129.295C341.432 126.556 345.447 120.955 345.447 120.955C345.447 120.955 349.607 126.453 350.451 129.46Z" fill="#562E23"/>
</g>
<defs>
<linearGradient id="paint0_linear" x1="46.4021" y1="157.5" x2="32.6755" y2="171.226" gradientUnits="userSpaceOnUse">
<stop offset="0.1619" stop-color="#E5675A"/>
<stop offset="0.8233" stop-color="#E5675A"/>
</linearGradient>
<linearGradient id="paint1_linear" x1="47.2092" y1="172.702" x2="32.0937" y2="187.816" gradientUnits="userSpaceOnUse">
<stop offset="0.1619" stop-color="#EA833D"/>
<stop offset="0.8233" stop-color="#EA833D"/>
</linearGradient>
<linearGradient id="paint2_linear" x1="49.5166" y1="208.94" x2="30.9644" y2="227.491" gradientUnits="userSpaceOnUse">
<stop offset="0.1619" stop-color="#3058AD"/>
<stop offset="0.8233" stop-color="#3058AD"/>
</linearGradient>
<linearGradient id="paint3_linear" x1="5.91683" y1="200.673" x2="76.3103" y2="200.673" gradientUnits="userSpaceOnUse">
<stop stop-color="#FDFEFF"/>
<stop offset="0.1619" stop-color="#F2F6FE"/>
<stop offset="0.8233" stop-color="#F2F6FE"/>
<stop offset="0.888" stop-color="#EAF0FB"/>
<stop offset="0.9884" stop-color="#D4DFF1"/>
<stop offset="1" stop-color="#D1DDF0"/>
</linearGradient>
<linearGradient id="paint4_linear" x1="519.942" y1="93.9114" x2="513.471" y2="100.382" gradientUnits="userSpaceOnUse">
<stop offset="0.1619" stop-color="#EA833D"/>
<stop offset="0.8233" stop-color="#EA833D"/>
</linearGradient>
<linearGradient id="paint5_linear" x1="527.744" y1="100.588" x2="505.272" y2="123.058" gradientUnits="userSpaceOnUse">
<stop offset="0.1619" stop-color="#3E97D4"/>
<stop offset="0.8233" stop-color="#3E97D4"/>
</linearGradient>
<linearGradient id="paint6_linear" x1="510.264" y1="83.1063" x2="487.792" y2="105.576" gradientUnits="userSpaceOnUse">
<stop stop-color="#53C8ED"/>
<stop offset="0.0188734" stop-color="#50C1E9"/>
<stop offset="0.1104" stop-color="#43A2DA"/>
<stop offset="0.1619" stop-color="#3E97D4"/>
<stop offset="0.8233" stop-color="#3E97D4"/>
<stop offset="0.896" stop-color="#428FCC"/>
<stop offset="1" stop-color="#4D7CB8"/>
</linearGradient>
<linearGradient id="paint7_linear" x1="523.497" y1="169.228" x2="508.534" y2="184.19" gradientUnits="userSpaceOnUse">
<stop stop-color="#53C8ED"/>
<stop offset="0.0721699" stop-color="#53C2E9"/>
<stop offset="0.6937" stop-color="#4F8FC6"/>
<stop offset="1" stop-color="#4D7CB8"/>
</linearGradient>
<linearGradient id="paint8_linear" x1="536.421" y1="196.206" x2="497.082" y2="235.543" gradientUnits="userSpaceOnUse">
<stop offset="0.1619" stop-color="#E5675A"/>
<stop offset="0.8233" stop-color="#E5675A"/>
</linearGradient>
<linearGradient id="paint9_linear" x1="527.584" y1="204.245" x2="505.012" y2="226.816" gradientUnits="userSpaceOnUse">
<stop stop-color="#3B6ECC"/>
<stop offset="0.4478" stop-color="#3460B8"/>
<stop offset="0.8233" stop-color="#3058AD"/>
</linearGradient>
<linearGradient id="paint10_linear" x1="534.512" y1="118.355" x2="497.797" y2="155.068" gradientUnits="userSpaceOnUse">
<stop offset="0.1619" stop-color="#E5675A"/>
<stop offset="0.8233" stop-color="#E5675A"/>
</linearGradient>
<linearGradient id="paint11_linear" x1="522.93" y1="130.736" x2="504.454" y2="149.211" gradientUnits="userSpaceOnUse">
<stop stop-color="#3B6ECC"/>
<stop offset="0.4564" stop-color="#3460B8"/>
<stop offset="0.8392" stop-color="#3058AD"/>
</linearGradient>
<linearGradient id="paint12_linear" x1="540.268" y1="113.113" x2="517.797" y2="135.583" gradientUnits="userSpaceOnUse">
<stop offset="0.1619" stop-color="#3E97D4"/>
<stop offset="0.8233" stop-color="#3E97D4"/>
</linearGradient>
<linearGradient id="paint13_linear" x1="376.194" y1="234.017" x2="209.749" y2="259.344" gradientUnits="userSpaceOnUse">
<stop stop-color="#FCAB72"/>
<stop offset="0.0274446" stop-color="#F8A367"/>
<stop offset="0.1135" stop-color="#EE8C48"/>
<stop offset="0.1619" stop-color="#EA833D"/>
<stop offset="0.8233" stop-color="#EA833D"/>
<stop offset="0.8841" stop-color="#E77D35"/>
<stop offset="0.9784" stop-color="#DE6C1F"/>
<stop offset="1" stop-color="#DB6719"/>
</linearGradient>
<linearGradient id="paint14_linear" x1="349.835" y1="102.595" x2="338.739" y2="113.69" gradientUnits="userSpaceOnUse">
<stop offset="0.1619" stop-color="#3E97D4"/>
<stop offset="0.8233" stop-color="#3E97D4"/>
</linearGradient>
<linearGradient id="paint15_linear" x1="353.486" y1="79.3195" x2="338.738" y2="94.0663" gradientUnits="userSpaceOnUse">
<stop offset="0.1619" stop-color="#EA833D"/>
<stop offset="0.8233" stop-color="#EA833D"/>
</linearGradient>
<linearGradient id="paint16_linear" x1="362.838" y1="156.954" x2="331.725" y2="188.065" gradientUnits="userSpaceOnUse">
<stop offset="0.1619" stop-color="#E5675A"/>
<stop offset="0.8233" stop-color="#E5675A"/>
</linearGradient>
<linearGradient id="paint17_linear" x1="358.454" y1="66.7528" x2="252.253" y2="172.947" gradientUnits="userSpaceOnUse">
<stop stop-color="#3B6ECC"/>
<stop offset="0.0880452" stop-color="#3460B8"/>
<stop offset="0.1619" stop-color="#3058AD"/>
<stop offset="0.8233" stop-color="#3058AD"/>
<stop offset="0.8909" stop-color="#2852A5"/>
<stop offset="0.9959" stop-color="#14408F"/>
<stop offset="1" stop-color="#133F8E"/>
</linearGradient>
<linearGradient id="paint18_linear" x1="195.596" y1="26.7941" x2="320.634" y2="26.7941" gradientUnits="userSpaceOnUse">
<stop stop-color="#53C8ED"/>
<stop offset="0.0188734" stop-color="#50C1E9"/>
<stop offset="0.1104" stop-color="#43A2DA"/>
<stop offset="0.1619" stop-color="#3E97D4"/>
<stop offset="0.8233" stop-color="#3E97D4"/>
<stop offset="0.896" stop-color="#428FCC"/>
<stop offset="1" stop-color="#4D7CB8"/>
</linearGradient>
<linearGradient id="paint19_linear" x1="137.679" y1="144.169" x2="65.9807" y2="215.863" gradientUnits="userSpaceOnUse">
<stop stop-color="#53C8ED"/>
<stop offset="0.0188734" stop-color="#50C1E9"/>
<stop offset="0.1104" stop-color="#43A2DA"/>
<stop offset="0.1619" stop-color="#3E97D4"/>
<stop offset="0.8233" stop-color="#3E97D4"/>
<stop offset="0.896" stop-color="#428FCC"/>
<stop offset="1" stop-color="#4D7CB8"/>
</linearGradient>
<linearGradient id="paint20_linear" x1="114.023" y1="142.787" x2="91.6785" y2="165.13" gradientUnits="userSpaceOnUse">
<stop stop-color="#FDFEFF"/>
<stop offset="0.1619" stop-color="#F2F6FE"/>
<stop offset="0.8233" stop-color="#F2F6FE"/>
<stop offset="0.888" stop-color="#EAF0FB"/>
<stop offset="0.9884" stop-color="#D4DFF1"/>
<stop offset="1" stop-color="#D1DDF0"/>
</linearGradient>
<linearGradient id="paint21_linear" x1="96.0345" y1="145.715" x2="65.3841" y2="176.363" gradientUnits="userSpaceOnUse">
<stop stop-color="#3B6ECC"/>
<stop offset="0.0880452" stop-color="#3460B8"/>
<stop offset="0.1619" stop-color="#3058AD"/>
<stop offset="0.8233" stop-color="#3058AD"/>
<stop offset="0.8909" stop-color="#2852A5"/>
<stop offset="0.9959" stop-color="#14408F"/>
<stop offset="1" stop-color="#133F8E"/>
</linearGradient>
<linearGradient id="paint22_linear" x1="274.09" y1="203.851" x2="254.243" y2="223.697" gradientUnits="userSpaceOnUse">
<stop offset="0.1619" stop-color="#EA833D"/>
<stop offset="0.8233" stop-color="#EA833D"/>
</linearGradient>
<linearGradient id="paint23_linear" x1="263.257" y1="156.759" x2="254.024" y2="165.991" gradientUnits="userSpaceOnUse">
<stop stop-color="#F48A84"/>
<stop offset="0.000384919" stop-color="#F48A84"/>
<stop offset="0.1038" stop-color="#E97165"/>
<stop offset="0.1619" stop-color="#E5675A"/>
<stop offset="0.8233" stop-color="#E5675A"/>
<stop offset="0.8853" stop-color="#DF5F54"/>
<stop offset="0.9816" stop-color="#D04942"/>
<stop offset="1" stop-color="#CC443E"/>
</linearGradient>
<linearGradient id="paint24_linear" x1="270.257" y1="155.969" x2="257.671" y2="164.57" gradientUnits="userSpaceOnUse">
<stop stop-color="#F48A84"/>
<stop offset="0.000384919" stop-color="#F48A84"/>
<stop offset="0.1038" stop-color="#E97165"/>
<stop offset="0.1619" stop-color="#E5675A"/>
<stop offset="0.8233" stop-color="#E5675A"/>
<stop offset="0.8853" stop-color="#DF5F54"/>
<stop offset="0.9816" stop-color="#D04942"/>
<stop offset="1" stop-color="#CC443E"/>
</linearGradient>
<linearGradient id="paint25_linear" x1="277.258" y1="170.761" x2="268.026" y2="179.993" gradientUnits="userSpaceOnUse">
<stop stop-color="#F48A84"/>
<stop offset="0.000384919" stop-color="#F48A84"/>
<stop offset="0.1038" stop-color="#E97165"/>
<stop offset="0.1619" stop-color="#E5675A"/>
<stop offset="0.8233" stop-color="#E5675A"/>
<stop offset="0.8853" stop-color="#DF5F54"/>
<stop offset="0.9816" stop-color="#D04942"/>
<stop offset="1" stop-color="#CC443E"/>
</linearGradient>
<clipPath id="clip0">
<rect y="0.670532" width="586" height="250.659" fill="white"/>
</clipPath>
</defs>
</svg>
