<svg width="213" height="73" viewBox="0 0 213 73" fill="none" xmlns="http://www.w3.org/2000/svg">
<path fill-rule="evenodd" clip-rule="evenodd" d="M28.0925 38.8186C29.6025 38.9928 30.6521 40.6467 30.4369 42.5125C30.2217 44.3784 28.8232 45.7498 27.3132 45.5755C25.8032 45.4013 24.7536 43.7475 24.9688 41.8816C25.184 40.0157 26.5825 38.6444 28.0925 38.8186ZM28.7944 39.8401C29.2875 39.897 29.63 40.4381 29.5596 41.0487C29.4892 41.6593 29.0324 42.1082 28.5394 42.0513C28.0464 41.9944 27.7038 41.4533 27.7742 40.8427C27.8447 40.2321 28.3014 39.7832 28.7944 39.8401Z" fill="#F2F2F2"/>
<path fill-rule="evenodd" clip-rule="evenodd" d="M0.0345417 36.9339C-0.810562 34.6798 14.683 31.2986 14.9647 31.2986L27.3596 0.586074C27.923 -0.540991 29.0498 0.304308 29.0498 0.304308L37.2191 7.63023C38.0642 8.19376 38.3459 7.912 38.3459 7.912L39.4727 6.2214C40.5995 5.09433 41.1629 5.65787 41.1629 5.65787L45.6702 11.2932C45.6702 11.2932 48.2055 14.1109 47.3604 14.6744C46.5153 15.2379 45.1068 14.6744 43.9799 14.1109C42.8531 13.5473 42.5714 14.1109 42.5714 14.1109C42.5714 14.1109 40.8812 17.2103 40.3178 18.0556C39.7544 18.9009 39.191 18.6191 39.191 18.6191L32.9936 14.9562L33.8387 28.7627C33.8387 28.7627 43.9799 28.7627 47.9238 29.8898C51.8676 31.0168 48.2055 32.7074 48.2055 32.7074C44.3185 35.1242 39.3347 36.6397 34.6126 37.59C34.6059 37.6742 34.5989 37.7639 34.5915 37.8586C34.5388 38.5295 34.4687 39.4501 34.3986 40.449C34.2571 42.4669 34.1204 44.7408 34.1204 45.9504C34.1204 47.5668 33.5647 48.6646 32.8185 49.3488C32.4656 49.6723 32.1078 49.8681 31.8275 49.9849C31.687 50.0434 31.5637 50.0832 31.4663 50.1099L31.4599 50.1116C31.4213 50.1275 31.3727 50.1475 31.3148 50.1711C31.1543 50.2366 30.9218 50.3303 30.6294 50.445C30.0448 50.6744 29.219 50.9886 28.2496 51.3298C26.3229 52.0079 23.7796 52.81 21.4217 53.2522C18.8767 53.7295 17.0982 53.2777 15.9084 52.5339C15.3288 52.1716 14.9288 51.7641 14.6663 51.4294C14.5353 51.2624 14.4384 51.1132 14.3698 50.996C14.3354 50.9372 14.308 50.8862 14.2868 50.8446C14.2811 50.8335 14.2759 50.823 14.2711 50.8132L11.9848 46.5255L10.8089 43.2909L9.50942 38.8717C4.94132 38.5793 0.440486 38.0167 0.0345417 36.9339ZM31.5885 40.2517C31.6441 39.4597 31.6996 38.717 31.7466 38.1072C25.02 39.1881 19.4719 39.1881 19.4719 39.1881C19.4719 39.1881 19.2516 39.1881 18.8579 39.1851C19.8849 39.7641 20.5164 41.0955 20.3479 42.5564C20.135 44.4022 18.7258 45.7558 17.2004 45.5798C15.675 45.4038 14.6109 43.7648 14.8238 41.919C14.9695 40.656 15.6753 39.6234 16.5953 39.1537C15.4359 39.1306 14.0127 39.0923 12.4917 39.0282L13.4865 42.4111L14.5642 45.3754L16.7947 49.5586L16.8009 49.5726C16.8116 49.5908 16.8378 49.6331 16.8829 49.6905C16.9725 49.8049 17.1359 49.9786 17.4014 50.1445C17.9019 50.4574 18.9403 50.8508 20.9026 50.4828C23.0519 50.0797 25.4384 49.3322 27.3146 48.6719C28.2467 48.3438 29.0406 48.0417 29.6006 47.822C29.8803 47.7122 30.1012 47.6232 30.251 47.5621C30.3259 47.5315 30.3831 47.5079 30.4209 47.4922L30.4631 47.4747L30.4753 47.4696L30.6273 47.4056L30.735 47.3876C30.7377 47.3866 30.7407 47.3854 30.744 47.384C30.7807 47.3687 30.8454 47.3356 30.915 47.2717C31.014 47.181 31.3034 46.8699 31.3034 45.9504C31.3034 44.6242 31.4484 42.249 31.5885 40.2517ZM17.4127 33.8514C17.469 33.8401 17.5113 33.8007 17.531 33.75L26.5173 8.7573L28.2075 4.24904C28.7399 2.91911 29.523 3.85175 29.6076 3.95882C29.6132 3.96728 29.6188 3.97291 29.6273 3.97855L37.5036 10.7297C38.0671 11.2932 38.6305 10.7297 38.6305 10.7297L40.4869 8.60797C40.5488 8.53753 40.6587 8.53471 40.7207 8.60515L43.1377 11.2932C43.9349 12.0934 42.7236 11.6341 42.5855 11.5806C42.5813 11.5778 42.5771 11.5757 42.5729 11.5736C42.5686 11.5714 42.5644 11.5693 42.5602 11.5665C41.7235 11.0171 41.4446 11.575 41.4446 11.575L39.191 15.5197C38.9093 16.0832 38.6276 15.8015 38.6276 15.8015L30.4583 11.2932V14.3926L31.0217 28.1992L31.2921 31.9946C31.2978 32.0791 31.3682 32.1439 31.4527 32.1411C32.7035 32.1073 41.3827 31.9016 40.5995 32.4257C39.7544 32.9892 36.9374 33.8345 36.9374 33.8345C28.4864 36.3704 13.8379 36.3704 13.8379 36.3704C13.8379 36.3704 7.92219 36.3704 10.4575 35.5251C12.7844 34.7502 16.7732 33.9726 17.4127 33.8514ZM19.4386 40.8965C19.4994 40.3693 19.2029 39.9021 18.7764 39.8529C18.3498 39.8037 17.9547 40.1911 17.8939 40.7182C17.8331 41.2454 18.1296 41.7126 18.5562 41.7618C18.9828 41.8111 19.3778 41.4236 19.4386 40.8965Z" fill="#F2F2F2"/>
<path d="M38.0642 70.1823C38.0642 71.7385 32.0734 73 24.6834 73C17.2934 73 11.3026 71.7385 11.3026 70.1823C11.3026 68.6262 17.2934 67.3647 24.6834 67.3647C32.0734 67.3647 38.0642 68.6262 38.0642 70.1823Z" fill="#F2F2F2"/>
<path d="M35.8444 43.4061C36.6952 43.206 37.5149 43.8457 37.5684 44.7191C37.7206 47.1705 38.0642 52.9354 38.0642 54.967C38.0642 58.0326 36.6276 58.8807 36.0473 59.0948C28.4498 62.4535 17.6437 63.0875 16.7676 63.1325C16.5366 63.1579 16.3169 63.1692 16.1056 63.1692C13.6126 63.1692 12.6351 61.5518 12.4576 60.591L10.6068 51.8675C10.6068 51.8675 10.1786 50.7405 10.742 50.4587C11.3054 50.1769 12.9759 50.5489 13.4971 51.9154L15.3056 60.4473C15.2962 60.324 15.4079 60.3304 15.6512 60.3444C15.847 60.3556 16.1281 60.3717 16.5 60.329L16.5845 60.3233C16.6944 60.3177 27.6835 59.7316 34.9543 56.4998C35.0557 56.3673 35.2472 55.9137 35.2472 54.9698C35.2472 53.0281 34.8889 47.6369 34.7365 45.3429L34.7364 45.3425C34.7137 45.0003 34.6955 44.727 34.6838 44.5444C34.6838 44.5444 34.6838 43.6991 35.8106 43.4174C35.8219 43.4117 35.8332 43.4089 35.8444 43.4061Z" fill="#F2F2F2"/>
<path d="M32.24 55.6677C32.9445 55.3379 33.2216 54.4421 32.8589 53.667C32.4961 52.8918 31.631 52.5308 30.9264 52.8606C30.2219 53.1904 29.9448 54.0862 30.3075 54.8614C30.6702 55.6365 31.5354 55.9976 32.24 55.6677Z" fill="#F2F2F2"/>
<path d="M26.7136 56.9252C27.4837 56.8151 28.0188 56.1015 27.9088 55.3313C27.7988 54.561 27.0853 54.0258 26.3153 54.1358C25.2765 54.2842 23.4707 54.6464 21.9652 54.9616C21.2036 55.1211 20.5044 55.2715 19.9958 55.3821C19.7414 55.4375 19.5344 55.4828 19.3909 55.5144L19.1665 55.564C18.4071 55.7328 17.9282 56.4854 18.097 57.2449C18.2657 58.0045 19.0182 58.4834 19.7776 58.3146L19.8336 58.3022C19.8707 58.294 19.9257 58.2818 19.9964 58.2662C20.1379 58.2351 20.3424 58.1902 20.5942 58.1355C21.098 58.026 21.7897 57.8771 22.5423 57.7195C24.065 57.4007 25.7805 57.0585 26.7136 56.9252Z" fill="#F2F2F2"/>
<path fill-rule="evenodd" clip-rule="evenodd" d="M136.33 61.1348C134.603 61.1348 133.245 60.4642 132.26 59.123C131.274 57.7818 130.781 55.9221 130.781 53.5469C130.781 51.1349 131.282 49.2556 132.288 47.9115C133.291 46.5647 134.676 45.9899 136.437 45.8913C138.775 45.7617 140.04 46.3562 140.485 46.8774L140.502 41.2055H144.528V60.8728H140.916V59.3597C140.001 60.808 138.198 61.1348 136.33 61.1348ZM137.739 57.9396C138.764 57.9396 139.646 57.3253 140.125 56.728C140.604 56.1307 140.733 55.4375 140.778 54.0061V53.5722C140.778 51.9943 140.612 51.0927 140.125 50.408C139.637 49.7233 138.851 49.3542 137.755 49.3542C136.863 49.3542 135.882 49.9121 135.386 50.67C134.891 51.428 134.846 52.1493 134.846 53.5976C134.846 55.0459 135.096 56.1307 135.595 56.852C136.093 57.5761 136.809 57.9396 137.739 57.9396Z" fill="#F2F2F2"/>
<path d="M50.0084 41.3886H44.7997V60.87H48.7999V47.8693L57.3298 60.87H62.0765V41.3886H57.865V54.271L50.0084 41.3886Z" fill="#F2F2F2"/>
<path fill-rule="evenodd" clip-rule="evenodd" d="M76.4094 59.0836C77.6883 57.717 78.3278 55.8207 78.3278 53.3947C78.3278 51.8309 78.0348 50.4672 77.4489 49.3035C76.863 48.1426 76.0235 47.2494 74.9305 46.6267C73.8375 46.004 72.5783 45.694 71.1472 45.694C68.8457 45.694 67.0626 46.3703 65.7921 47.7199C64.5216 49.0696 63.8878 50.9602 63.8878 53.3947C63.8878 54.9557 64.1808 56.3251 64.7667 57.4972C65.3526 58.6722 66.1921 59.571 67.2851 60.1965C68.3781 60.8221 69.6373 61.1348 71.0684 61.1348C73.3501 61.1348 75.1305 60.4529 76.4094 59.0836ZM68.7556 56.7393C68.2711 55.9841 68.0288 54.8683 68.0288 53.3947C68.0288 51.9098 68.2711 50.8025 68.75 50.0727C69.2289 49.3401 70.0092 48.9738 71.0937 48.9738C72.1867 48.9738 72.9727 49.3401 73.4516 50.0783C73.9304 50.8137 74.1699 51.9211 74.1699 53.3947C74.1699 54.8768 73.9333 55.9954 73.4572 56.7449C72.9811 57.4972 72.2036 57.872 71.1191 57.872C70.0289 57.872 69.2401 57.4944 68.7556 56.7393Z" fill="#F2F2F2"/>
<path d="M89.8522 59.8133C90.903 59.0216 91.4297 57.8692 91.4297 56.3533C91.4297 55.6235 91.3058 54.9951 91.0494 54.4654C90.7931 53.9357 90.3987 53.4708 89.8607 53.065C89.3226 52.6593 88.4775 52.2254 87.3253 51.7576C86.0323 51.2392 85.1929 50.8475 84.8098 50.5827C84.4266 50.3178 84.2351 50.0051 84.2351 49.6444C84.2351 49.002 84.8295 48.6808 86.0182 48.6808C86.6859 48.6808 87.3422 48.7822 87.9845 48.9851C88.6268 49.1879 89.3198 49.45 90.0578 49.7656L91.0523 46.7591C89.3705 45.9843 87.8606 45.6968 86.083 45.6968C84.2182 45.6968 82.7759 46.0547 81.7589 46.7732C80.7448 47.4889 80.2349 48.5032 80.2349 49.8163C80.2349 50.5827 80.3561 51.2279 80.5983 51.752C80.8378 52.2761 81.2265 52.741 81.7589 53.1468C82.2914 53.5525 83.1252 53.9921 84.2604 54.4682C85.052 54.8035 85.6887 55.0966 86.1619 55.3473C86.6352 55.5981 86.9704 55.8235 87.1648 56.0208C87.3592 56.218 87.4549 56.4772 87.4549 56.7928C87.4549 57.6381 86.7253 58.0608 85.2633 58.0608C84.5506 58.0608 83.7252 57.9396 82.7871 57.7029C81.8491 57.4662 81.0068 57.1704 80.2575 56.8182V60.1458C80.9195 60.4276 81.6265 60.6417 82.3843 60.7854C83.1421 60.9291 84.0576 61.0024 85.1309 61.0024C87.2268 61.0024 88.7986 60.6051 89.8522 59.8133Z" fill="#F2F2F2"/>
<path d="M100.83 57.9142C101.546 57.9142 102.427 57.7283 103.405 57.3056V60.4896C102.385 60.946 101.134 61.1743 99.6497 61.1743C98.0131 61.1743 96.8215 60.7601 96.0778 59.9345C95.3313 59.1089 94.9594 57.8663 94.9594 56.2124V48.9851H93.1988V45.8885H95.1482L95.1453 42.7242H98.8328V45.9166H102.833L102.81 48.9879H98.8779L98.861 56.2152C98.861 56.7956 99.2103 57.2267 99.5342 57.5029C99.861 57.7762 100.295 57.9142 100.83 57.9142Z" fill="#F2F2F2"/>
<path d="M114.835 45.9858C114.479 45.9073 113.988 45.799 113.487 45.7729C111.864 45.6856 110.599 46.1195 109.825 46.6182C109.05 47.1226 108.687 47.6946 108.687 47.6946L108.704 45.7391H105.32V60.9207L109.321 60.9235V54.2682C109.321 52.8453 109.676 51.118 110.388 50.4615C111.101 49.805 112.076 49.4021 113.352 49.4021C113.377 49.4021 113.402 49.402 113.429 49.4019C113.475 49.4018 113.524 49.4015 113.574 49.4012C114.035 49.3986 114.642 49.3952 114.918 49.4697V46.004L114.835 45.9858Z" fill="#F2F2F2"/>
<path fill-rule="evenodd" clip-rule="evenodd" d="M125.603 60.9742L125.434 59.5569C125.434 59.5569 124.586 60.236 123.223 60.7432C122.473 61.0221 121.552 61.2447 120.389 61.2447C118.958 61.2447 117.831 60.8362 117.008 60.0162C116.186 59.1991 115.774 58.0326 115.774 56.5223C115.774 54.9388 116.326 53.7723 117.434 53.02C118.541 52.2676 120.211 51.8535 122.442 51.7717L125.028 51.6928V51.0391C125.028 49.5261 124.254 48.7709 122.707 48.7709C121.515 48.7709 120.115 49.1316 118.507 49.8501L117.16 47.1029C118.876 46.204 120.78 45.756 122.868 45.756C124.868 45.756 126.403 46.1928 127.468 47.0634C128.535 47.9341 129.068 49.2612 129.068 51.0391V60.977H125.603V60.9742ZM125.028 54.0625L123.454 54.116C122.27 54.1527 121.391 54.364 120.814 54.7556C120.236 55.1473 119.946 55.7418 119.946 56.542C119.946 57.6888 120.606 58.2636 121.921 58.2636C122.865 58.2636 123.682 57.7198 124.245 57.1788C124.808 56.6378 125.028 55.8714 125.028 54.9726V54.0625Z" fill="#F2F2F2"/>
<path fill-rule="evenodd" clip-rule="evenodd" d="M156.094 59.5569L156.263 60.9742V60.977H159.728V51.0391C159.728 49.2612 159.196 47.9341 158.128 47.0634C157.063 46.1928 155.528 45.756 153.528 45.756C151.441 45.756 149.536 46.204 147.821 47.1029L149.167 49.8501C150.776 49.1316 152.176 48.7709 153.367 48.7709C154.914 48.7709 155.689 49.5261 155.689 51.0391V51.6928L153.103 51.7717C150.872 51.8535 149.201 52.2676 148.094 53.02C146.987 53.7723 146.435 54.9388 146.435 56.5223C146.435 58.0326 146.846 59.1991 147.669 60.0162C148.491 60.8362 149.618 61.2447 151.049 61.2447C152.212 61.2447 153.134 61.0221 153.883 60.7432C155.246 60.236 156.094 59.5569 156.094 59.5569ZM154.114 54.116L155.689 54.0625V54.9726C155.689 55.8714 155.469 56.6378 154.905 57.1788C154.342 57.7198 153.525 58.2636 152.581 58.2636C151.266 58.2636 150.607 57.6888 150.607 56.542C150.607 55.7418 150.897 55.1473 151.474 54.7556C152.052 54.364 152.931 54.1527 154.114 54.116Z" fill="#F2F2F2"/>
<path d="M170.892 61.0559V52.2733C170.892 51.1885 170.712 50.3742 170.348 49.8332C169.985 49.2922 169.413 49.0189 168.633 49.0189C167.585 49.0189 166.714 49.6134 166.241 50.3854C165.765 51.1575 165.635 53.1947 165.635 54.9613V61.0559H161.534V45.7504L165.447 45.7814V47.1282L165.455 47.1199C165.988 46.5873 166.257 46.3182 167.061 46.0519C167.872 45.7814 168.83 45.7391 169.819 45.7391C172.07 45.7391 172.951 46.8662 173.517 47.9707C173.517 47.9707 174.21 46.9423 175.087 46.4548C176.137 45.8687 176.656 45.7363 179.194 45.7391C180.898 45.7419 181.794 46.1702 182.67 47.0465C183.543 47.92 184.16 49.2837 184.239 51.2561V61.0616H180.259V52.2789C180.259 51.1941 180.078 50.3798 179.715 49.8388C179.352 49.2978 178.881 49.0189 178.104 49.0189C177.101 49.0189 176.436 49.4443 175.94 50.16C175.441 50.8785 175.002 52.8424 175.002 54.4006V61.0559H170.892Z" fill="#F2F2F2"/>
<path d="M196.037 59.2864L196.076 60.87L199.958 60.8136V45.7335H195.845V51.0363C195.845 52.8171 195.792 54.9444 195.358 55.8123C194.946 56.6407 193.907 57.7226 192.755 57.7226C191.91 57.7226 191.121 57.5367 190.735 56.9929C190.349 56.4491 190.155 55.6319 190.155 54.5443V45.7363H186.042V55.5699C186.042 57.3507 186.493 58.7145 187.391 59.664C188.29 60.6107 189.625 60.9348 191.397 60.9348C192.431 60.9348 193.425 60.8841 194.234 60.5009L194.35 60.4463C195.042 60.1216 195.066 60.1105 196.037 59.2864Z" fill="#F2F2F2"/>
<path d="M213.001 56.3533C213.001 57.8692 212.474 59.0216 211.423 59.8133C210.37 60.6051 208.798 61.0024 206.702 61.0024C205.629 61.0024 204.713 60.9291 203.955 60.7854C203.198 60.6417 202.49 60.4276 201.828 60.1458V56.8182C202.578 57.1704 203.42 57.4662 204.358 57.7029C205.296 57.9396 206.122 58.0608 206.834 58.0608C208.296 58.0608 209.026 57.6381 209.026 56.7928C209.026 56.4772 208.93 56.218 208.736 56.0208C208.541 55.8235 208.206 55.5981 207.733 55.3473C207.26 55.0966 206.623 54.8035 205.831 54.4682C204.696 53.9921 203.862 53.5525 203.33 53.1468C202.798 52.741 202.409 52.2761 202.169 51.752C201.927 51.2279 201.806 50.5827 201.806 49.8163C201.806 48.5032 202.316 47.4889 203.33 46.7732C204.347 46.0547 205.789 45.6968 207.654 45.6968C209.432 45.6968 210.942 45.9843 212.623 46.7591L211.629 49.7656C210.891 49.45 210.198 49.1879 209.556 48.9851C208.913 48.7822 208.257 48.6808 207.589 48.6808C206.4 48.6808 205.806 49.002 205.806 49.6444C205.806 50.0051 205.998 50.3178 206.381 50.5827C206.764 50.8475 207.603 51.2392 208.896 51.7576C210.049 52.2254 210.894 52.6593 211.432 53.065C211.97 53.4708 212.364 53.9357 212.62 54.4654C212.877 54.9951 213.001 55.6235 213.001 56.3533Z" fill="#F2F2F2"/>
<path fill-rule="evenodd" clip-rule="evenodd" d="M49.3238 69.3258C49.3238 70.2556 49.0703 70.9656 48.566 71.4587C48.0618 71.9518 47.335 72.197 46.3885 72.197H44.8279V66.5645H46.5519C47.428 66.5645 48.1069 66.8068 48.5942 67.2914C49.0816 67.7761 49.3238 68.4551 49.3238 69.3258ZM48.6308 69.3483C48.6308 68.6129 48.4477 68.0606 48.0787 67.6887C47.7097 67.3168 47.1632 67.1308 46.4364 67.1308H45.4842V71.6306H46.2814C47.0618 71.6306 47.6477 71.439 48.0421 71.0558C48.4336 70.6698 48.6308 70.1006 48.6308 69.3483Z" fill="#F2F2F2"/>
<path d="M50.6675 72.1941H53.8057V71.6081H51.3211V69.5343H53.6564V68.9566H51.3211V67.1421H53.8057V66.5616H50.6675V72.1941Z" fill="#F2F2F2"/>
<path d="M55.7945 72.1941H55.141V66.5616H58.2791V67.1421H55.7945V69.2018H58.1298V69.7822H55.7945V72.1941Z" fill="#F2F2F2"/>
<path d="M59.2989 72.1941H62.437V71.6081H59.9524V69.5343H62.2877V68.9566H59.9524V67.1421H62.437V66.5616H59.2989V72.1941Z" fill="#F2F2F2"/>
<path d="M66.1808 67.066C65.5611 67.066 65.0738 67.2717 64.716 67.6831C64.3582 68.0945 64.1779 68.6608 64.1779 69.3765C64.1779 70.1147 64.3498 70.6839 64.6963 71.084C65.0428 71.4869 65.5329 71.687 66.1724 71.687C66.564 71.687 67.0147 71.6165 67.5161 71.4756V72.0505C67.1245 72.197 66.6457 72.2702 66.071 72.2702C65.2428 72.2702 64.6005 72.0195 64.1498 71.5151C63.6991 71.0107 63.4737 70.2979 63.4737 69.368C63.4737 68.7876 63.5807 68.2804 63.8005 67.8437C64.0174 67.4069 64.3301 67.0716 64.7414 66.835C65.1498 66.5983 65.6343 66.4799 66.1865 66.4799C66.7781 66.4799 67.2936 66.587 67.7358 66.804L67.4598 67.3675C67.0344 67.1674 66.609 67.066 66.1808 67.066Z" fill="#F2F2F2"/>
<path d="M69.9134 72.1941H70.5669V67.1449H72.3501V66.5645H68.1302V67.1449H69.9134V72.1941Z" fill="#F2F2F2"/>
<path fill-rule="evenodd" clip-rule="evenodd" d="M76.0742 69.8527V72.1941H75.4206V66.5616H76.9643C77.6545 66.5616 78.1644 66.6941 78.494 66.9589C78.8236 67.2238 78.9898 67.6211 78.9898 68.1536C78.9898 68.8975 78.6123 69.4018 77.8573 69.6639L79.387 72.1941H78.6123L77.2489 69.8527H76.0742ZM76.077 69.2891H76.9728C77.4348 69.2891 77.7728 69.1962 77.9897 69.013C78.2066 68.8299 78.3137 68.5537 78.3137 68.1874C78.3137 67.8155 78.2038 67.5478 77.9841 67.3816C77.7644 67.2182 77.4122 67.1336 76.9277 67.1336H76.077V69.2891Z" fill="#F2F2F2"/>
<path d="M80.3814 72.1941H83.5195V71.6081H81.0349V69.5343H83.3702V68.9566H81.0349V67.1421H83.5195V66.5616H80.3814V72.1941Z" fill="#F2F2F2"/>
<path fill-rule="evenodd" clip-rule="evenodd" d="M88.4268 68.2043C88.4268 68.7735 88.2324 69.2131 87.8436 69.5202C87.4549 69.8273 86.8971 69.9795 86.1732 69.9795H85.5112V72.1941H84.8576V66.5616H86.3168C87.7225 66.5616 88.4268 67.1083 88.4268 68.2043ZM86.0999 69.4159C86.6802 69.4159 87.1 69.323 87.3591 69.1342C87.6183 68.9454 87.7479 68.6467 87.7479 68.2325C87.7479 67.8606 87.6267 67.5816 87.3817 67.4013C87.1366 67.2182 86.7591 67.128 86.2408 67.128H85.5083V69.4159H86.0999Z" fill="#F2F2F2"/>
<path fill-rule="evenodd" clip-rule="evenodd" d="M93.8946 71.4982C94.3509 70.9797 94.5791 70.2725 94.5791 69.3708C94.5791 68.4664 94.3509 67.7591 93.8974 67.2435C93.4411 66.7307 92.81 66.4743 92.0016 66.4743C91.1677 66.4743 90.5283 66.7279 90.0747 67.2322C89.6212 67.7366 89.3958 68.4495 89.3958 69.3652C89.3958 70.2894 89.6212 71.0051 90.0719 71.5123C90.5226 72.0195 91.1649 72.273 91.9931 72.273C92.8044 72.273 93.4382 72.0166 93.8946 71.4982ZM90.579 71.1065C90.255 70.7121 90.0916 70.1344 90.0916 69.3708C90.0916 68.6185 90.255 68.0465 90.579 67.6521C90.9029 67.2576 91.379 67.0604 92.0016 67.0604C92.6241 67.0604 93.0917 67.2548 93.4101 67.6464C93.7284 68.0381 93.8861 68.6129 93.8861 69.3708C93.8861 70.1373 93.7256 70.7177 93.4072 71.1093C93.0889 71.501 92.6157 71.6982 91.9931 71.6982C91.3762 71.6982 90.9029 71.501 90.579 71.1065Z" fill="#F2F2F2"/>
<path fill-rule="evenodd" clip-rule="evenodd" d="M96.5764 69.8527V72.1941H95.9229V66.5616H97.4666C98.1567 66.5616 98.6666 66.6941 98.9962 66.9589C99.3258 67.2238 99.492 67.6211 99.492 68.1536C99.492 68.8975 99.1145 69.4018 98.3596 69.6639L99.8892 72.1941H99.1145L97.7511 69.8527H96.5764ZM96.5792 69.2891H97.475C97.937 69.2891 98.2751 69.1962 98.492 69.013C98.7089 68.8299 98.8159 68.5537 98.8159 68.1874C98.8159 67.8155 98.7061 67.5478 98.4863 67.3816C98.2666 67.2182 97.9145 67.1336 97.4299 67.1336H96.5792V69.2891Z" fill="#F2F2F2"/>
<path d="M101.963 72.1941H102.616V67.1449H104.399V66.5645H100.179V67.1449H101.963V72.1941Z" fill="#F2F2F2"/>
<path fill-rule="evenodd" clip-rule="evenodd" d="M111.008 72.1942L110.307 70.4021H108.05L107.357 72.1942H106.695L108.921 66.5391H109.473L111.687 72.1942H111.008ZM110.104 69.8132L109.45 68.0691C109.366 67.8493 109.278 67.576 109.188 67.2576C109.132 67.5056 109.05 67.7761 108.946 68.0691L108.284 69.8132H110.104Z" fill="#F2F2F2"/>
<path d="M116.2 72.1941H116.946V66.5616H116.335V69.7935C116.329 69.9541 116.338 70.2246 116.355 70.5993C116.372 70.9741 116.383 71.1967 116.388 71.2671H116.357L113.287 66.5588H112.549V72.1913H113.155V68.9905C113.155 68.5284 113.135 68.0212 113.093 67.4661H113.124L116.2 72.1941Z" fill="#F2F2F2"/>
<path fill-rule="evenodd" clip-rule="evenodd" d="M122.121 72.1942L121.42 70.4021H119.163L118.47 72.1942H117.808L120.034 66.5391H120.586L122.8 72.1942H122.121ZM121.214 69.8132L120.56 68.0691C120.476 67.8493 120.389 67.576 120.298 67.2576C120.242 67.5056 120.16 67.7761 120.056 68.0691L119.394 69.8132H121.214Z" fill="#F2F2F2"/>
<path d="M123.659 66.5616V72.1941H126.797V71.5996H124.313V66.5616H123.659Z" fill="#F2F2F2"/>
<path d="M129.273 69.3793L130.775 66.5645H131.485L129.606 70.0133V72.197H128.944V70.0443L127.068 66.5645H127.783L129.273 69.3793Z" fill="#F2F2F2"/>
<path d="M134.984 71.856C135.341 71.5771 135.522 71.1911 135.522 70.6952C135.522 70.312 135.409 69.9964 135.189 69.7541C134.967 69.5117 134.561 69.2863 133.969 69.075C133.617 68.951 133.358 68.8355 133.186 68.7312C133.017 68.627 132.893 68.5115 132.823 68.3875C132.752 68.2635 132.716 68.1029 132.716 67.9085C132.716 67.6436 132.814 67.4379 133.009 67.2886C133.203 67.1393 133.474 67.066 133.82 67.066C134.26 67.066 134.71 67.1646 135.175 67.359L135.378 66.7899C134.907 66.587 134.395 66.4828 133.834 66.4828C133.299 66.4828 132.868 66.6124 132.541 66.8688C132.214 67.1252 132.051 67.4718 132.051 67.9057C132.051 68.3199 132.164 68.6552 132.389 68.9116C132.614 69.1708 132.989 69.3906 133.513 69.5794C133.888 69.7118 134.167 69.833 134.35 69.9372C134.533 70.0415 134.662 70.157 134.741 70.281C134.82 70.4049 134.86 70.5656 134.86 70.76C134.86 71.053 134.747 71.284 134.527 71.4503C134.307 71.6165 133.978 71.6982 133.541 71.6982C133.274 71.6982 133.006 71.6701 132.733 71.6137C132.46 71.5574 132.209 71.4813 131.978 71.3827V72.0138C132.338 72.1885 132.851 72.273 133.519 72.273C134.136 72.273 134.623 72.1322 134.984 71.856Z" fill="#F2F2F2"/>
<path d="M136.761 72.1941V66.5616H137.415V72.1941H136.761Z" fill="#F2F2F2"/>
<path d="M141.685 71.856C142.043 71.5771 142.223 71.1911 142.223 70.6952C142.223 70.312 142.111 69.9964 141.891 69.7541C141.668 69.5117 141.263 69.2863 140.671 69.075C140.319 68.951 140.057 68.8355 139.888 68.7312C139.719 68.627 139.595 68.5115 139.525 68.3875C139.454 68.2635 139.418 68.1029 139.418 67.9085C139.418 67.6436 139.516 67.4379 139.711 67.2886C139.905 67.1393 140.175 67.066 140.522 67.066C140.961 67.066 141.412 67.1646 141.877 67.359L142.08 66.7899C141.609 66.587 141.096 66.4828 140.536 66.4828C140.001 66.4828 139.57 66.6124 139.243 66.8688C138.916 67.1252 138.753 67.4718 138.753 67.9057C138.753 68.3199 138.865 68.6552 139.091 68.9116C139.316 69.1708 139.691 69.3906 140.215 69.5794C140.589 69.7118 140.868 69.833 141.051 69.9372C141.235 70.0415 141.364 70.157 141.443 70.281C141.522 70.4049 141.561 70.5656 141.561 70.76C141.561 71.053 141.449 71.284 141.229 71.4503C141.009 71.6165 140.68 71.6982 140.243 71.6982C139.975 71.6982 139.708 71.6701 139.434 71.6137C139.161 71.5574 138.91 71.4813 138.679 71.3827V72.0138C139.04 72.1885 139.553 72.273 140.22 72.273C140.837 72.273 141.325 72.1322 141.685 71.856Z" fill="#F2F2F2"/>
</svg>
