<svg width="50" height="73" viewBox="0 0 50 73" fill="none" xmlns="http://www.w3.org/2000/svg">
<path fill-rule="evenodd" clip-rule="evenodd" d="M28.1707 38.6812C29.6849 38.8549 30.7374 40.5028 30.5216 42.3621C30.3058 44.2214 28.9034 45.5879 27.3892 45.4143C25.875 45.2407 24.8225 43.5927 25.0383 41.7334C25.2541 39.8741 26.6565 38.5076 28.1707 38.6812ZM28.8746 39.6991C29.369 39.7558 29.7125 40.295 29.6419 40.9035C29.5713 41.5119 29.1133 41.9592 28.6189 41.9025C28.1245 41.8458 27.7809 41.3066 27.8516 40.6982C27.9222 40.0897 28.3802 39.6424 28.8746 39.6991Z" fill="#F2F2F2"/>
<path fill-rule="evenodd" clip-rule="evenodd" d="M0.034604 36.8032C-0.812854 34.5571 14.7239 31.1878 15.0064 31.1878L27.4357 0.584C28.0007 -0.539077 29.1306 0.303231 29.1306 0.303231L37.3227 7.60323C38.1702 8.16477 38.4527 7.884 38.4527 7.884L39.5826 6.19938C40.7126 5.07631 41.2775 5.63785 41.2775 5.63785L45.7973 11.2532C45.7973 11.2532 48.3397 14.0609 47.4922 14.6225C46.6448 15.184 45.2323 14.6225 44.1024 14.0609C42.9725 13.4994 42.69 14.0609 42.69 14.0609C42.69 14.0609 40.9951 17.1494 40.4301 17.9917C39.8651 18.834 39.3001 18.5532 39.3001 18.5532L33.0854 14.9032L33.9329 28.6609C33.9329 28.6609 44.1024 28.6609 48.0572 29.784C52.012 30.9071 48.3397 32.5917 48.3397 32.5917C44.4419 34.9999 39.4442 36.51 34.709 37.457C34.7023 37.5409 34.6952 37.6303 34.6878 37.7246C34.635 38.3932 34.5647 39.3105 34.4944 40.3058C34.3524 42.3166 34.2154 44.5825 34.2154 45.7878C34.2154 47.3985 33.6581 48.4924 32.9099 49.1741C32.556 49.4966 32.1972 49.6917 31.9161 49.808C31.7753 49.8664 31.6516 49.906 31.5539 49.9325L31.5475 49.9343C31.5087 49.9502 31.4601 49.9701 31.4019 49.9936C31.241 50.0588 31.0079 50.1522 30.7146 50.2665C30.1285 50.4951 29.3004 50.8082 28.3283 51.1482C26.3962 51.8238 23.8458 52.6232 21.4813 53.0638C18.9292 53.5394 17.1457 53.0891 15.9527 52.348C15.3715 51.987 14.9703 51.581 14.7071 51.2474C14.5758 51.081 14.4786 50.9324 14.4098 50.8155C14.3753 50.757 14.3478 50.7062 14.3265 50.6647C14.3209 50.6536 14.3156 50.6432 14.3108 50.6334L12.0182 46.3609L10.839 43.1377L9.53587 38.7342C4.95504 38.4428 0.441679 37.8822 0.034604 36.8032ZM31.6765 40.1093C31.7322 39.32 31.7879 38.58 31.835 37.9723C25.0896 39.0494 19.5261 39.0494 19.5261 39.0494C19.5261 39.0494 19.3052 39.0494 18.9104 39.0465C19.9403 39.6234 20.5735 40.9501 20.4045 42.4059C20.1911 44.2451 18.7779 45.5939 17.2483 45.4185C15.7186 45.2431 14.6516 43.6099 14.8651 41.7707C15.0111 40.5121 15.719 39.4832 16.6415 39.0151C15.4788 38.9922 14.0517 38.9539 12.5265 38.8901L13.524 42.261L14.6047 45.2148L16.8414 49.3832L16.8477 49.3972C16.8583 49.4153 16.8847 49.4575 16.9299 49.5147C17.0198 49.6286 17.1836 49.8017 17.4499 49.9671C17.9517 50.2788 18.9931 50.6709 20.9607 50.3042C23.1161 49.9025 25.5092 49.1576 27.3907 48.4996C28.3253 48.1728 29.1215 47.8717 29.683 47.6528C29.9635 47.5434 30.185 47.4547 30.3352 47.3938C30.4104 47.3633 30.4677 47.3398 30.5056 47.3242L30.5479 47.3067L30.5601 47.3016L30.7125 47.2378L30.8206 47.2199C30.8232 47.2189 30.8263 47.2177 30.8296 47.2163C30.8664 47.2011 30.9313 47.1681 31.0011 47.1044C31.1003 47.014 31.3905 46.7041 31.3905 45.7878C31.3905 44.4663 31.536 42.0995 31.6765 40.1093ZM17.4612 33.7316C17.5177 33.7204 17.56 33.6811 17.5798 33.6305L26.5911 8.72632L28.286 4.23401C28.8199 2.90878 29.6052 3.83812 29.69 3.94482C29.6956 3.95324 29.7013 3.95885 29.7098 3.96447L37.6081 10.6917C38.173 11.2532 38.738 10.6917 38.738 10.6917L40.5996 8.57751C40.6617 8.50732 40.7719 8.50451 40.834 8.5747L43.2578 11.2532C44.0572 12.0506 42.8425 11.593 42.7041 11.5396C42.6999 11.5368 42.6956 11.5347 42.6914 11.5326C42.6872 11.5305 42.6829 11.5284 42.6787 11.5256C41.8397 10.9781 41.56 11.534 41.56 11.534L39.3002 15.4648C39.0177 16.0263 38.7352 15.7455 38.7352 15.7455L30.5431 11.2532V14.3417L31.1081 28.0994L31.3792 31.8814C31.3849 31.9656 31.4555 32.0302 31.5403 32.0274C32.7945 31.9937 41.4979 31.7887 40.7126 32.3109C39.8651 32.8725 37.0403 33.7148 37.0403 33.7148C28.5657 36.2417 13.8764 36.2417 13.8764 36.2417C13.8764 36.2417 7.94422 36.2417 10.4866 35.3994C12.8199 34.6273 16.8199 33.8524 17.4612 33.7316ZM19.4927 40.7518C19.5537 40.2265 19.2564 39.7609 18.8286 39.7119C18.4009 39.6628 18.0047 40.0489 17.9437 40.5742C17.8827 41.0994 18.1801 41.565 18.6078 41.6141C19.0356 41.6631 19.4318 41.2771 19.4927 40.7518Z" fill="#F2F2F2"/>
<path d="M38.1702 69.934C38.1702 71.4846 32.1627 72.7417 24.7521 72.7417C17.3415 72.7417 11.334 71.4846 11.334 69.934C11.334 68.3834 17.3415 67.1263 24.7521 67.1263C32.1627 67.1263 38.1702 68.3834 38.1702 69.934Z" fill="#F2F2F2"/>
<path d="M35.9442 43.2525C36.7973 43.0532 37.6194 43.6905 37.673 44.5609C37.8256 47.0036 38.1702 52.7481 38.1702 54.7725C38.1702 57.8272 36.7295 58.6723 36.1476 58.8857C28.529 62.2325 17.6928 62.8642 16.8143 62.9092C16.5826 62.9344 16.3623 62.9457 16.1504 62.9457C13.6504 62.9457 12.6702 61.334 12.4923 60.3766L10.6363 51.684C10.6363 51.684 10.2069 50.5609 10.7719 50.2802C11.3369 49.9994 13.012 50.37 13.5346 51.7317L15.3482 60.2334C15.3388 60.1105 15.4508 60.1169 15.6947 60.1308C15.8911 60.142 16.173 60.1581 16.5459 60.1155L16.6307 60.1099C16.7408 60.1043 27.7606 59.5203 35.0516 56.2999C35.1533 56.1679 35.3454 55.7158 35.3454 54.7753C35.3454 52.8404 34.9861 47.4683 34.8332 45.1825L34.8331 45.1821C34.8103 44.841 34.7921 44.5687 34.7804 44.3868C34.7804 44.3868 34.7804 43.5445 35.9103 43.2637C35.9216 43.2581 35.9329 43.2553 35.9442 43.2525Z" fill="#F2F2F2"/>
<path d="M32.3297 55.4708C33.0362 55.1421 33.3141 54.2495 32.9504 53.4771C32.5866 52.7046 31.719 52.3449 31.0125 52.6735C30.306 53.0022 30.0281 53.8948 30.3919 54.6672C30.7556 55.4397 31.6232 55.7994 32.3297 55.4708Z" fill="#F2F2F2"/>
<path d="M26.788 56.7237C27.5602 56.6141 28.0968 55.903 27.9865 55.1355C27.8762 54.3679 27.1607 53.8346 26.3885 53.9443C25.3469 54.0922 23.5361 54.4531 22.0263 54.7671C21.2626 54.926 20.5615 55.076 20.0515 55.1862C19.7964 55.2413 19.5888 55.2865 19.4449 55.318L19.2198 55.3674C18.4583 55.5356 17.9781 56.2855 18.1473 57.0424C18.3165 57.7992 19.0712 58.2764 19.8327 58.1082L19.8888 58.0959C19.926 58.0877 19.9811 58.0756 20.052 58.0601C20.1939 58.029 20.3991 57.9843 20.6516 57.9298C21.1567 57.8206 21.8504 57.6723 22.605 57.5153C24.132 57.1976 25.8523 56.8566 26.788 56.7237Z" fill="#F2F2F2"/>
</svg>
