<svg width="593" height="288" viewBox="0 0 593 288" fill="none" xmlns="http://www.w3.org/2000/svg">
<g clip-path="url(#clip0)">
<path d="M354.94 166.361C348.253 146.728 321.954 153.297 325.574 173.733C328.116 188.064 318.106 175.782 309.136 186.89C303.547 193.819 307.464 202.302 307.464 202.302L350.726 204.897L354.94 166.361Z" fill="#FDB735"/>
<path d="M358.807 184.883C375.69 155.613 363.732 114.864 363.732 114.864C363.732 114.864 354.237 131.903 352.833 150.795C351.428 169.687 353.189 188.949 353.189 188.949L358.807 184.883Z" fill="#4FBED7"/>
<path d="M347.086 188.486C358.441 165.939 388.904 147.5 414.432 158.197C408.745 181.588 393.039 207.275 374.8 206.225C356.562 205.175 347.086 188.486 347.086 188.486Z" fill="#FDB735"/>
<path d="M359.193 191.523C359.064 191.523 358.955 191.43 358.935 191.296C358.906 191.142 359.005 190.998 359.153 190.977C359.499 190.916 393.622 184.265 408.3 162.562C408.389 162.439 408.547 162.408 408.666 162.501C408.785 162.593 408.814 162.758 408.725 162.892C393.919 184.78 359.588 191.461 359.242 191.533C359.222 191.523 359.212 191.523 359.193 191.523Z" fill="white"/>
<path d="M390.793 179.601L391.061 179.117C391.1 179.055 394.552 172.796 397.143 159.093C397.173 158.938 397.311 158.846 397.45 158.877C397.588 158.908 397.687 159.052 397.658 159.206C395.452 170.891 392.603 177.223 391.763 178.932L405.175 177.316C405.323 177.305 405.452 177.408 405.471 177.563C405.491 177.717 405.382 177.851 405.244 177.871L390.793 179.601Z" fill="white"/>
<path d="M395.036 190.391C389.418 190.391 377.381 185.552 376.877 185.346L376.61 185.243L376.729 184.975C376.778 184.862 381.783 173.496 382.248 161.831C382.257 161.677 382.386 161.574 382.525 161.564C382.673 161.574 382.782 161.698 382.782 161.852C382.347 172.621 378.093 183.122 377.332 184.934C379.152 185.655 389.972 189.845 395.046 189.845C395.076 189.845 395.106 189.845 395.135 189.845C395.284 189.845 395.402 189.968 395.402 190.123C395.402 190.277 395.284 190.401 395.145 190.401C395.096 190.391 395.066 190.391 395.036 190.391Z" fill="white"/>
<path d="M382.634 201.479C382.614 201.479 382.594 201.479 382.584 201.468C372.219 199.224 363.248 190.483 363.159 190.391L363.021 190.257L363.1 190.071C363.149 189.948 368.411 177.81 369.538 167.525C369.558 167.37 369.687 167.267 369.835 167.278C369.984 167.298 370.082 167.432 370.063 167.586C369.004 177.264 364.326 188.537 363.663 190.113C364.831 191.214 373.168 198.853 382.693 200.923C382.832 200.953 382.931 201.098 382.901 201.252C382.871 201.386 382.762 201.479 382.634 201.479Z" fill="white"/>
<path d="M324.891 169.12C321.331 172.436 320.559 178.376 320.164 180.27C319.016 176.44 317.028 172.405 316.514 171.303C317.038 171.025 319.926 167.967 318.205 161.327C318.057 160.771 317.661 160.472 317.473 160.761C315.752 163.293 315.614 167.113 315.93 170.171C314.694 167.978 313.863 166.3 310.886 162.521C311.311 162.49 311.578 160.802 311.628 160.359C311.806 157.981 310.827 156.066 309.402 154.378C309.135 154.069 308.75 154.131 308.71 154.46C308.344 157.075 308.888 159.474 310.095 161.543C307.919 159.175 308.7 159.968 307.019 158.393C307.157 157.796 304.922 153.554 300.471 153.678C300.115 153.698 300.026 154.038 300.244 154.285C302.251 156.715 303.527 157.332 304.675 157.919C304.932 158.043 306.593 158.712 306.851 158.609C308.423 160.081 307.761 159.402 309.808 161.626C307.83 160.225 305.713 159.999 303.606 161.1C302.528 161.698 305.654 162.84 306.87 163.098C307.652 163.242 310.51 163.273 310.708 162.717C313.656 166.454 314.635 168.41 315.713 170.315C313.29 168.173 310.54 166.845 307.533 167.947C307.227 168.06 307.286 168.441 307.622 168.698C310.787 171.004 313.24 171.488 314.823 171.56C315.634 171.612 316.197 171.54 316.296 171.437C316.791 172.508 318.759 176.461 320.005 180.641C315.119 175.442 307.583 176.749 309.67 178.036C310.688 178.633 313.369 180.6 317.038 181.382C318.917 181.794 320.144 181.567 320.233 181.403C322.211 188.023 322.557 190.895 323.21 195.034C323.507 196.877 323.507 196.691 323.616 196.681C323.714 196.671 323.784 196.846 323.487 194.972C322.963 191.677 322.607 188.414 320.421 181.114C320.945 181.248 323.309 178.932 324.179 176.924C325.702 173.547 325.979 168.101 324.891 169.12Z" fill="#4FBED7"/>
<path d="M362.061 169.594C357.857 169.522 354.139 172.868 351.745 176.512C352.329 173.403 353.664 167.947 354.603 164.858C355.128 165.064 358.154 164.611 361.497 161.203C362.239 160.442 362.872 159.711 363.337 159.186C363.703 158.763 363.733 158.249 363.396 158.218C360.37 157.94 357.482 160.061 355.058 163.345C356.196 159.597 357.61 155.747 358.955 152.617C359.005 152.741 359.114 152.813 359.262 152.782C360.647 152.576 361.774 152.061 362.971 151.248C364.168 150.414 367.353 147.161 366.007 147.171C363.258 147.202 361.131 148.818 359.578 151.166C359.786 150.661 360.993 148.098 361.992 146.224C362.239 146.213 362.991 145.421 363.169 145.246C364.811 143.619 366.205 141.776 367.778 138.111C367.946 137.73 367.738 137.452 367.362 137.627C362.654 139.81 361.478 145.534 361.764 146.09C360.696 148.087 359.658 150.332 359.41 150.888C360.103 148.098 360.202 145.431 359.025 142.826C358.876 142.507 358.5 142.641 358.322 143.084C357.64 144.731 357.205 146.368 357.224 148.221C357.224 149.951 358.184 152.627 358.708 152.535C357.264 155.891 355.889 159.7 354.801 163.273C354.851 160.637 354.979 155.654 352.546 152.627C352.319 152.339 351.953 152.761 351.864 153.41C350.637 160.915 353.812 164.838 354.346 164.786C353.595 167.267 352.23 172.508 351.419 176.811C350.647 172.641 348.877 167.206 345.504 164.869C345.158 164.632 344.861 165.219 344.95 165.96C345.88 174.711 350.608 178.242 351.241 177.789C350.004 183.874 348.54 197.072 349.065 197.093C349.163 197.103 349.183 197.33 349.351 194.992C349.886 187.425 350.37 184.152 351.547 177.583C351.794 177.882 354.425 177.336 356.878 175.627C358.856 174.258 361.181 171.705 362.041 170.665C362.457 170.171 362.467 169.594 362.061 169.594Z" fill="#F9806D"/>
<path d="M207.36 182C213.403 141.725 186.579 115.338 156.076 107.071C151.734 135.043 154.652 176.523 185.857 187.014C213.907 196.465 207.36 182 207.36 182Z" fill="#9CDDED"/>
<path d="M215.974 94.2224C215.974 94.2224 207.231 110.118 203.581 122.998C211.444 132.243 218.744 145.308 222.284 165.723L217.487 166.856C218.002 168.595 218.437 170.243 218.773 171.746C218.773 171.746 229.584 158.074 230.069 140.808C230.543 123.543 215.974 94.2224 215.974 94.2224Z" fill="#FDB735"/>
<path d="M178.874 155.531C174.047 155.531 168.32 155.057 162.099 153.605C161.921 153.564 161.812 153.379 161.852 153.194C161.891 153.008 162.069 152.885 162.247 152.926C179.289 156.91 192.523 153.503 193.789 153.152C194.462 152.267 200.109 144.535 198.804 136.598C198.774 136.412 198.893 136.227 199.071 136.196C199.249 136.165 199.417 136.289 199.447 136.474C200.871 145.184 194.501 153.327 194.224 153.667L194.155 153.75L194.056 153.78C193.977 153.822 188.023 155.531 178.874 155.531Z" fill="white"/>
<path d="M206.133 187.148C205.965 187.148 205.826 187.014 205.806 186.839C205.796 186.777 204.995 180.26 198.398 164.158C192.236 149.127 184.096 132.799 158.726 113.032C158.578 112.919 158.548 112.702 158.657 112.548C158.766 112.394 158.974 112.363 159.112 112.476C184.62 132.335 192.8 148.767 199.001 163.88C205.648 180.106 206.429 186.489 206.459 186.756C206.479 186.942 206.35 187.117 206.172 187.137C206.152 187.148 206.143 187.148 206.133 187.148Z" fill="white"/>
<path d="M181.663 139.295C176.55 139.295 165.235 138.482 155.601 132.047C155.443 131.944 155.403 131.728 155.502 131.574C155.601 131.409 155.799 131.368 155.957 131.471C167.707 139.326 182.009 138.688 184.106 138.544L186.223 122.74C186.253 122.555 186.421 122.421 186.599 122.442C186.777 122.473 186.905 122.648 186.876 122.833L184.68 139.182L184.423 139.202C184.373 139.202 183.355 139.295 181.663 139.295Z" fill="white"/>
<path d="M190.961 176.142C184.502 176.142 175.67 174.927 165.265 170.377C165.096 170.304 165.017 170.099 165.087 169.924C165.156 169.749 165.354 169.666 165.512 169.738C186.312 178.839 200.733 174.464 202.256 173.959C203.087 171.972 212.295 149.837 212.988 144.937C213.017 144.752 213.175 144.618 213.363 144.649C213.541 144.68 213.67 144.855 213.64 145.04C212.908 150.229 203.206 173.393 202.8 174.381L202.741 174.515L202.612 174.567C202.533 174.598 198.26 176.142 190.961 176.142Z" fill="white"/>
<path d="M222.284 166.063C222.126 166.063 221.988 165.95 221.958 165.775C215.925 131.028 199.17 117.788 186.935 108.121L185.392 106.896C174.522 98.2581 160.388 93.7076 157.826 92.9251C157.797 94.2326 157.629 98.464 156.837 107.153C156.818 107.339 156.659 107.472 156.481 107.462C156.303 107.441 156.165 107.277 156.185 107.081C157.154 96.4152 157.174 92.503 157.174 92.4619V92.0089L157.589 92.1221C157.747 92.1633 173.75 96.755 185.787 106.33L187.33 107.555C199.654 117.284 216.528 130.616 222.611 165.641C222.64 165.826 222.522 166.011 222.344 166.042C222.324 166.063 222.304 166.063 222.284 166.063Z" fill="#D1E5F0"/>
<path d="M186.49 123.708C186.47 123.708 186.46 123.708 186.44 123.708C186.262 123.677 186.134 123.502 186.163 123.317C186.173 123.224 187.449 114.164 187.439 108.327C187.439 108.131 187.588 107.977 187.766 107.977C187.944 107.977 188.092 108.131 188.092 108.327C188.102 114.216 186.826 123.327 186.806 123.42C186.796 123.584 186.658 123.708 186.49 123.708Z" fill="#D1E5F0"/>
<path d="M199.318 138.605C199.298 138.605 199.279 138.605 199.259 138.595C199.081 138.564 198.962 138.379 198.992 138.193C200.05 132.233 200.109 119.991 200.109 119.868C200.109 119.672 200.258 119.518 200.436 119.518C200.614 119.518 200.762 119.672 200.762 119.868C200.762 119.991 200.713 132.294 199.635 138.317C199.615 138.492 199.476 138.605 199.318 138.605Z" fill="#D1E5F0"/>
<path d="M207.478 161.996C207.429 161.996 207.389 161.986 207.34 161.965C207.172 161.883 207.102 161.687 207.172 161.512C211.029 152.452 213.185 138.204 213.205 138.06C213.235 137.874 213.403 137.74 213.581 137.771C213.759 137.802 213.887 137.977 213.858 138.163C213.838 138.307 211.672 152.648 207.775 161.79C207.726 161.914 207.607 161.996 207.478 161.996Z" fill="#D1E5F0"/>
<path d="M239.188 159.186C234.401 157.724 229.703 159.711 226.092 163.273C227.18 159.783 229.485 154.501 231.008 151.886C231.72 152.349 234.579 152.319 236.389 151.896C238.09 151.464 243.925 149.209 242.402 148.499C239 146.903 235.261 147.881 231.799 150.455C234.134 146.543 235.231 144.865 238.446 140.778C238.476 140.922 238.584 141.045 238.762 141.086C241.918 141.828 244.776 141.158 247.644 139.048C247.981 138.801 247.961 138.358 247.595 138.214C244.717 137.061 241.987 137.607 239.484 139.542C240.681 138.132 242.017 136.659 243.302 135.373C243.391 135.403 243.51 135.403 243.629 135.362C246.992 134.158 249.365 132.109 251.245 128.804C251.462 128.423 251.254 128.053 250.819 128.125C245.211 129.154 242.897 134.446 243.075 135.125C241.749 136.454 240.118 138.266 239.366 139.172C240.859 136.34 241.433 133.581 240.741 130.4C240.652 129.988 240.197 129.968 239.89 130.348C237.576 133.262 236.596 136.68 237.902 140.314C237.961 140.469 238.07 140.561 238.189 140.582C234.885 144.782 233.758 146.543 231.522 150.301C232.432 145.925 232.838 141.694 231.087 138.091C230.375 136.629 228.496 142.559 228.704 146.162C228.842 149.333 230.405 151.68 230.731 151.742C229 154.738 226.478 160.73 225.677 163.54C224.935 158.547 223.61 152.514 220.118 149.055C219.752 148.684 219.258 149.251 219.238 150.126C219.08 156.097 220.722 159.752 222.215 161.862C223.748 163.973 225.173 164.621 225.37 164.539C223.501 170.665 222.532 177.213 222.443 182.35C222.393 184.769 222.433 184.533 222.561 184.533C222.69 184.533 222.72 184.769 222.799 182.329C222.927 176.811 223.887 170.459 225.766 164.385C225.905 164.56 226.795 164.632 228.041 164.518C230.771 164.261 234.025 163.376 239.049 160.225C239.593 159.865 239.672 159.33 239.188 159.186Z" fill="#4FBED7"/>
<path d="M169.092 174.453C169.023 179.066 171.406 184.11 173.671 188.424C170.714 186.633 167.371 185.294 164.216 184.543C164.394 183.791 164.087 178.108 157.312 175.04C156.748 174.773 156.204 174.948 156.313 175.38C157.273 179.21 159.993 181.835 162.9 184.255C159.844 183.585 156.175 183.369 153.237 183.513C153.306 183.39 153.316 183.225 153.237 183.06C151.843 180.126 149.241 178.417 145.621 178.53C145.196 178.541 144.988 178.942 145.216 179.261C147.085 181.866 149.271 183.091 151.892 183.585C150.438 183.678 148.687 183.894 147.234 184.152C146.818 183.503 142.1 182.329 138.767 186.18C138.51 186.489 138.668 186.88 139.034 186.942C142.071 187.446 144.563 186.859 147.105 184.759C147.194 184.687 147.253 184.594 147.273 184.491C148.717 184.244 150.31 184.038 151.754 183.946C149.271 184.852 147.639 186.756 147.055 189.742C146.976 190.123 147.263 190.421 147.58 190.298C150.201 189.268 152.031 187.477 153.277 184.265C153.336 184.11 153.326 183.966 153.267 183.853C156.175 183.719 159.815 183.935 162.841 184.594C159.211 185.315 156.392 187.508 155.364 191.194C155.245 191.605 155.601 191.842 156.016 191.667C158.934 190.401 161.249 188.898 163.148 186.489C163.771 185.716 164.157 185.078 164.147 184.893C167.381 185.727 170.773 186.983 173.76 188.908C172.979 188.867 171.782 189.073 170.586 189.392C167.233 190.442 164.928 192.46 163.266 196.125C163.059 196.599 163.336 196.877 163.801 196.64C170.952 193.253 174.552 190.051 174.463 189.361C178.201 191.801 181.584 195.003 184.868 199.872C185.985 201.54 185.916 201.355 186.025 201.283C186.361 201.056 181.703 193.634 174.453 188.949C175.076 188.568 177.173 180.95 170.358 174.525C169.794 173.949 169.102 173.918 169.092 174.453Z" fill="#83BDE8"/>
<path d="M147.53 174.773C213.699 143.413 242.857 167.154 284.943 190.699C327.018 214.245 397.826 163.643 441.632 187.93C449.96 192.542 458.624 200.068 460.919 202.704C470.562 213.781 463.846 222.584 451.691 222.604C376.303 222.697 175.492 222.728 146.215 220.484C110.054 217.704 121.231 187.23 147.53 174.773Z" fill="#9CDDED"/>
<path d="M176.995 181.114C175.452 181.114 174.077 180.878 173.009 180.27C171.941 179.663 172.129 178.88 172.267 178.572C173.503 175.72 187.38 171.972 197.944 176.173L198.804 176.512L197.924 176.821C197.845 176.852 195.876 177.532 191.623 178.221C190.535 178.397 189.101 178.777 187.43 179.21C184.087 180.095 180.19 181.114 176.995 181.114ZM187.271 174.978C179.932 174.978 173.533 177.305 172.861 178.86C172.801 178.994 172.673 179.292 173.316 179.663C176.382 181.403 182.672 179.755 187.271 178.551C188.953 178.108 190.407 177.727 191.524 177.552C194.037 177.14 195.758 176.739 196.737 176.471C193.651 175.39 190.377 174.978 187.271 174.978Z" fill="white"/>
<path d="M153.929 206.791C147.5 206.791 141.457 205.123 140.577 203.352C140.448 203.085 140.231 202.415 141.111 201.829C144.77 199.378 150.774 200.675 153.91 202.148C156.788 203.496 164.245 204.186 164.325 204.197L165.62 204.32L164.423 204.866C161.397 206.245 157.599 206.791 153.929 206.791ZM146.353 201.139C144.563 201.139 142.832 201.489 141.457 202.405C141.002 202.714 141.101 202.91 141.15 203.023C142.229 205.164 154.523 207.748 162.88 204.742C160.546 204.474 155.858 203.826 153.633 202.786C151.832 201.942 149.043 201.139 146.353 201.139Z" fill="white"/>
<path d="M404.828 197.885L405.649 196.722C410.1 190.391 417.103 188.28 421.731 189.011C424.254 189.402 426.034 190.607 426.608 192.316C426.855 193.036 426.786 193.664 426.42 194.189C424.936 196.31 418.665 196.043 414.076 195.857C412.434 195.785 411.01 195.723 410.426 195.826C408.013 196.228 406.074 197.237 406.055 197.247L404.828 197.885ZM419.892 189.567C415.866 189.567 410.703 191.492 406.974 196.084C407.805 195.754 408.982 195.363 410.327 195.147C410.98 195.044 412.355 195.095 414.106 195.168C418.032 195.332 424.61 195.61 425.886 193.788C426.123 193.448 426.153 193.047 425.984 192.553C425.49 191.101 423.907 190.061 421.633 189.701C421.079 189.608 420.495 189.567 419.892 189.567Z" fill="white"/>
<path d="M451.295 213.339C447.635 213.339 442.364 212.608 435.104 211.115L432.77 210.641L435.133 210.435C435.213 210.425 443.056 209.735 447.912 208.706C449.099 208.459 450.286 208.088 451.433 207.728C453.916 206.945 456.062 206.276 457.269 207.223C457.882 207.697 458.169 208.531 458.169 209.746C458.169 210.641 457.843 211.383 457.19 211.949C456.122 212.875 454.213 213.339 451.295 213.339ZM437.507 210.899C445.489 212.453 454.173 213.658 456.774 211.403C457.279 210.971 457.516 210.425 457.516 209.735C457.516 208.747 457.308 208.109 456.873 207.769C455.934 207.028 453.837 207.687 451.621 208.387C450.464 208.747 449.267 209.128 448.051 209.385C444.797 210.065 440.237 210.61 437.507 210.899Z" fill="white"/>
<path d="M381.892 209.879C379.636 209.879 377.342 209.344 375.472 207.944L374.948 207.553L375.561 207.337C375.641 207.306 383.583 204.557 389.488 204.897C390.556 204.958 391.149 205.247 391.288 205.761C391.426 206.266 391.09 206.832 390.279 207.429C388.607 208.675 385.284 209.879 381.892 209.879ZM376.432 207.769C380.813 210.497 387.43 208.706 389.903 206.863C390.516 206.41 390.694 206.07 390.655 205.947C390.625 205.844 390.338 205.628 389.448 205.576C384.651 205.308 378.44 207.131 376.432 207.769Z" fill="white"/>
<path d="M207.37 216.067C202.622 216.067 197.39 215.511 195.036 214.204C193.256 213.215 193.157 212.33 193.384 211.764C194.304 209.488 203.453 208.932 215.678 213.225C216.499 213.514 216.894 213.812 216.954 214.193C216.974 214.368 216.944 214.626 216.627 214.862C215.609 215.614 211.692 216.067 207.37 216.067ZM199.526 210.703C196.213 210.703 194.274 211.331 193.997 212.042C193.829 212.453 194.334 213.03 195.352 213.596C200.09 216.242 215.243 215.398 216.281 214.286C216.212 214.224 216.014 214.08 215.48 213.884C208.685 211.496 203.245 210.703 199.526 210.703Z" fill="white"/>
<path d="M279.869 208.974C278.138 208.974 276.278 208.778 274.498 208.593C272.203 208.356 270.037 208.129 268.544 208.346C267.238 208.541 262.926 209.076 262.53 207.728C262.313 206.997 263.312 206.369 264.083 205.967C272.312 201.633 283.38 201.17 285.952 203.96C286.594 204.66 286.684 205.514 286.219 206.441C285.19 208.438 282.727 208.974 279.869 208.974ZM269.998 207.563C271.333 207.563 272.916 207.728 274.567 207.903C279.087 208.376 284.201 208.912 285.635 206.111C285.971 205.463 285.912 204.917 285.477 204.444C283.331 202.117 272.797 202.148 264.37 206.585C263.193 207.203 263.153 207.522 263.153 207.532C263.272 207.82 264.993 208.191 268.445 207.666C268.92 207.594 269.434 207.563 269.998 207.563Z" fill="white"/>
<path d="M334.752 203.198C333.268 203.198 332.022 202.961 331.399 202.385C330.509 201.561 330.311 200.439 330.885 199.368C331.933 197.402 335.998 195.322 342.892 197.638C344.257 198.091 344.95 198.658 344.999 199.347C345.048 200.006 344.495 200.655 343.347 201.262C341.329 202.323 337.591 203.198 334.752 203.198ZM337.264 197.319C334.04 197.319 332.062 198.555 331.448 199.708C331.033 200.49 331.162 201.252 331.824 201.859C333.298 203.218 339.965 202.261 343.041 200.634C343.871 200.192 344.356 199.728 344.336 199.399C344.326 199.234 344.138 198.781 342.685 198.297C340.607 197.597 338.797 197.319 337.264 197.319Z" fill="white"/>
<path d="M436.578 30.2784H433.729V218.466H436.578V30.2784Z" fill="#2D4761"/>
<path d="M585.236 260.491H0.959315C-2.62114 260.491 4.15403 257.289 15.1723 253.645C25.3895 250.268 35.7451 247.694 38.8607 247.694H547.324C550.44 247.694 560.796 250.278 571.013 253.645C582.041 257.289 588.806 260.491 585.236 260.491Z" fill="#4FBED7"/>
<path d="M593 265.793V287.928H0V265.742H592.199C592.258 265.742 592.327 265.742 592.397 265.742C592.575 265.752 592.782 265.762 593 265.793Z" fill="#4FBED7"/>
<path d="M534.783 243.329H51.4121C48.4548 243.329 52.7078 241.126 60.3831 238.593C67.5835 236.215 75.3181 234.372 77.949 234.372H508.256C510.887 234.372 518.612 236.215 525.822 238.593C533.497 241.126 537.75 243.329 534.783 243.329Z" fill="#4FBED7"/>
<path d="M502.134 232.303H84.0715C81.5098 232.303 84.4275 230.645 90.2433 228.73C95.7425 226.918 101.914 225.497 104.229 225.497H481.976C484.291 225.497 490.463 226.908 495.962 228.73C501.768 230.645 504.685 232.303 502.134 232.303Z" fill="#4FBED7"/>
<path d="M477.249 223.902H108.947C106.692 223.902 108.749 222.615 113.299 221.112C117.631 219.681 122.705 218.558 124.772 218.558H461.433C463.491 218.558 468.574 219.681 472.907 221.112C477.447 222.615 479.504 223.902 477.249 223.902Z" fill="#4FBED7"/>
<path d="M563.229 0H556.434V288H563.229V0Z" fill="#2D4761"/>
<path d="M556.434 35.4466L436.587 53.4736V33.9332L556.434 8.09209V35.4466Z" fill="#F9806D"/>
<path d="M556.434 171.735L436.587 155.17V150.63L556.434 164.333V171.735Z" fill="#F9806D"/>
<path d="M412.395 276.881C445.907 276.881 473.074 276.065 473.074 275.059C473.074 274.052 445.907 273.237 412.395 273.237C378.882 273.237 351.715 274.052 351.715 275.059C351.715 276.065 378.882 276.881 412.395 276.881Z" fill="#CCCCCC"/>
<path d="M465.31 119.096C452.838 115.595 432.414 108.255 428.517 110.983C424.63 113.701 404.522 126.879 401.782 129.988C399.042 133.097 401.495 134.024 408.369 132.51C415.451 130.956 429.802 127.898 433.086 125.705C435.143 124.336 440.801 130.565 451.79 134.261C462.778 137.957 468.248 122.792 468.248 122.792L465.31 119.096Z" fill="#FABB86"/>
<path d="M452.007 167.988C471.838 173.239 501.57 192.779 503.143 201.231C504.171 206.77 489.019 223.685 476.784 231.85C474.192 233.579 470.988 236.369 468.663 238.511C463.135 240.354 460.345 238.686 462.61 235.35C467.358 228.349 472.402 219.897 473.53 213.184C474.647 206.482 482.244 203.27 482.244 203.27C482.244 203.27 482.253 200.531 471.225 199.183C447.379 196.269 432.434 188.98 432.434 188.98L443.462 166.526L452.007 167.988Z" fill="#20364C"/>
<path d="M442.433 154.748C427.251 158.105 424.847 161.667 423.186 168.997C421.524 176.327 413.631 183.626 407.539 198.616C401.446 213.606 378.598 209.972 369.924 230.892C363.189 247.117 357.749 262.519 365.572 256.805C369.519 253.923 375.72 246.273 382.782 239.056C390.012 231.664 398.311 225.189 402.544 223.469C410.921 220.061 429.288 213.246 442.295 198.884C448.793 191.698 452.759 184.419 455.083 178.922C455.627 173.156 456.696 168.112 456.696 168.112L442.433 154.748Z" fill="#375673"/>
<path d="M435.223 156.663C437.24 156.004 439.614 155.376 442.433 154.748C442.433 154.748 459.168 160.956 460.85 166.155C455.469 171.21 457.437 173.362 455.143 178.788C450.88 178.036 441.81 168.153 439.377 164.796C436.41 160.699 435.925 157.981 435.223 156.663Z" fill="#FCCB9F"/>
<path d="M477.545 128.156C477.704 133.344 481.353 140.675 478.04 150.054C474.835 159.144 464.054 161.934 458.001 169.491C456.181 172.477 456.854 174.711 455.143 178.767C450.88 178.016 441.81 168.132 439.377 164.776C436.41 160.689 435.925 157.981 435.223 156.653C435.302 156.622 435.391 156.601 435.47 156.571C435.361 156.478 435.302 156.416 435.302 156.416C435.302 156.416 440.92 151.268 444.115 143.197C449.634 129.267 456.142 124.985 462.62 120.197L477.545 128.156Z" fill="#83BDE8"/>
<path d="M468.307 125.705C476.744 127.61 480.592 133.19 483.311 141.447C491.422 150.97 496.585 164.467 497.327 164.23C498.068 163.993 512.677 159.721 517.128 155.654C521.579 151.588 523.151 151.598 522.993 154.244C522.835 156.89 516.02 169.718 507.504 173.867C497.722 178.633 495.418 178.211 493.341 177.11C491.264 176.008 474.014 161.018 470.088 151.238C453.382 153.111 451.918 142.878 452.749 138.924C455.153 127.456 461.275 124.12 468.307 125.705Z" fill="#FCCB9F"/>
<path d="M364.791 256.641C365.463 261.057 363.198 268.892 363.317 270.251C363.436 271.61 367.867 270.838 367.461 272.773C367.065 274.719 362.16 274.328 357.926 272.969C353.693 271.61 357.323 265.773 356.196 261.304C355.068 256.836 353.931 252.172 356.908 251.977C359.885 251.781 360.686 252.368 361.269 252.564C361.833 252.749 364.375 253.923 364.791 256.641Z" fill="#20364C"/>
<path d="M365.424 256.352C366.097 260.769 363.832 268.604 363.95 269.963C364.069 271.322 368.5 270.549 368.094 272.485C367.699 274.431 362.793 274.04 358.56 272.681C354.326 271.322 357.956 265.484 356.829 261.016C355.701 256.548 354.564 251.884 357.541 251.689C360.518 251.493 361.319 252.08 361.903 252.275C362.486 252.471 364.999 253.624 365.424 256.352Z" fill="#A1F1D2"/>
<path d="M366.492 255.766C367.164 260.182 364.899 268.017 365.018 269.376C365.137 270.735 369.568 269.963 369.162 271.898C368.767 273.844 363.861 273.453 359.628 272.094C355.394 270.735 359.024 264.897 357.897 260.429C356.769 255.961 355.632 251.297 358.609 251.102C361.586 250.906 362.387 251.493 362.971 251.689C363.544 251.874 366.076 253.048 366.492 255.766Z" fill="#20364C"/>
<path d="M467.615 239.725C472.906 246.922 475.567 251.781 477.753 253.336C479.949 254.89 479.454 261.057 471.542 252.945C463.955 245.172 459.267 245.172 457.546 242.443C455.815 239.725 463.54 233.497 463.649 234.866C463.758 236.225 466.092 237.666 467.615 239.725Z" fill="#20364C"/>
<path d="M468.129 239.139C473.421 246.335 476.081 251.194 478.267 252.749C480.463 254.304 479.968 260.47 472.056 252.358C464.469 244.585 459.781 244.585 458.06 241.857C456.329 239.139 464.054 232.91 464.163 234.279C464.272 235.649 466.606 237.08 468.129 239.139Z" fill="#A1F1D2"/>
<path d="M468.634 238.459C473.925 245.656 476.586 250.515 478.772 252.069C480.967 253.624 480.473 259.791 472.56 251.678C464.974 243.905 460.286 243.905 458.565 241.177C456.834 238.459 464.559 232.23 464.667 233.6C464.776 234.959 467.11 236.4 468.634 238.459Z" fill="#20364C"/>
<path d="M406.381 131.687C405.887 134.168 406.282 138.832 404.304 140.438C402.336 142.044 401.97 146.121 401.426 144.669C400.882 143.207 402.177 138.544 401.109 139.274C400.051 140.005 396.075 146.275 395.452 145.544C394.829 144.813 394.057 138.986 394.957 136.361C395.857 133.736 396.965 130.235 400.981 129.504C404.996 128.773 408.992 127.898 408.992 127.898L406.381 131.687Z" fill="#FABB86"/>
<path d="M518.167 154.429C517.623 152.967 516.545 150.589 518.127 147.284C518.968 145.534 519.274 141.303 520.125 142.62C520.966 143.938 519.937 148.252 521.114 147.727C524.052 146.399 523.765 138.863 524.526 139.439C525.288 140.016 528.76 144.031 528.493 146.862C528.216 149.683 524.981 158.321 521.856 158.084C518.196 159.762 515.565 160.194 515.565 160.194L518.167 154.429Z" fill="#FCCB9F"/>
<path d="M472.204 107.833C473.044 100.976 478.583 95.9725 483.064 96.755C487.544 97.5374 493.222 100.317 490.591 108.759C488.474 115.554 487.801 121.011 482.747 121.381C481.649 121.464 480.067 121.309 478.099 120.238C476.852 122.534 476.536 124.923 477.584 128.341L463.015 120.372L472.204 107.833Z" fill="#FCCB9F"/>
<path d="M474.657 107.071C472.214 107.833 475.24 111.518 471.363 113.475C467.486 115.431 466.635 115.976 466.299 113.814C465.963 111.652 467.891 109.223 466.269 107.184C464.657 105.146 465.636 100.585 468.653 99.8848C471.67 99.1847 470.186 95.2416 472.144 92.431C474.103 89.6204 479.206 91.2161 481.036 92.4104C482.866 93.6046 486.694 92.5236 489.414 92.2971C493.034 91.9986 492.648 95.6637 493.617 97.4139C494.596 99.1641 497.316 98.9376 497.91 100.801C498.503 102.654 498.414 105.094 495.823 106.227C493.231 107.349 491.995 107.308 489.997 106.083C487.999 104.857 485.447 105.815 484.211 106.474C482.975 107.133 481.066 105.568 479.829 105.537C478.929 105.506 477.841 108.533 477.723 110.582C477.673 111.395 476.664 111.776 476.13 111.168L474.657 107.071Z" fill="#8D493E"/>
<path d="M261.719 221.74C277.894 221.74 291.006 221.375 291.006 220.926C291.006 220.477 277.894 220.113 261.719 220.113C245.545 220.113 232.433 220.477 232.433 220.926C232.433 221.375 245.545 221.74 261.719 221.74Z" fill="#CCCCCC"/>
<path d="M292.449 215.151C291.816 218.476 290.857 218.908 287.553 213.092C284.25 207.275 279.641 190.566 278.058 188.836C276.664 187.323 272.193 186.025 265.369 182.669C264.844 182.412 264.3 182.144 263.746 181.856C263.301 181.629 262.856 181.392 262.391 181.145C253.885 176.626 257.861 167.823 258.613 167.895C259.355 167.967 269.542 167.185 269.542 167.185C278.998 171.015 288.622 177.738 289.907 181.516C291.203 185.305 293.082 211.825 292.449 215.151Z" fill="#68A4DC"/>
<path d="M289.661 164.982C291.906 165.816 293.924 164.982 294.062 165.435C294.201 165.888 294.408 165.733 294.804 166.464C295.2 167.206 294.725 168.976 294.023 169.687C293.32 170.397 290.729 170.222 290.096 169.718C289.463 169.223 287.989 167.411 287.989 167.411L289.661 164.982Z" fill="#FCCB9F"/>
<path d="M245.014 162.284C244.371 163.087 242.541 163.252 242.224 164.436C241.908 165.62 241.404 167.834 242.66 168.215C243.916 168.606 245.884 168.287 246.389 167.031C246.893 165.775 247.526 162.799 247.526 162.799L245.014 162.284Z" fill="#FABB86"/>
<path d="M247.388 163.685C249.346 162.583 256.576 152.442 257.971 151.413C260.463 149.559 266.734 149.601 266.734 149.601L270.947 136.732C263.866 139.789 256.091 143.732 253.886 145.081C250.147 147.377 243.115 162.058 244.153 162.943L247.388 163.685Z" fill="#FABB86"/>
<path d="M273.796 169.09C257.99 191.852 246.962 195.27 243.708 195.888C243.332 195.96 243.055 195.991 242.897 196.012C236.349 196.907 223.63 184.718 219.515 181.959L221.246 178.355C221.988 178.51 222.72 178.705 223.442 178.922C230.187 180.929 236.369 185.006 240.563 183.966C241.542 183.719 242.412 183.204 243.154 182.309C246.883 177.83 251.917 168.225 257.951 165.651L259.553 166.001L273.796 169.09Z" fill="#83BDE8"/>
<path d="M273.796 169.09C270.997 174.721 268.148 179.158 265.379 182.669C264.855 182.412 264.311 182.144 263.757 181.856C266.823 178.479 270.186 174.289 273.796 169.09Z" fill="#83BDE8"/>
<path d="M279.967 148.818C279.661 152.658 277.613 159 275.793 163.942C275.586 164.498 275.388 165.023 275.2 165.538C274.676 166.928 274.191 168.142 273.796 169.079L257.96 165.651C259.652 160.009 265.804 140.592 270.799 136.659L278.157 140.53C279.097 143.022 280.205 145.781 279.967 148.818Z" fill="#F9806D"/>
<path d="M289.591 166.547C289.077 167.226 288.385 167.926 287.979 167.988C287.267 168.091 275.883 164.539 274.231 163.067C272.945 161.924 269.028 156.385 267.119 152.226C266.566 151.032 266.19 149.94 266.081 149.117C265.557 144.885 269.731 137.236 273.726 139.81C278.603 142.96 276.585 156.612 279.226 157.754C282.885 159.35 290.214 164.786 290.244 165.311C290.264 165.527 289.977 166.032 289.591 166.547Z" fill="#FCCB9F"/>
<path d="M275.794 163.952C275.586 164.508 275.388 165.033 275.2 165.548C274.716 165.311 274.34 165.095 274.122 164.91C271.373 162.604 268.257 156.313 267.12 152.216C269.029 156.375 272.955 161.914 274.231 163.057C274.508 163.304 275.062 163.613 275.794 163.952Z" fill="#FB9588"/>
<path d="M288.929 215.408C287.138 215.882 286.258 219.176 286.921 220.031C287.584 220.885 289.641 219.917 291.471 220.236C293.3 220.556 296.485 220.617 299.779 219.783C303.072 218.95 296.07 216.932 294.092 216.201C292.113 215.48 293.31 214.821 292.113 215.48C290.917 216.139 288.929 215.408 288.929 215.408Z" fill="#F5ECE4"/>
<path d="M288.81 215.048C287.02 215.521 286.14 218.816 286.802 219.67C287.465 220.525 289.522 219.557 291.352 219.876C293.182 220.195 296.367 220.257 299.66 219.423C302.954 218.589 295.951 216.571 293.973 215.84C291.995 215.12 293.192 214.461 291.995 215.12C290.788 215.779 288.81 215.048 288.81 215.048Z" fill="#8D493E"/>
<path d="M220.969 178.294C221.177 176.101 218.516 175.04 217.399 176.368C216.281 177.686 211.702 181.392 209.605 182.093C207.498 182.793 204.125 184.399 207.617 184.759C211.098 185.119 219.248 181.907 219.248 181.907C219.248 181.907 218.991 180.97 219.634 179.992C220.267 179.004 220.969 178.294 220.969 178.294Z" fill="#F5ECE4"/>
<path d="M221.246 178.366C221.454 176.173 218.793 175.112 217.676 176.44C216.558 177.758 211.979 181.464 209.882 182.165C207.775 182.865 204.402 184.471 207.894 184.831C211.375 185.191 219.525 181.979 219.525 181.979L221.246 178.366Z" fill="#8D493E"/>
<path d="M289.492 164.488C290.076 164.549 290.917 165.064 290.709 165.177C290.511 165.291 289.809 166.3 289.947 166.444C290.076 166.588 289.581 167.576 289.225 167.937C288.879 168.297 288.849 167.834 288.582 168.173C288.444 168.359 288.325 168.194 288.325 168.194L287.682 167.978C287.682 167.978 287.841 167.803 287.603 167.71C287.445 167.648 288.236 165.97 288.503 165.95C288.958 165.929 288.978 165.569 289.107 165.27C289.423 164.57 289.492 164.488 289.492 164.488Z" fill="#20364C"/>
<path d="M288.642 166.073C288.474 166.011 287.831 167.267 287.821 167.463C287.811 167.659 288.8 167.957 288.978 167.906C289.156 167.854 289.848 166.804 289.829 166.557C289.809 166.32 288.721 166.104 288.642 166.073Z" fill="#3D5873"/>
<path d="M289.067 166.186C288.83 166.289 288.533 166.402 288.266 166.516C288.048 166.886 287.831 167.36 287.821 167.473C287.821 167.535 287.93 167.617 288.088 167.689C288.572 167.525 289.196 167.298 289.591 167.154C289.74 166.907 289.848 166.67 289.838 166.577C289.819 166.413 289.403 166.279 289.067 166.186Z" fill="#20364C"/>
<path d="M270.789 136.67C270.789 136.67 273.282 135.959 274.152 129.432C275.022 122.905 279.137 134.734 279.137 134.734L278.148 140.531L270.789 136.67Z" fill="#FCCB9F"/>
<path d="M274.636 128.938C275.161 133.839 279.542 135.506 282.134 134.59C283.736 134.024 283.944 130.431 283.518 126.91C283.093 123.389 281.501 121.556 278.781 121.917C276.061 122.267 274.261 125.407 274.636 128.938Z" fill="#FCCB9F"/>
<path d="M285.081 122.009C282.648 121.505 279.622 120.012 276.981 120.506C275.042 120.867 273.954 121.875 273.529 123.739C273.202 125.16 273.559 129.329 273.559 129.329C273.559 129.329 273.4 131.213 274.488 130.75C275.576 130.287 276.288 127.703 276.971 127.826C277.614 127.95 277.446 129.504 278.098 129.484C279.018 129.473 277.891 127.054 278.524 126.21C279.147 125.376 280.166 126.632 282.341 126.786C285.497 127.044 287.326 122.473 285.081 122.009Z" fill="#20364C"/>
<path d="M141.606 239.18C162.047 239.18 178.617 238.673 178.617 238.047C178.617 237.422 162.047 236.915 141.606 236.915C121.165 236.915 104.595 237.422 104.595 238.047C104.595 238.673 121.165 239.18 141.606 239.18Z" fill="#CCCCCC"/>
<path d="M139.519 113.495C144.276 116.12 147.985 119.59 148.638 123.152C149.281 126.704 153.663 129.556 156.729 137.915C158.786 137.411 166.491 133.746 171.179 129.391C175.749 125.149 174.364 129.504 172.633 133.859C169.102 142.744 159.182 149.611 156.719 150.043C153.435 150.62 146.749 144.834 142.674 139.686C137.501 133.138 131.408 126.889 131.033 121.762C130.489 114.205 135.76 111.415 139.519 113.495Z" fill="#F0725D"/>
<path d="M173.256 132.233C174.769 128.423 175.818 124.604 172.04 128.609C171.763 128.897 170.516 129.875 170.229 130.163C171.337 130.946 172.781 131.656 173.256 132.233Z" fill="#FCCB9F"/>
<path d="M171.525 129.175C171.436 126.58 172.277 126.292 173.771 124.305C174.958 122.73 175.996 122.061 175.858 122.678C175.383 124.902 174.245 125.18 174.394 125.551C174.532 125.921 176.59 123.379 177.134 121.381C177.687 119.384 178.746 121.567 178.607 123.173C178.469 124.779 178.34 125.921 176.817 128.331C175.076 131.09 172.831 131.244 172.831 131.244L171.525 129.175Z" fill="#FCCB9F"/>
<path d="M156.303 105.557C156.303 109.614 152.95 113.67 150.913 113.279C147.985 112.723 145.522 109.603 145.522 105.557C145.522 101.501 147.936 98.2169 150.913 98.2169C153.89 98.2272 156.303 101.511 156.303 105.557Z" fill="#FCCB9F"/>
<path d="M149.043 129.113C148.579 121.484 146.937 115.637 147.629 111.56C146.234 109.727 143.544 109.305 141.744 108.224C139.914 109.676 137.847 110.952 134.712 112.898C125.454 118.643 124.366 126.982 122.249 141.663C121.132 149.384 120.766 149.58 125.414 152.277C130.063 154.985 136.68 155.284 139.548 149.868C143.653 142.147 149.607 138.183 149.043 129.113Z" fill="#F9806D"/>
<path d="M147.639 111.56C147.768 110.787 147.975 110.067 148.302 109.418C150.349 105.362 147.56 101.306 147.56 101.306C145.374 104.796 143.722 106.659 141.754 108.214C143.544 109.305 146.244 109.727 147.639 111.56Z" fill="#FCCB9F"/>
<path d="M122.447 164.735C128.777 172.847 139.281 180.569 146.264 186.066C153.237 191.564 145.423 198.812 163.009 223.716C172.475 237.121 163.286 189.258 159.943 176.224C158.133 169.193 147.728 159.062 138.302 151.855C130.251 145.699 116.117 156.622 122.447 164.735Z" fill="#FCCB9F"/>
<path d="M121.142 150.157C118.511 164.652 110.232 182.237 107.938 181.701C99.3722 179.694 82.637 183.338 75.0013 185.799C67.3558 188.259 97.1467 197.36 112.774 194.745C124.811 192.738 127.966 181.969 132.18 175.946C136.393 169.934 139.034 158.722 139.034 158.722L121.142 150.157Z" fill="#FCCB9F"/>
<path d="M134.168 173.321C134.168 173.321 133.673 174.268 132.862 175.73C132.516 176.348 132.121 177.058 131.685 177.83C130.053 180.692 127.848 184.378 125.8 187.22C122.863 191.276 116.82 195.178 110.124 195.62C94.7534 196.619 80.8766 191.688 80.8272 190.988C80.5502 187.508 80.8272 186.067 80.8272 184.471C83.3394 183.163 94.9215 179.694 107.76 180.991C111.37 181.362 116.038 166.094 118.363 157.178C118.382 157.096 118.402 157.013 118.432 156.931C118.61 156.241 118.778 155.582 118.926 154.985L125.81 155.376L134.168 173.321Z" fill="#2D4761"/>
<path d="M167.114 218.898C167.094 218.981 167.074 219.042 167.045 219.084C165.096 221.4 162.337 222.965 161.041 221.112C148.341 202.868 150.537 191.266 147.926 188.393C141.368 181.176 122.952 170.294 119.46 161.173C118.857 159.597 118.511 158.012 118.362 156.509C118.016 153.111 118.639 150.115 119.46 148.53C122.249 143.125 122.16 145.05 122.16 145.05C138.53 147.562 155.176 164.066 160.2 175.452C160.705 176.749 167.796 215.645 167.114 218.898Z" fill="#45617D"/>
<path d="M132.853 175.73C132.506 176.348 132.111 177.058 131.676 177.83C126.186 173.094 121.201 168.194 119.55 163.88C118.669 161.574 118.343 159.247 118.353 157.178C118.353 156.951 118.363 156.715 118.373 156.488C118.382 156.632 118.402 156.776 118.422 156.921C118.59 158.29 118.926 159.721 119.47 161.152C121.241 165.805 126.879 170.902 132.853 175.73Z" fill="#45617D"/>
<path d="M161.881 228.926C161.328 223.129 161.229 221.781 162.9 223.521C164.572 225.261 165.966 221.976 167.46 222.357C168.943 222.749 172.672 225.642 176.579 225.642C180.486 225.642 183.463 224.478 183.651 225.837C183.839 227.186 178.073 231.633 172.672 232.591C167.282 233.559 164.305 235.298 162.445 233.754C160.576 232.2 161.881 228.926 161.881 228.926Z" fill="#45617D"/>
<path d="M162.158 229.358C165.976 229.451 167.737 230.707 169.972 230.995C172.207 231.283 174.156 229.451 175.827 229.06C177.499 228.668 179.823 228.38 181.218 227.999C182.612 227.608 183.918 226.259 183.918 226.259C183.918 226.259 184.472 226.064 184.195 227.124C183.918 228.184 181.594 231.077 178.152 232.529C174.71 233.981 171.357 234.65 170.15 234.65C168.943 234.65 168.479 235.71 166.708 235.999C164.938 236.287 162.712 236.678 162.148 235.031C161.595 233.394 161.407 232.23 161.595 231.17C161.862 229.739 162.158 229.358 162.158 229.358Z" fill="#20364C"/>
<path d="M161.881 228.926C165.699 229.018 167.46 230.274 169.695 230.563C171.93 230.851 173.879 229.018 175.551 228.627C177.222 228.236 179.546 227.948 180.941 227.567C182.336 227.176 183.641 225.827 183.641 225.827C183.641 225.827 184.195 225.631 183.918 226.692C183.641 227.752 181.317 230.645 177.875 232.097C174.433 233.548 171.08 234.217 169.873 234.217C168.667 234.217 168.202 235.278 166.431 235.566C164.661 235.854 162.435 236.246 161.872 234.598C161.318 232.961 161.13 231.798 161.318 230.738C161.575 229.307 161.881 228.926 161.881 228.926Z" fill="#F5ECE4"/>
<path d="M73.9133 183.174C79.4917 183.76 80.7874 183.935 78.8092 185.294C76.8311 186.653 79.6599 188.723 78.9972 190.164C78.3345 191.605 74.8628 194.807 74.0815 198.781C73.3001 202.755 73.8045 206.008 72.4891 205.926C71.1736 205.844 68.1371 199.1 68.2954 193.417C68.4635 187.734 67.4151 184.368 69.2449 182.782C71.0747 181.187 73.9133 183.174 73.9133 183.174Z" fill="#45617D"/>
<path d="M73.4485 183.369C72.5979 187.23 71.055 188.774 70.3428 190.988C69.6208 193.201 70.966 195.548 70.9956 197.33C71.0253 199.111 70.8374 201.53 70.9264 203.023C71.0154 204.516 72.0243 206.111 72.0243 206.111C72.0243 206.111 72.0935 206.719 71.144 206.225C70.1945 205.73 67.9295 202.786 67.247 198.997C66.5646 195.209 66.5942 191.667 66.8415 190.442C67.0789 189.217 66.1689 188.527 66.2481 186.674C66.3272 184.821 66.4063 182.473 68.068 182.237C69.7296 182 70.8572 182.041 71.8265 182.443C73.1419 182.978 73.4485 183.369 73.4485 183.369Z" fill="#20364C"/>
<path d="M73.9134 183.174C73.0628 187.034 71.5198 188.579 70.8077 190.792C70.0856 193.005 71.4308 195.353 71.4605 197.134C71.4901 198.915 71.3022 201.334 71.3912 202.827C71.4802 204.32 72.4891 205.916 72.4891 205.916C72.4891 205.916 72.5583 206.523 71.6088 206.029C70.6593 205.535 68.3943 202.59 67.7119 198.802C67.0294 195.013 67.0591 191.472 67.3063 190.246C67.5437 189.021 66.6338 188.331 66.7129 186.478C66.792 184.625 66.8712 182.278 68.5328 182.041C70.1944 181.804 71.322 181.845 72.2913 182.247C73.6068 182.782 73.9134 183.174 73.9134 183.174Z" fill="#F5ECE4"/>
<path d="M141.981 106.144C144.958 106.144 147.936 111.642 148.025 111.941C148.114 112.229 147.51 115.997 147.51 115.997C147.51 115.997 145.789 112.62 143.554 111.271C141.319 109.923 137.55 111.179 137.55 111.179L141.981 106.144Z" fill="#FB9588"/>
<path d="M144.395 105.372C145.503 99.0611 144.395 96.7859 147.184 96.302C149.973 95.8181 152.021 94.1811 154.998 97.0741C157.975 99.9671 162.159 100.554 162.436 103.447C162.713 106.34 159.459 108.172 156.857 106.927C154.256 105.671 153.88 104.415 153.504 105.671C153.128 106.927 152.486 108.08 151.645 107.122C150.804 106.155 149.785 107.699 148.114 108.09C146.442 108.461 143 105.856 144.395 105.372Z" fill="#20364C"/>
<path d="M152.373 106.699C152.42 105.688 151.979 104.845 151.39 104.816C150.801 104.787 150.286 105.583 150.239 106.594C150.193 107.605 150.633 108.448 151.223 108.477C151.812 108.506 152.327 107.71 152.373 106.699Z" fill="#FCCB9F"/>
<path d="M141.754 128.938C136.245 134.848 132.724 129.237 129.301 128.557C125.879 127.878 130.933 128.145 115.969 132.953C115.662 135.115 117.383 143.166 119.559 149.302C121.686 155.273 117.759 151.845 114.871 148.2C107.977 139.501 106.671 131.399 107.186 128.866C107.878 125.489 114.455 122.226 119.984 118.838C125.513 115.451 134.316 111.879 139.044 113.402C146.037 115.647 144.721 125.757 141.754 128.938Z" fill="#FB9588"/>
<path d="M115.929 149.467C118.6 152.514 121.428 154.563 119.559 149.302C119.421 148.921 119.292 148.52 119.154 148.128C118.006 148.839 116.631 149.271 115.929 149.467Z" fill="#FCCB9F"/>
<path d="M119.45 149.117C121.755 150.146 121.636 151.063 122.724 153.307C123.585 155.098 123.723 156.354 123.248 155.963C121.517 154.563 121.765 153.389 121.379 153.358C120.993 153.328 122.328 156.344 123.832 157.724C125.335 159.093 122.981 159.155 121.646 158.341C120.311 157.528 119.371 156.91 117.917 154.45C116.265 151.639 117.096 149.467 117.096 149.467L119.45 149.117Z" fill="#FCCB9F"/>
</g>
<defs>
<clipPath id="clip0">
<rect width="593" height="288" fill="white"/>
</clipPath>
</defs>
</svg>
