<svg width="484" height="306" viewBox="0 0 484 306" fill="none" xmlns="http://www.w3.org/2000/svg">
<path d="M423.778 103.995L427.394 117.082L373.292 111.374L369.537 106.919L423.778 103.995Z" fill="#723030"/>
<path d="M479.271 13.7825L473.708 14.061C473.708 14.061 416.963 81.4422 417.102 81.9991C417.241 82.556 423.5 113.184 423.5 113.184L427.255 117.221L479.271 13.7825Z" fill="#C94E45"/>
<path d="M423.639 113.184L473.847 13.9217C473.847 13.9217 464.807 15.4531 451.872 3.75887C434.626 36.0573 398.604 103.717 399.161 104.413C399.856 105.109 423.639 113.184 423.639 113.184Z" fill="#EDDDCA"/>
<path d="M402.777 102.742C402.777 102.742 415.294 105.527 423.639 113.184C398.883 110.678 369.815 108.59 369.815 108.59L359.384 102.325L402.777 102.742Z" fill="#BFA990"/>
<path d="M454.654 1.94904C454.654 1.94904 401.942 105.805 400.969 105.666C400.134 105.527 396.796 102.882 396.796 102.882C396.796 102.882 448.534 1.39217 449.925 0.278431C451.316 -0.835309 454.654 1.94904 454.654 1.94904Z" fill="#F46C56"/>
<path d="M484 15.4531C484 15.4531 431.289 119.309 430.315 119.17C429.481 119.031 426.143 116.386 426.143 116.386C426.143 116.386 477.741 15.0355 479.132 13.7825C480.662 12.5296 484 15.4531 484 15.4531Z" fill="#F46C56"/>
<path d="M449.925 0.278427L395.406 6.12556L355.211 100.376L396.936 102.882L449.925 0.278427Z" fill="#C94E45"/>
<path d="M400.969 105.666L362.305 103.021L373.431 110.26L426.282 116.386L430.454 119.17L373.292 112.905L355.211 100.376L396.936 102.882L400.969 105.666Z" fill="#9B312F"/>
<path d="M467.727 13.3649L450.203 48.03L465.919 12.808L467.727 13.3649Z" fill="#CCBBA3"/>
<path d="M455.349 6.82165L453.402 14.061L457.158 8.0746L455.349 6.82165Z" fill="#CCBBA3"/>
<path d="M412.095 105.944L432.123 65.1538C432.123 65.1538 409.87 104.97 410.148 105.109C410.426 105.248 412.095 105.944 412.095 105.944Z" fill="#CCBBA3"/>
<path d="M396.518 23.3885L425.725 23.2493L420.579 32.9945L395.127 31.0455L396.518 23.3885Z" fill="#DDA95E"/>
<path d="M400.83 38.0064L410.427 39.2593L407.367 45.6633L399.161 44.1319L400.83 38.0064Z" fill="#DDA95E"/>
<path d="M385.809 59.5851C385.809 59.5851 387.895 53.0418 391.65 49.283C395.406 45.5241 407.506 47.3339 401.803 60.4204C396.101 73.5068 392.624 81.303 385.809 80.3285C379.133 79.4932 378.021 75.3166 385.809 59.5851Z" fill="#7C6E5E"/>
<path d="M383.167 58.4713C383.167 58.4713 385.253 51.9281 389.008 48.1692C392.763 44.4104 404.863 46.2202 399.161 59.3066C393.459 72.3931 389.982 80.1893 383.167 79.2147C376.352 78.3794 375.239 74.2029 383.167 58.4713Z" fill="#B5A89A"/>
<path d="M312.375 225.393C312.375 225.393 336.714 244.466 332.542 257.97C328.369 271.474 309.871 283.029 310.984 283.168C312.097 283.447 321.415 286.927 318.355 287.345C315.296 287.762 305.699 285.396 305.143 284.282C304.586 283.168 308.62 282.611 315.852 274.258C322.945 265.766 326.144 260.754 324.058 253.654C322.11 246.554 299.301 230.962 299.301 230.962C299.301 230.962 301.109 224.14 312.375 225.393Z" fill="#936764"/>
<path d="M200.971 235.695C200.971 235.695 213.489 257.274 209.316 270.778C205.144 284.282 177.606 301.545 178.718 301.684C179.831 301.963 189.149 305.443 186.09 305.861C183.03 306.278 173.433 303.912 172.877 302.798C172.321 301.684 176.354 301.127 183.586 292.774C190.679 284.282 200.276 278.713 200.971 266.462C201.389 259.084 188.037 241.125 188.037 241.125C188.037 241.125 189.706 234.442 200.971 235.695Z" fill="#936764"/>
<path d="M342.972 133.788C342.972 133.788 344.085 117.5 339.773 95.2248C335.462 72.95 321.832 49.8399 321.832 49.8399L324.892 48.4477C324.892 48.4477 348.118 83.1128 352.152 112.905C356.046 142.698 346.171 149.102 346.171 149.102L337.409 144.647L342.972 133.788Z" fill="#936764"/>
<path d="M287.062 87.1501C287.062 87.1501 290.4 90.6306 293.738 98.4267C305.838 95.5032 317.243 96.8953 320.998 102.742C324.892 108.59 326.422 113.323 326.422 113.323C326.422 113.323 330.733 112.07 333.932 113.323C335.045 119.727 341.999 143.951 341.999 143.951L345.615 145.343L347.006 162.049L349.509 168.732L353.125 171.516L350.9 203.257C350.9 203.257 348.118 204.928 344.92 205.903C341.86 206.877 322.667 224.419 322.667 224.419C322.667 224.419 315.295 223.722 311.957 222.469C307.507 226.924 292.347 226.228 292.347 226.228C292.347 226.228 290.539 231.379 285.81 234.86C275.379 234.164 265.922 234.303 265.922 234.303L263.557 232.632L245.06 236.67L234.351 232.076C234.351 232.076 229.344 240.568 220.721 244.048C213.767 240.429 200.137 239.732 200.137 239.732L197.912 238.619L183.169 248.642L155.214 242.378H152.154C152.154 242.378 132.544 234.025 128.649 226.785C124.755 219.546 127.12 210.358 127.12 210.358L126.146 208.548L129.623 185.438L132.405 181.957L147.843 154.253C147.843 154.253 146.452 146.457 148.121 143.116C153.406 142.28 160.499 136.015 160.499 136.015C160.499 136.015 160.916 127.245 163.698 121.398C170.235 119.031 184.977 105.805 184.977 105.805L189.706 103.856C189.706 103.856 215.018 94.5287 215.018 94.3894C214.879 94.2502 218.356 90.2129 222.529 87.5678C229.622 88.1246 242.556 85.6187 242.556 85.6187L244.503 83.8089L263.836 80.7461L265.226 80.4677L287.062 87.1501Z" fill="#E8867C"/>
<path d="M265.227 80.05C265.227 80.05 276.631 76.5696 285.115 84.9226C293.599 93.2757 294.295 110.817 292.765 118.892C291.235 126.966 284.837 125.017 278.3 121.537C271.763 117.917 267.869 110.678 262.862 111.513C257.855 112.209 260.22 115.55 268.008 118.892C275.797 122.233 287.758 128.08 288.453 137.686C289.149 147.292 280.665 155.924 277.466 158.708C274.267 161.492 268.426 170.124 265.922 171.655C263.419 173.187 260.915 171.377 260.776 168.871C260.637 166.365 261.75 163.998 260.915 161.91C260.081 159.822 254.796 158.012 255.213 160.796C255.63 163.581 260.498 169.845 260.22 174.857C259.942 179.869 252.014 189.197 247.007 190.449C242 191.702 236.298 181.679 229.205 176.667C222.112 171.655 222.39 163.998 220.582 164.416C218.913 164.973 216.827 169.149 221.834 174.3C226.84 179.451 233.934 181.4 238.384 190.449C242.835 199.499 239.636 212.307 230.178 218.154C220.721 224.001 207.091 217.875 201.25 209.522C195.408 201.169 196.521 191.146 192.488 182.932C188.454 174.718 179.831 171.934 184.004 159.961C188.176 147.849 199.859 146.457 203.475 148.684C207.091 150.912 200.554 153.278 199.581 162.328C198.746 171.377 202.501 182.793 209.455 189.753C216.409 196.575 214.462 202.283 217.661 203.814C220.86 205.485 221.973 200.752 218.217 195.461C214.462 190.171 210.568 188.361 204.727 177.641C198.885 166.922 201.528 154.253 213.489 148.963C225.45 143.672 233.655 148.963 237.411 156.898C241.166 164.973 242.417 169.985 242.278 174.439C242.278 178.894 245.755 178.198 246.59 174.3C247.424 170.541 238.662 160.518 239.914 151.19C241.166 141.863 255.908 141.445 262.306 146.178C268.704 150.912 268.704 149.241 268.426 146.457C268.147 143.672 263.558 144.925 259.107 141.167C254.517 137.408 254.796 133.37 262.028 131.004C269.26 128.637 266.061 125.713 263.419 126.688C260.776 127.662 261.611 130.725 255.769 131.004C249.928 131.143 234.907 123.625 239.358 109.843C243.808 96.06 259.524 97.1738 267.591 100.515C275.658 103.717 276.353 106.501 277.883 104.97C279.413 103.439 279.83 101.35 276.214 100.515C272.598 99.6797 270.929 98.566 271.346 93.9718C272.042 89.2384 268.843 82.5559 265.227 80.05Z" fill="#FFBDAE"/>
<path d="M200.137 239.454C200.137 239.454 206.952 248.225 218.078 244.884C229.344 241.542 229.622 226.089 229.066 223.862C228.509 221.495 225.311 223.583 215.992 222.33C206.674 221.077 198.607 208.409 196.66 206.181C194.713 203.954 187.62 205.207 185.533 210.079C183.447 214.952 184.282 219.546 181.778 224.558C179.275 229.57 177.467 233.189 180.109 237.366C182.752 241.403 179.136 245.301 175.102 240.707C170.93 236.113 175.52 228.734 178.301 225.393C181.083 222.052 184.699 210.358 178.579 199.22C172.46 188.083 158.552 186.412 148.816 194.208C139.081 202.005 141.723 213.142 142.836 220.103C143.948 227.064 140.471 228.456 138.663 228.595C136.855 228.734 133.796 227.481 134.352 225.115C134.908 222.609 136.855 222.191 139.081 224.001C141.167 225.811 140.75 217.179 140.054 213.699C139.359 210.218 140.193 206.32 132.822 207.712C125.59 209.105 118.636 216.065 121.696 230.266C124.755 244.466 134.491 245.719 141.028 245.301C147.565 244.884 152.015 242.378 152.015 242.378C152.015 242.378 151.598 237.227 154.658 232.772C157.717 228.317 158.691 226.228 157.578 221.356C156.466 216.483 158.691 212.864 160.916 210.358C163.002 207.852 164.254 207.852 165.367 209.94C166.479 212.028 161.055 213.003 160.499 218.293C159.943 223.583 160.638 226.924 158.691 230.683C156.744 234.442 152.989 238.48 154.658 246.833C156.327 255.186 166.062 257.413 172.321 255.603C178.579 253.793 184.421 257.831 192.348 253.097C200.137 248.364 198.607 237.505 200.137 231.379C201.806 225.115 203.197 225.393 205.144 227.899C206.952 230.126 200.693 232.215 200.137 239.454Z" fill="#FFBDAE"/>
<path d="M181.361 168.035C181.361 168.035 181.5 171.655 184.699 175.275C187.898 178.894 189.984 181.818 190.123 183.906C190.262 185.995 185.812 192.677 177.884 195.601C173.99 190.589 166.341 185.577 156.744 187.526C147.147 189.475 143.392 196.853 143.392 196.853C143.392 196.853 128.233 190.867 129.206 175.832C130.18 160.796 144.783 151.608 155.214 151.886C165.645 152.165 169.818 158.708 170.791 167.061C171.765 175.414 164.393 178.894 158.83 177.92C153.267 176.945 150.207 171.516 152.711 167.2C155.214 162.884 153.406 162.328 150.903 167.339C148.26 172.351 149.651 180.983 160.638 180.008C171.626 179.034 173.851 174.022 176.215 169.567C178.441 164.833 182.057 164.833 181.361 168.035Z" fill="#FFBDAE"/>
<path d="M178.719 196.993C178.719 196.993 183.03 194.904 186.229 192.259C189.428 189.614 189.845 187.526 191.375 187.248C192.905 186.969 193.879 192.12 194.296 195.183C194.713 198.246 195.826 202.422 195.269 202.701C194.713 203.118 190.68 203.954 188.176 204.789C185.673 205.624 184.421 206.599 183.03 205.903C181.779 205.346 181.222 200.473 178.719 196.993Z" fill="#FFBDAE"/>
<path d="M129.484 185.159C129.484 185.159 130.875 190.171 134.63 193.373C138.524 196.575 142.836 198.246 142.697 198.246C142.557 198.385 141.306 201.587 140.749 203.536C140.193 205.485 140.193 206.599 139.498 206.599C138.802 206.599 136.438 205.207 132.405 205.903C128.371 206.599 126.424 207.991 126.007 208.13C125.59 208.269 120.444 202.701 121.834 195.461C123.364 188.361 129.206 184.324 129.484 185.159Z" fill="#FFBDAE"/>
<path d="M171.069 173.187C171.069 173.187 172.46 170.402 172.321 166.922C172.182 163.441 169.678 159.126 170.374 158.429C171.069 157.733 183.308 156.62 183.725 157.316C184.143 158.012 181.917 160.518 181.639 161.771C181.361 163.163 181.917 164.277 180.666 164.555C179.414 164.833 178.023 165.112 176.354 167.339C174.685 169.706 171.765 175.275 171.069 173.187Z" fill="#FFBDAE"/>
<path d="M218.635 126.966C219.052 127.384 223.085 139.496 235.742 137.408C248.398 135.319 247.563 132.117 245.06 133.092C242.557 134.066 237.967 137.268 230.874 135.737C223.642 134.206 218.635 127.106 220.165 121.676C221.694 116.247 224.337 113.323 230.039 109.146C235.742 104.97 235.185 94.9463 232.96 96.1993C230.735 97.4522 234.49 99.1228 232.126 103.439C229.761 107.754 225.867 111.374 222.251 111.931C218.635 112.627 211.124 103.856 217.522 92.9973C223.92 82.1383 236.854 80.05 243.669 84.9227C250.484 89.7953 250.345 96.1993 249.372 97.4522C248.537 98.566 242.139 101.072 238.662 108.45C235.185 115.69 238.384 123.207 243.252 126.827C248.12 130.447 256.047 131.561 255.769 132.535C255.491 133.51 254.1 134.902 254.657 137.268C255.352 139.635 255.352 141.027 254.796 141.167C254.1 141.306 246.59 140.61 242.278 143.951C237.967 147.292 238.106 149.937 237.132 150.076C236.159 150.355 228.649 144.647 221.694 144.925C214.74 145.065 211.542 150.216 208.482 149.241C205.283 148.267 199.024 144.09 197.494 136.155C196.104 128.219 207.508 112.488 218.635 126.966Z" fill="#FFBDAE"/>
<path d="M250.484 97.313C250.484 97.313 255.769 96.7561 260.081 96.8954C264.392 97.0346 268.982 99.1228 269.538 98.7052C270.095 98.4267 270.373 91.6051 268.426 86.3148C266.478 81.0246 261.054 77.4049 254.1 77.1265C247.146 76.848 243.669 82.6952 244.365 83.3913C245.06 84.0873 248.676 86.454 250.067 90.3521C251.458 94.2502 250.484 97.313 250.484 97.313Z" fill="#FFBDAE"/>
<path d="M185.812 111.235C186.229 111.096 184.838 98.1483 196.382 93.1365C207.926 88.1247 215.714 93.4149 215.019 94.6679C214.323 95.9208 212.237 100.793 212.237 105.388C212.237 109.982 210.707 117.917 209.734 118.474C208.76 119.031 203.475 119.449 200.693 122.511C197.912 125.574 195.408 127.106 189.289 126.688C183.169 126.131 178.858 123.764 178.023 124.878C177.189 125.992 177.467 126.827 183.169 127.523C189.011 128.219 195.826 127.662 196.521 129.333C197.216 131.004 195.965 134.623 196.66 138.382C197.356 142.141 199.303 144.925 195.13 146.318C190.958 147.71 185.395 153.139 184.143 154.81C182.891 156.62 170.374 156.62 169.4 156.063C168.288 155.506 162.446 151.608 157.579 150.773C152.572 149.937 147.843 151.329 147.426 145.621C147.147 139.914 153.267 134.206 158.83 134.345C164.393 134.484 167.175 143.394 175.937 143.394C184.699 143.394 185.673 139.078 181.918 139.774C178.162 140.47 174.129 143.672 167.314 138.939C160.36 134.206 160.221 124.321 166.341 116.247C172.46 108.172 184.977 103.856 185.256 105.805C185.534 107.754 185.951 110.956 183.865 114.019C181.779 117.082 182.196 119.309 184.421 118.613C186.646 117.917 185.812 111.235 185.812 111.235Z" fill="#FFBDAE"/>
<path d="M211.263 120.145C211.263 120.145 212.237 116.803 212.515 114.019C212.793 111.235 213.21 105.666 213.628 105.805C214.045 105.805 215.157 109.286 217.383 111.235C219.608 113.184 222.111 114.019 221.694 114.994C221.277 115.968 219.33 118.613 218.774 120.98C218.356 123.347 218.495 123.904 217.939 123.904C217.522 123.904 215.018 120.702 211.263 120.145Z" fill="#FFBDAE"/>
<path d="M255.491 216.622C255.491 216.622 257.577 207.991 263.001 206.459C268.287 204.928 270.373 209.661 269.677 220.938C268.982 232.215 259.803 238.619 247.981 240.289C236.159 241.96 229.066 232.493 235.185 218.432C241.305 204.371 254.657 186.412 259.942 184.324C265.227 182.096 267.452 187.108 265.088 190.032C262.723 192.955 259.107 194.487 261.193 195.461C263.419 196.436 267.73 190.31 268.426 186.273C269.121 182.375 267.73 169.01 278.718 162.328C289.705 155.645 296.937 165.947 297.354 172.212C297.772 178.477 297.354 182.793 299.719 182.375C302.083 181.957 302.779 175.414 298.745 168.035C294.712 160.518 290.261 159.404 287.201 157.733C284.281 155.924 287.48 141.584 298.05 138.661C308.62 135.737 314.322 136.433 316.547 133.37C318.773 130.308 315.296 127.106 314.044 129.194C312.931 131.282 312.514 133.092 308.342 134.762C304.169 136.433 297.076 136.851 294.573 138.104C292.069 139.357 288.175 128.637 302.918 121.258C317.66 113.88 331.012 125.574 328.369 139.357C325.727 153.139 315.574 155.088 311.401 154.81C307.229 154.671 302.779 150.912 300.414 147.292C298.189 143.672 295.824 146.178 298.745 149.38C301.666 152.582 309.037 155.924 313.627 159.961C318.216 163.998 320.72 183.349 306.951 190.171C293.182 196.993 288.314 192.399 287.897 185.716C287.48 179.034 286.228 172.49 284.42 170.402C282.612 168.314 281.499 171.655 284.003 175.971C286.506 180.287 287.341 192.259 282.056 198.385C276.77 204.371 268.287 200.055 262.167 203.118C256.047 206.042 250.206 222.887 252.57 226.368C254.935 229.848 255.074 222.887 255.491 216.622Z" fill="#FFBDAE"/>
<path d="M293.738 98.4267C293.738 98.4267 298.467 88.5423 311.818 89.9345C325.031 91.3267 328.508 104.552 327.117 111.096C325.726 117.639 322.806 120.702 322.806 120.702C322.806 120.702 318.077 117.221 310.984 117.778C303.891 118.474 296.937 124.46 296.519 124.6C296.102 124.739 293.738 115.133 300.553 109.425C307.229 103.717 312.931 106.084 314.739 105.805C316.547 105.527 317.938 101.211 311.679 101.768C305.421 102.325 299.023 108.45 296.937 111.792C294.85 114.994 293.738 98.4267 293.738 98.4267Z" fill="#FFBDAE"/>
<path d="M324.058 121.398C324.058 121.398 326.839 114.019 330.316 113.184C333.793 112.348 343.112 115.133 345.615 126.827C348.119 138.382 343.668 144.647 335.74 151.329C327.813 158.012 326.978 160.657 333.237 158.151C339.635 155.784 341.86 147.014 343.39 145.204C344.92 143.394 354.099 149.659 354.099 160.379C354.099 171.237 340.747 175.136 329.76 172.073C318.773 168.871 315.574 160.239 316.547 157.455C317.521 154.531 325.031 154.114 328.925 142.698C332.959 131.143 324.058 121.398 324.058 121.398Z" fill="#FFBDAE"/>
<path d="M265.922 234.025C265.922 234.025 269.399 239.593 278.022 238.062C286.645 236.67 291.235 229.709 289.705 223.583C288.175 217.458 278.856 212.724 277.326 210.079C275.797 207.434 278.022 207.295 283.029 211.75C291.93 219.546 290.122 224.975 292.347 227.899C294.433 230.823 307.09 234.025 314.183 226.089C321.137 218.154 319.329 210.079 318.633 209.244C317.938 208.409 314.739 206.042 312.375 201.865C310.01 197.689 310.289 191.981 308.898 191.842C307.507 191.702 303.752 193.791 304.03 201.169C304.169 208.548 308.341 214.395 306.533 216.762C304.725 219.128 303.613 215.787 303.056 210.079C302.5 204.371 301.248 197.967 297.076 195.879C292.903 193.791 287.897 194.626 285.393 197.132C282.89 199.638 280.386 202.84 277.187 202.979C273.989 203.258 268.147 202.561 266.339 203.536C264.531 204.51 269.816 205.207 271.485 212.307C273.154 219.685 271.763 227.481 265.922 234.025Z" fill="#FFBDAE"/>
<path d="M344.92 172.769C344.92 172.769 343.946 175.136 338.383 177.641C332.82 180.008 324.336 182.514 320.72 188.083C317.103 193.651 319.468 196.853 321.554 194.626C323.64 192.259 322.388 189.753 326.422 185.298C330.316 180.983 337.131 182.793 338.661 190.31C340.191 197.828 338.105 203.814 330.038 207.016C321.971 210.218 316.13 206.181 313.487 200.752C310.706 195.322 310.567 191.424 312.514 188.918C314.461 186.412 316.269 183.767 317.799 179.591C319.329 175.414 318.494 171.098 319.607 169.706C320.72 168.314 324.475 172.351 330.733 173.743C336.714 174.996 342.555 173.883 344.92 172.769Z" fill="#FFBDAE"/>
<path d="M322.806 210.636C322.806 210.636 329.342 211.193 335.601 206.459C341.86 201.726 341.582 195.322 341.721 194.069C341.86 192.955 345.615 194.626 347.84 203.954C350.065 213.42 342.972 220.381 332.819 223.026C322.806 225.532 319.19 223.862 319.746 221.913C320.58 219.964 322.667 214.673 322.806 210.636Z" fill="#FFBDAE"/>
<path d="M336.575 180.704C336.575 180.704 341.86 185.855 342.277 188.222C342.694 190.589 341.999 191.563 343.111 192.12C344.224 192.816 347.979 197.55 348.675 198.942C349.37 200.334 348.953 203.258 349.926 203.397C350.761 203.397 358.967 198.803 360.218 189.475C361.609 180.008 354.099 171.516 353.125 171.237C352.152 170.959 348.257 172.49 347.284 173.604C346.31 174.718 341.443 179.312 336.575 180.704Z" fill="#FFBDAE"/>
<path d="M286.506 90.3521C291.095 96.8954 292.486 105.109 292.069 113.045C292.069 114.019 291.93 114.854 291.652 115.69C290.956 117.221 289.287 118.335 287.618 118.335C285.949 118.335 284.28 117.36 283.307 115.968C282.611 114.994 282.194 114.019 282.055 112.905C281.221 109.425 281.499 105.805 281.082 102.186C280.525 98.2875 279.134 94.3894 277.883 90.6306C277.465 89.2384 277.048 87.8462 277.326 86.3148C277.744 84.2266 279.691 82.6952 281.499 84.2266C283.168 86.0364 284.976 88.2639 286.506 90.3521Z" fill="#FFCBC2"/>
<path d="M266.756 88.2639C266.895 88.6815 267.034 89.2384 266.756 89.7953C266.478 90.2129 265.922 90.4913 265.365 90.4913C264.392 90.4913 263.557 90.0737 262.723 89.656C260.219 88.1247 257.994 86.0364 256.882 83.252C256.603 82.556 256.464 81.8599 256.742 81.1638C257.021 80.4677 257.855 80.05 258.69 79.9108C260.219 79.6324 261.888 80.3285 262.723 81.5814C263.696 82.9736 264.948 83.9481 265.783 85.4795C266.061 86.3148 266.478 87.2893 266.756 88.2639Z" fill="#FFCBC2"/>
<path d="M252.709 99.2621C254.656 98.8444 256.743 98.8444 258.829 99.1228C263.279 99.6797 267.73 101.072 271.624 103.299C272.459 103.717 273.293 104.274 273.85 105.109C274.406 105.944 274.406 107.058 273.711 107.754C273.293 108.172 272.876 108.311 272.32 108.311C271.346 108.45 270.234 108.033 269.26 107.894C265.505 106.919 261.471 107.337 257.577 107.894C255.491 108.311 253.266 108.729 251.319 109.564C250.206 109.982 249.232 110.539 248.12 110.817C247.007 111.096 245.894 111.235 244.782 110.956C244.365 110.817 243.947 110.539 243.669 110.26C243.252 109.703 243.113 108.868 243.252 108.033C243.391 106.362 244.086 104.831 245.199 103.578C245.755 102.882 246.451 102.603 247.146 102.046C247.842 101.49 248.537 100.793 249.371 100.376C250.484 99.8189 251.597 99.5405 252.709 99.2621Z" fill="#FFCBC2"/>
<path d="M239.496 84.7834C242.278 85.3403 244.782 86.7325 246.729 88.6815C247.007 88.96 247.424 89.3776 247.563 89.7953C247.841 90.3521 247.98 90.909 248.119 91.6051C248.259 92.3012 248.398 93.1365 248.398 93.9718C248.398 94.2502 248.398 94.5286 248.119 94.8071C247.702 95.5032 246.729 95.364 245.894 95.2247C243.53 94.5287 241.444 92.9973 239.079 92.162C237.41 91.6051 235.463 91.3266 233.655 91.4659C230.734 91.7443 227.953 92.9973 225.032 92.7188C224.615 92.7188 224.198 92.5796 223.78 92.4404C222.39 91.7443 221.972 89.7953 222.668 88.2639C223.363 86.8717 224.893 86.0364 226.284 85.3403C228.648 84.505 230.873 84.3658 233.238 84.2266C235.463 84.3658 237.41 84.3658 239.496 84.7834Z" fill="#FFCBC2"/>
<path d="M208.342 124.739C210.151 125.156 211.68 126.27 212.932 127.523C214.184 128.776 215.296 130.308 216.409 131.7C217.383 132.953 218.495 134.066 219.747 135.041C220.164 135.319 220.582 135.737 220.721 136.294C220.86 136.712 220.721 137.268 220.442 137.686C219.608 139.078 217.661 139.357 216.131 139.078C214.601 138.8 213.071 138.104 211.541 137.686C208.76 136.99 205.7 137.268 203.475 135.598C202.779 135.041 202.223 134.345 201.667 133.788C201.388 133.37 201.11 132.953 200.832 132.535C200.137 130.725 201.11 127.384 202.64 126.131C203.892 124.878 206.674 124.321 208.342 124.739Z" fill="#FFCBC2"/>
<path d="M203.475 93.8326C206.118 94.3894 208.343 96.8953 208.343 99.6797C208.343 101.35 207.786 102.882 207.23 104.274C205.839 108.033 204.866 112.209 201.806 114.994C201.111 115.69 200.276 116.247 199.303 116.386C197.634 116.803 195.687 116.247 194.435 115.133C193.044 114.019 192.209 112.348 191.653 110.678C190.401 106.641 190.958 102.046 193.044 98.2875C194.991 95.2247 199.581 92.9973 203.475 93.8326Z" fill="#FFCBC2"/>
<path d="M178.997 116.664C178.44 118.474 177.467 120.423 176.076 121.676C175.659 122.094 174.963 122.372 174.546 122.094C174.407 121.954 174.268 121.815 174.129 121.676C173.294 120.562 172.738 119.449 172.182 118.196C171.904 117.36 171.625 116.386 171.765 115.55C171.904 114.715 172.46 114.158 173.016 113.462C174.824 111.235 176.911 108.729 179.692 108.172C181.639 107.754 183.447 109.146 181.917 110.956C181.361 111.652 180.666 111.931 180.248 112.766C179.692 114.019 179.414 115.411 178.997 116.664Z" fill="#FFCBC2"/>
<path d="M269.816 128.637C271.903 128.219 273.85 127.802 275.936 127.662C276.492 127.662 277.048 127.662 277.605 127.802C278.3 127.941 278.857 128.359 279.413 128.915C280.247 129.611 281.082 130.308 281.916 131.143C282.89 132.257 283.863 133.649 283.446 135.041C283.168 135.876 282.612 136.433 281.916 136.99C280.108 138.382 277.744 138.939 275.519 139.496C273.571 139.914 271.485 140.192 269.538 140.192C267.452 140.053 265.505 139.496 263.836 138.382C262.862 137.686 262.028 136.851 261.75 135.598C260.637 131.282 266.896 129.333 269.816 128.637Z" fill="#FFCBC2"/>
<path d="M261.888 148.127C262.862 148.823 263.696 149.52 264.114 150.494C264.253 150.772 264.392 151.19 264.253 151.469C264.114 151.747 263.696 151.886 263.418 151.886C261.054 152.443 258.551 152.861 256.186 153.418C253.822 153.974 251.597 154.392 249.093 154.531C247.98 154.531 246.729 154.531 245.616 154.253C244.503 153.835 243.53 153.139 243.113 152.025C242.139 149.52 243.808 146.457 246.311 145.621C249.51 144.647 253.265 144.647 256.464 145.621C258.411 146.178 260.359 147.014 261.888 148.127Z" fill="#FFCBC2"/>
<path d="M213.071 150.773C215.436 149.659 218.078 149.38 220.582 149.38C222.529 149.38 224.476 149.52 226.284 150.216C227.397 150.773 228.509 151.469 229.483 152.304C232.404 154.949 234.629 158.29 236.298 161.771C237.967 165.112 239.08 168.732 239.08 172.49C239.08 172.63 239.08 172.908 238.801 172.908C238.662 172.908 238.523 172.908 238.523 172.908C236.437 171.934 234.49 170.82 232.682 169.428C229.761 167.061 227.675 163.72 225.171 160.796C224.476 159.961 223.503 158.986 222.39 158.847C221.555 158.708 220.721 159.126 219.886 159.543C216.27 161.771 213.489 165.669 209.455 166.643C208.76 166.783 207.926 166.922 207.23 166.783C206.117 166.504 205.144 165.53 204.449 164.694C203.475 163.441 202.78 161.91 203.614 160.379C204.031 159.404 205.144 158.708 205.839 157.733C207.786 154.949 209.873 152.304 213.071 150.773Z" fill="#FFCBC2"/>
<path d="M234.907 189.197C236.298 191.285 236.437 193.93 237.132 196.297C237.689 198.246 238.662 200.056 238.662 202.005C238.662 203.954 237.689 205.624 237.132 207.434C236.437 209.244 236.159 211.193 234.907 212.724C233.377 214.395 231.013 214.952 228.787 215.509C228.509 215.509 228.231 215.648 227.814 215.509C227.397 215.369 227.258 214.952 227.118 214.534C226.562 212.724 226.562 210.914 226.562 208.965C226.423 204.093 226.562 198.942 224.893 194.348C224.337 192.816 223.502 191.285 223.224 189.614C222.807 187.944 222.946 186.134 223.92 184.742C225.171 183.071 227.814 182.653 229.622 183.628C230.595 184.185 231.43 185.298 232.264 186.134C233.099 187.108 234.212 187.944 234.907 189.197Z" fill="#FFCBC2"/>
<path d="M199.72 177.502C199.859 177.781 199.998 178.059 199.859 178.477C199.72 178.616 199.581 178.755 199.442 178.894C197.912 179.73 196.104 178.755 194.713 177.92C191.514 175.692 188.454 172.63 187.759 168.732C187.481 166.643 187.898 164.555 188.454 162.606C190.123 157.316 193.878 152.443 199.164 150.494C199.859 150.216 200.693 150.076 201.25 150.355C202.919 151.19 200.693 153.278 200.276 154.253C199.442 155.924 198.746 157.873 198.19 159.682C197.216 163.441 197.216 167.479 197.912 171.237C198.329 173.187 198.885 175.414 199.72 177.502Z" fill="#FFCBC2"/>
<path d="M158.413 153.835C161.055 154.392 163.559 155.645 165.089 157.733C166.201 159.265 166.897 161.075 167.453 162.745C167.87 163.998 168.288 165.251 168.288 166.643C168.288 168.035 167.592 169.428 166.48 169.985C164.95 170.681 163.142 169.985 161.89 168.871C159.386 166.643 158.274 163.024 155.353 161.075C152.989 159.404 149.79 159.543 146.869 159.822C146.035 159.961 146.869 156.62 147.147 156.341C147.704 155.367 148.955 154.671 150.068 154.114C152.571 153.139 155.909 153.418 158.413 153.835Z" fill="#FFCBC2"/>
<path d="M165.645 191.563C166.757 191.702 167.731 191.981 168.705 192.259C171.903 193.512 174.129 196.436 175.937 199.359C177.884 202.561 179.553 206.042 180.248 209.661C180.944 213.42 180.526 217.318 178.718 220.66C178.162 221.634 177.606 222.469 176.771 223.026C176.493 223.166 176.354 223.305 176.076 223.305C175.659 223.305 175.38 222.887 175.102 222.609C174.129 221.356 173.016 220.103 172.321 218.571C171.625 217.179 171.208 215.648 170.652 214.116C169.956 212.028 169.122 209.94 167.87 208.13C166.618 206.32 164.81 204.789 162.724 204.093C160.638 203.536 158.413 203.814 156.187 203.675C154.796 203.536 153.406 203.257 152.432 202.283C151.876 201.587 151.459 200.752 151.18 200.055C150.902 199.359 150.763 198.663 150.902 197.967C151.041 197.41 151.319 196.993 151.459 196.575C152.71 194.626 154.657 192.538 156.883 191.842C159.525 191.146 162.724 191.146 165.645 191.563Z" fill="#FFCBC2"/>
<path d="M201.111 219.685C201.111 220.242 200.971 220.938 200.554 221.356C200.137 221.773 199.442 221.634 198.885 221.356C198.329 221.077 197.912 220.66 197.494 220.381C195.13 218.711 191.792 219.128 189.567 217.318C187.898 215.926 187.342 213.281 188.037 211.193C188.732 208.548 191.236 205.903 194.017 207.573C196.66 209.244 198.885 211.611 200.137 214.534C200.832 216.066 201.111 217.875 201.111 219.685Z" fill="#FFCBC2"/>
<path d="M313.488 91.4659C314.6 91.6051 315.574 91.8835 316.547 92.3012C318.633 93.1365 320.442 94.8071 321.693 96.7561C322.945 98.7052 323.779 100.793 324.475 103.021C324.614 103.439 324.753 103.856 324.753 104.413C324.753 104.831 324.475 105.388 324.058 105.527C323.64 105.805 322.945 105.666 322.528 105.388C321.415 104.97 320.302 104.274 319.19 103.578C317.66 102.464 316.269 100.933 314.322 100.237C313.348 99.9581 312.236 99.9581 311.262 99.9581C310.289 99.9581 309.176 100.097 308.202 100.376C306.812 100.793 305.699 101.49 304.447 102.046C303.474 102.464 302.5 102.742 301.388 102.882C300.97 103.021 300.553 103.021 299.997 103.021C299.44 102.882 298.884 102.603 298.467 102.186C297.771 101.629 297.215 100.933 296.659 100.097C296.381 99.5405 296.102 98.9836 296.102 98.4267C295.963 95.9208 298.884 94.2502 300.692 93.2757C303.196 92.0227 305.838 91.3267 308.62 91.1874C310.428 91.1874 311.958 91.1874 313.488 91.4659Z" fill="#FFCBC2"/>
<path d="M299.997 123.904C301.526 122.79 303.195 121.676 305.003 120.98C309.176 119.309 313.905 119.309 317.938 121.258C320.58 122.511 322.945 124.46 324.753 126.827C325.866 128.358 326.839 130.029 326.978 131.978C326.978 132.257 326.978 132.674 326.839 132.953C326.7 133.231 326.422 133.51 326.144 133.51C326.005 133.51 325.726 133.37 325.587 133.37C324.197 132.674 322.806 131.978 321.693 131.004C320.163 129.89 319.051 128.219 317.243 127.662C315.713 127.106 313.905 127.523 312.375 128.08C310.845 128.776 309.454 129.611 307.785 130.308C305.143 131.56 302.222 131.978 299.301 132.117C298.884 132.117 298.467 132.117 298.049 132.117C297.354 131.839 296.937 131.143 296.659 130.586C296.102 129.472 295.407 127.941 296.52 126.966C297.771 125.853 298.884 124.739 299.997 123.904Z" fill="#FFCBC2"/>
<path d="M337.687 117.639C338.661 118.613 339.496 119.727 340.33 120.98C341.582 123.068 342.277 125.296 343.112 127.662C343.529 128.776 343.807 129.89 343.946 131.004C344.224 133.092 343.807 135.18 343.112 137.268C342.416 139.217 341.443 141.167 340.33 142.837C339.913 143.394 339.635 144.09 339.078 144.508C338.522 144.925 337.687 145.065 337.131 144.786C336.436 144.508 336.297 143.672 336.019 142.976C334.906 139.078 334.489 135.18 333.376 131.282C332.542 128.637 331.429 126.27 330.177 123.764C329.343 122.233 328.369 120.423 328.786 118.613C328.925 117.778 329.482 116.943 330.038 116.247C331.151 114.854 332.542 114.715 334.35 114.994C335.74 115.272 336.714 116.525 337.687 117.639Z" fill="#FFCBC2"/>
<path d="M301.944 154.253C303.752 155.367 305.56 156.62 307.229 158.012C307.924 158.569 308.481 159.126 309.176 159.682C312.236 162.884 313.905 167.339 315.156 171.655C315.574 173.047 315.852 174.439 315.574 175.692C315.017 177.641 313.209 179.034 311.123 179.591C310.289 179.73 309.454 179.869 308.759 179.451C308.063 179.034 307.646 178.338 307.229 177.641C305.282 173.743 303.891 169.567 301.666 165.808C300.275 163.441 298.328 161.353 296.52 159.265C295.685 158.29 294.712 157.316 294.294 156.063C293.321 153.835 294.294 151.19 296.937 151.051C297.771 151.051 298.328 151.329 298.884 151.886C299.718 152.722 300.831 153.557 301.944 154.253Z" fill="#FFCBC2"/>
<path d="M349.231 149.937C350.483 151.608 351.039 153.557 351.595 155.506C351.734 156.202 352.013 156.898 352.013 157.594C352.013 158.429 351.873 159.126 351.734 159.961C351.039 162.049 349.648 163.859 347.84 165.112C346.032 166.365 343.807 166.922 341.581 166.643C341.303 166.643 341.164 166.643 340.886 166.504C340.747 166.365 340.608 166.226 340.608 166.086C340.191 164.973 339.773 163.859 339.773 162.606C339.773 160.796 340.608 159.126 341.303 157.455C342.277 155.227 343.111 152.861 343.668 150.355C343.807 149.659 343.946 148.963 344.363 148.406C344.641 147.849 345.198 147.292 345.893 147.014C347.423 146.596 348.536 148.823 349.231 149.937Z" fill="#FFCBC2"/>
<path d="M287.618 161.075C288.453 161.214 289.287 161.353 289.983 161.631C291.374 162.188 292.486 163.302 293.321 164.694C294.155 165.947 294.712 167.339 295.268 168.871C296.241 171.377 296.937 174.161 295.824 176.528C295.824 176.528 295.824 176.667 295.685 176.667H295.546C294.433 175.832 293.321 175.136 292.208 174.161C290.261 172.351 289.009 169.845 286.784 168.314C286.506 168.175 286.228 167.896 285.81 167.896C285.254 167.757 284.559 167.896 284.002 168.035C282.333 168.453 280.664 169.428 278.996 169.985C278.856 169.985 278.578 170.124 278.439 169.985C278.3 169.985 278.161 169.845 278.022 169.706C277.466 169.149 276.909 168.453 276.631 167.757C275.518 165.39 277.883 163.441 279.691 162.467C282.194 161.075 284.976 160.657 287.618 161.075Z" fill="#FFCBC2"/>
<path d="M337.549 190.867C337.827 191.981 338.244 193.095 338.244 194.348C338.244 195.044 338.105 195.74 337.966 196.436C337.688 197.828 337.27 199.22 336.575 200.473C335.88 201.726 334.906 202.84 333.654 203.536C331.568 201.169 332.681 197.271 331.012 194.487C330.456 193.512 329.482 192.677 328.647 191.981C327.813 191.146 327.118 190.171 326.979 189.057C326.839 186.551 329.204 185.298 331.151 184.602C333.098 183.906 334.628 184.881 335.741 186.551C336.714 187.804 337.131 189.336 337.549 190.867Z" fill="#FFCBC2"/>
<path d="M355.629 176.389C357.298 179.173 358.549 182.236 359.245 185.438C359.384 185.995 359.523 186.551 359.384 187.108C359.384 187.526 359.245 188.083 359.106 188.5C358.549 190.449 357.854 192.399 356.88 194.348C356.602 195.044 356.185 195.74 355.629 196.297C355.072 196.853 354.377 197.271 353.543 197.132C352.291 196.993 351.456 195.879 350.9 194.904C349.926 193.095 349.231 191.285 348.118 189.475C347.562 188.5 346.728 187.665 346.31 186.691C344.92 184.324 344.781 181.4 345.615 178.894C346.589 176.389 348.675 174.3 351.178 173.326C351.874 173.047 353.125 172.769 353.682 173.326C354.516 174.022 355.072 175.553 355.629 176.389Z" fill="#FFCBC2"/>
<path d="M346.867 206.738C346.727 210.079 345.198 213.142 342.972 215.509C342.555 216.066 341.999 216.622 341.303 216.762C341.025 216.762 340.886 216.762 340.608 216.762C340.33 216.622 340.191 216.483 340.052 216.344C339.217 215.509 338.383 214.534 337.965 213.281C337.548 211.75 337.965 210.079 338.522 208.548C339.634 205.485 341.025 202.561 342.555 199.777C342.972 199.081 343.668 197.967 344.502 198.246C345.198 198.385 345.337 199.22 345.476 199.777C346.171 202.144 346.867 204.371 346.867 206.738Z" fill="#FFCBC2"/>
<path d="M293.599 197.689C294.573 197.967 295.685 198.246 296.52 198.803C297.354 199.359 297.91 200.195 298.328 201.03C299.858 203.814 299.997 207.295 300.97 210.358C301.387 211.471 301.805 212.585 301.666 213.838C301.666 214.952 300.831 216.205 299.579 216.344C298.745 216.344 298.05 215.926 297.493 215.369C294.99 213.281 293.182 210.079 290.122 208.687C289.009 208.13 287.897 207.852 286.923 207.295C285.81 206.738 284.837 206.042 284.42 204.928C283.585 202.561 285.532 200.334 286.923 198.663C288.731 196.854 291.513 197.132 293.599 197.689Z" fill="#FFCBC2"/>
<path d="M268.982 218.432C268.982 219.824 268.704 221.217 267.73 222.33C267.035 223.166 265.922 223.722 264.81 223.862C264.67 223.862 264.531 223.862 264.392 223.862C264.114 223.862 263.975 223.583 263.836 223.444C262.584 222.052 261.75 220.52 261.054 218.85C260.776 218.015 260.498 217.179 260.498 216.344C260.498 215.509 260.776 214.673 261.054 213.838C261.472 212.585 262.167 211.471 262.862 210.497C263.419 209.662 264.114 208.965 264.949 208.548C267.313 207.712 267.174 209.94 267.591 211.471C268.426 213.56 268.982 215.926 268.982 218.432Z" fill="#FFCBC2"/>
<path d="M260.081 100.515C262.584 100.933 265.227 101.49 267.452 102.882C267.591 103.021 267.73 103.16 267.869 103.299C268.008 103.717 267.313 103.995 266.896 103.995C262.167 104.135 257.299 104.413 252.57 104.552C252.153 104.552 251.736 104.552 251.458 104.413C251.18 104.135 251.041 103.717 251.041 103.299C251.041 102.882 251.319 102.603 251.597 102.186C252.014 101.629 252.709 101.072 253.405 100.933C254.518 100.793 255.491 100.237 256.604 100.237C257.577 100.097 258.829 100.376 260.081 100.515Z" fill="#FFD9D4"/>
<path d="M288.87 99.5405C289.009 100.097 289.009 100.793 289.009 101.35C288.87 101.907 288.592 102.464 288.036 102.742C287.896 102.882 287.618 102.882 287.34 102.882C287.201 102.882 287.062 102.742 286.923 102.603C286.227 101.907 285.671 101.211 284.976 100.654C284.419 100.097 284.002 99.5405 283.585 98.9836C283.168 98.1483 282.89 97.1738 282.75 96.3385C282.472 94.8071 282.055 93.1365 281.499 91.6051C281.36 91.0482 281.221 90.4913 281.082 89.9345C281.082 88.8207 282.055 87.707 283.168 88.1246C284.141 88.5423 284.837 90.0737 285.254 90.909C287.201 93.4149 288.314 96.4777 288.87 99.5405Z" fill="#FFD9D4"/>
<path d="M315.852 92.9973C317.243 93.5541 318.494 94.6679 319.607 95.7816C319.885 96.0601 320.163 96.3385 320.303 96.7561C320.442 97.1738 320.163 97.5914 319.746 97.7307C319.468 97.7307 319.329 97.5914 319.051 97.4522C316.547 96.1993 313.488 96.7561 310.706 97.313C309.593 97.4522 308.481 97.7307 307.368 97.4522C306.255 97.313 305.143 96.6169 304.865 95.5032C304.586 94.6679 305.004 93.2757 305.838 92.9973C306.534 92.7188 307.646 92.858 308.481 92.7188C310.984 92.3012 313.488 92.0227 315.852 92.9973Z" fill="#FFD9D4"/>
<path d="M263.28 85.758C263.001 85.6187 262.862 85.6187 262.584 85.4795C262.028 85.2011 260.081 83.3913 261.332 83.1128C262.723 82.8344 263.697 84.7834 263.28 85.758Z" fill="#FFD9D4"/>
<path d="M241.166 86.8717C242.139 87.0109 243.252 87.4286 243.669 88.2639C243.808 88.6815 243.808 89.2384 243.391 89.5168C241.444 88.96 239.358 88.5423 237.411 88.5423C236.159 88.5423 234.768 88.6815 233.516 88.4031C233.099 88.2639 232.543 88.1247 232.404 87.5678C231.987 86.0364 234.907 85.8972 235.742 85.8972C237.55 86.1756 239.358 86.454 241.166 86.8717Z" fill="#FFD9D4"/>
<path d="M314.878 121.954C316.13 122.233 317.382 122.372 318.633 122.929C319.746 123.486 320.859 124.182 321.554 125.296C321.693 125.435 321.832 125.713 321.693 125.853C321.693 126.131 321.276 126.27 320.998 126.27C320.72 126.27 320.442 126.131 320.163 125.992C318.633 125.296 316.686 125.296 315.017 125.574C313.348 125.853 311.54 126.27 309.871 126.409C308.481 126.549 306.812 126.27 306.255 125.017C306.116 124.739 305.977 124.321 306.116 124.043C306.116 123.904 306.255 123.625 306.394 123.486C308.341 121.258 312.097 121.398 314.878 121.954Z" fill="#FFD9D4"/>
<path d="M340.469 123.486C341.304 125.574 341.582 127.802 341.999 130.029C342.138 130.447 342.138 130.864 341.999 131.282C341.86 131.7 341.582 132.117 341.165 132.117C339.357 129.194 337.827 126.131 336.436 123.068C336.019 122.094 334.767 118.335 337.131 118.752C338.8 119.031 339.913 122.233 340.469 123.486Z" fill="#FFD9D4"/>
<path d="M291.095 164.694C291.513 165.251 291.791 165.808 292.208 166.504C292.347 166.783 292.486 167.061 292.347 167.339C292.208 167.618 291.93 167.618 291.652 167.618C291.374 167.618 291.235 167.339 290.956 167.2C288.87 165.808 286.228 166.086 283.863 165.808C283.446 165.808 282.89 165.669 282.612 165.251C282.194 164.416 283.307 163.302 284.002 163.024C284.698 162.606 285.532 162.606 286.228 162.606C288.036 162.328 289.983 163.163 291.095 164.694Z" fill="#FFD9D4"/>
<path d="M310.845 166.504C310.984 167.061 310.984 167.479 310.984 168.035C310.845 168.592 310.567 169.01 310.15 169.288C309.315 169.706 308.342 169.01 307.646 168.453C306.255 167.2 304.725 165.947 303.752 164.416C303.196 163.581 302.778 162.745 302.5 161.771C302.222 160.935 302.083 159.961 302.5 159.126C303.752 156.62 306.394 159.265 307.507 160.379C309.176 162.049 310.289 164.277 310.845 166.504Z" fill="#FFD9D4"/>
<path d="M216.548 152.582C221.138 152.025 226.006 153.139 229.9 155.506C231.291 156.341 232.543 157.455 232.96 158.986C233.099 159.543 232.96 160.1 232.543 160.379C231.986 160.657 231.43 160.379 231.013 159.961C229.622 158.986 228.37 157.873 226.979 157.177C225.728 156.62 224.337 156.48 222.946 156.48C221.972 156.48 220.999 156.48 220.025 156.759C217.661 157.455 215.853 159.543 213.349 159.822C212.654 159.961 211.959 159.822 211.402 159.543C210.707 159.126 210.011 158.429 209.733 157.733C209.594 157.316 209.455 156.759 209.594 156.341C210.011 153.696 214.462 152.861 216.548 152.582Z" fill="#FFD9D4"/>
<path d="M195.269 165.947C195.13 166.365 195.13 166.643 194.852 166.922C193.739 165.947 193.044 164.555 192.766 163.163C192.488 161.771 192.766 160.239 193.322 158.847C194.157 156.898 195.826 155.227 197.773 155.088C198.329 155.784 197.912 156.48 197.634 157.177C197.356 158.151 197.077 159.126 196.799 160.1C196.382 162.188 195.826 163.998 195.269 165.947Z" fill="#FFD9D4"/>
<path d="M171.486 197.689C173.434 199.777 174.824 202.283 175.798 204.928C176.076 205.763 176.354 206.599 176.354 207.434C176.354 207.991 176.076 208.687 175.52 208.826C174.963 208.965 174.546 208.548 174.268 208.13C172.877 206.599 171.486 205.207 170.096 203.675C169.122 202.561 168.009 201.448 166.758 200.612C165.228 199.638 163.42 199.081 161.751 198.524C161.055 198.246 160.221 197.828 160.082 196.993C159.943 196.297 160.499 195.74 160.916 195.322C161.334 194.904 161.751 194.348 162.307 194.069C165.228 192.538 169.678 195.74 171.486 197.689Z" fill="#FFD9D4"/>
<path d="M234.768 203.397C234.49 204.371 233.934 205.485 232.96 205.485C232.821 205.485 232.682 205.485 232.543 205.346C232.404 205.207 232.265 205.067 232.265 204.928C231.708 203.954 231.43 202.701 231.43 201.587C231.43 200.612 231.708 199.638 231.708 198.663C231.847 196.575 231.013 194.626 230.596 192.538C230.457 191.981 230.317 191.285 230.457 190.728C230.596 190.171 231.013 189.475 231.569 189.336C232.404 189.057 233.238 189.753 233.794 190.31C235.046 191.842 235.463 194.626 235.603 196.575C235.603 198.942 235.324 201.169 234.768 203.397Z" fill="#FFD9D4"/>
<path d="M297.215 202.283C297.632 202.84 297.91 203.397 298.188 203.954C298.328 204.51 298.328 205.346 298.049 205.903C298.049 206.042 297.91 206.042 297.771 206.181C297.632 206.181 297.493 206.181 297.354 206.181C295.824 205.624 294.294 204.928 292.764 204.371C292.347 204.232 291.93 204.093 291.652 203.814C290.678 203.118 290.539 201.587 291.234 200.612C291.791 199.638 293.321 199.22 294.433 199.499C295.407 199.638 296.519 201.448 297.215 202.283Z" fill="#FFD9D4"/>
<path d="M337.131 191.981C337.131 192.816 336.714 193.93 335.88 194.069C335.323 194.208 334.906 193.93 334.35 193.652C333.237 192.955 332.264 192.12 331.568 191.146C331.012 190.31 330.595 189.197 330.873 188.222C331.012 187.804 331.29 187.387 331.568 187.108C332.124 186.551 332.681 186.134 333.515 185.995C334.906 185.855 335.184 186.691 335.601 187.665C336.297 189.057 337.131 190.31 337.131 191.981Z" fill="#FFD9D4"/>
<path d="M357.02 180.983C357.854 182.793 358.411 185.02 357.298 186.691C357.02 187.108 356.742 187.387 356.324 187.247C356.185 187.247 356.046 187.108 355.907 187.108C354.655 186.273 353.265 185.298 352.152 184.045C351.178 182.793 350.344 181.261 350.483 179.591C350.622 178.198 351.874 175.971 353.543 176.249C355.212 176.667 356.324 179.591 357.02 180.983Z" fill="#FFD9D4"/>
<path d="M345.754 207.016C345.754 207.434 345.754 207.991 345.476 208.409C345.198 208.826 344.641 208.965 344.085 209.105H343.946L343.807 208.965C343.39 207.434 342.833 205.763 343.111 204.232C343.251 203.536 343.39 202.84 343.668 202.144C343.668 202.005 343.807 201.865 343.807 201.865C344.641 201.448 345.337 203.118 345.337 203.675C345.615 204.65 345.754 205.903 345.754 207.016Z" fill="#FFD9D4"/>
<path d="M349.371 155.227C349.788 156.48 349.927 157.873 349.51 158.986C348.953 160.518 347.423 161.353 345.894 161.91C345.754 161.91 345.476 162.049 345.337 162.049C345.198 162.049 344.92 161.91 344.92 161.631C344.364 160.796 344.225 159.682 344.364 158.708C344.503 157.455 344.781 156.341 345.198 155.227C345.476 153.975 345.894 152.861 346.172 151.608C346.45 150.494 348.119 150.494 348.536 151.469C348.675 151.886 348.675 152.443 348.675 152.861C348.675 153.696 349.092 154.531 349.371 155.227Z" fill="#FFD9D4"/>
<path d="M279.413 131.143C279.691 131.143 279.83 131.282 280.108 131.421C280.386 131.56 280.526 131.839 280.526 132.117C280.804 132.674 280.943 133.37 280.526 133.927C280.386 134.066 280.108 134.206 279.83 134.345C278.161 134.902 276.353 135.319 274.545 135.598C274.406 135.598 274.267 135.598 274.128 135.598C273.989 135.598 273.85 135.459 273.711 135.319C273.293 134.902 273.015 134.484 272.876 134.066C272.737 133.51 272.737 132.813 273.154 132.396C274.406 130.168 277.466 130.586 279.413 131.143Z" fill="#FFD9D4"/>
<path d="M257.716 147.988C258.412 148.267 259.107 148.684 259.246 149.38C259.385 149.937 258.968 150.494 258.412 150.773C257.855 151.051 257.299 151.051 256.604 151.051C256.047 151.051 255.491 150.773 254.796 150.773C253.961 150.773 253.127 150.912 252.431 150.773C252.292 150.773 252.153 150.773 252.153 150.633C252.014 150.494 252.014 150.355 251.875 150.216C251.736 149.798 251.597 149.38 251.597 148.963C251.597 148.545 251.736 147.988 252.014 147.71C253.683 146.596 256.047 147.431 257.716 147.988Z" fill="#FFD9D4"/>
<path d="M212.793 130.168C212.933 130.447 213.211 130.864 212.933 131.282C212.793 131.421 212.654 131.56 212.376 131.7C211.681 131.978 210.846 131.978 210.151 131.839C209.177 131.7 208.343 131.56 207.508 131.143C206.813 130.725 205.283 129.611 205.561 128.637C205.839 127.802 207.091 126.966 207.926 126.827C210.012 126.409 211.959 128.776 212.793 130.168Z" fill="#FFD9D4"/>
<path d="M205.561 104.274C204.727 105.666 203.614 106.78 202.223 107.754C202.084 107.894 201.945 107.894 201.945 107.894C201.806 107.894 201.806 107.894 201.667 107.754C199.998 106.641 199.024 104.552 199.024 102.464C199.024 100.376 200.137 98.4268 201.806 97.313C202.78 96.7561 204.031 96.3385 205.005 97.0346C205.283 97.313 205.561 97.5914 205.7 97.8699C206.257 98.8444 206.117 99.8189 206.117 100.933C206.396 102.325 206.257 103.16 205.561 104.274Z" fill="#FFD9D4"/>
<path d="M178.44 114.158C178.162 114.854 177.884 115.55 177.328 115.829C177.189 115.829 177.05 115.968 177.05 115.968C176.911 115.968 176.911 115.829 176.771 115.69C176.215 114.715 175.937 113.462 176.354 112.348C176.771 111.235 177.606 110.399 178.579 109.843C178.997 109.703 179.275 109.564 179.692 109.564C180.666 109.703 180.805 110.539 180.248 111.235C179.692 112.209 178.858 113.045 178.44 114.158Z" fill="#FFD9D4"/>
<path d="M163.976 161.492C163.976 161.631 163.976 161.91 163.837 162.049C163.698 162.049 163.559 162.049 163.42 161.91C162.168 161.075 160.916 160.239 159.803 159.265C158.969 158.708 158.413 157.177 159.664 156.759C162.029 155.924 163.837 159.822 163.976 161.492Z" fill="#FFD9D4"/>
<path d="M198.19 214.673C198.329 214.952 198.329 215.23 198.19 215.509C198.051 215.926 197.633 216.205 197.216 216.344C197.077 216.344 196.938 216.483 196.799 216.483C196.66 216.483 196.66 216.483 196.521 216.483C195.547 216.066 194.713 215.509 194.017 214.813C193.739 214.534 193.461 214.256 193.322 213.838C193.183 213.42 193.322 212.864 193.461 212.446C193.739 212.028 194.017 211.75 194.295 211.332C194.434 211.193 194.434 211.193 194.573 211.193C194.991 211.054 196.242 211.889 196.66 212.028C197.633 212.585 198.051 213.838 198.19 214.673Z" fill="#FFD9D4"/>
<path d="M146.73 177.641C146.73 177.641 134.769 162.049 130.04 135.459C125.172 109.007 130.736 83.5305 130.736 83.5305L126.702 85.8972C126.702 85.8972 122.252 112.488 124.477 139.914C126.702 167.339 132.961 177.781 138.246 184.045C143.531 190.31 149.372 184.881 146.73 177.641Z" fill="#936764"/>
<path d="M301.805 156.063C311.637 156.063 319.607 148.085 319.607 138.243C319.607 128.401 311.637 120.423 301.805 120.423C291.973 120.423 284.002 128.401 284.002 138.243C284.002 148.085 291.973 156.063 301.805 156.063Z" fill="#E8867C"/>
<path d="M301.805 153.278C310.101 153.278 316.826 146.547 316.826 138.243C316.826 129.939 310.101 123.207 301.805 123.207C293.509 123.207 286.784 129.939 286.784 138.243C286.784 146.547 293.509 153.278 301.805 153.278Z" fill="white"/>
<path d="M301.11 143.116C306.64 143.116 311.123 138.628 311.123 133.092C311.123 127.556 306.64 123.068 301.11 123.068C295.579 123.068 291.096 127.556 291.096 133.092C291.096 138.628 295.579 143.116 301.11 143.116Z" fill="#936764"/>
<path d="M214.601 175.136C224.433 175.136 232.403 167.157 232.403 157.316C232.403 147.474 224.433 139.496 214.601 139.496C204.769 139.496 196.799 147.474 196.799 157.316C196.799 167.157 204.769 175.136 214.601 175.136Z" fill="#E8867C"/>
<path d="M214.601 172.351C222.897 172.351 229.622 165.62 229.622 157.316C229.622 149.012 222.897 142.28 214.601 142.28C206.306 142.28 199.581 149.012 199.581 157.316C199.581 165.62 206.306 172.351 214.601 172.351Z" fill="white"/>
<path d="M215.157 162.467C220.688 162.467 225.171 157.979 225.171 152.443C225.171 146.907 220.688 142.419 215.157 142.419C209.627 142.419 205.144 146.907 205.144 152.443C205.144 157.979 209.627 162.467 215.157 162.467Z" fill="#936764"/>
<path d="M305.003 114.437C305.003 114.437 287.062 118.056 286.784 114.158C286.506 110.26 286.645 110.539 289.705 109.703C292.764 108.729 309.176 112.627 305.003 114.437Z" fill="#936764"/>
<path d="M197.911 141.445C197.911 141.445 215.018 135.18 213.349 131.7C211.68 128.219 211.541 128.637 208.482 129.333C205.422 130.308 193.322 142.141 197.911 141.445Z" fill="#936764"/>
<path d="M282.055 157.037C282.055 157.037 281.777 166.365 269.955 170.959C258.134 175.553 253.544 171.237 252.153 168.871C250.762 166.365 252.292 165.112 251.458 163.859C250.484 162.606 248.12 160.1 250.762 159.265C253.405 158.429 263.697 157.316 271.207 154.392C278.718 151.469 282.89 151.886 282.055 157.037Z" fill="white"/>
<path d="M259.663 166.365C259.663 166.365 266.617 166.226 272.319 163.581C278.022 160.935 280.108 158.986 280.108 158.986C280.108 158.986 276.075 164.137 268.564 166.643C261.193 169.01 259.802 167.479 259.802 167.479L259.663 166.365Z" fill="#F7EBEB"/>
<path d="M77.8853 126.688L68.5669 118.892C71.2094 115.829 132.822 43.2966 229.9 30.2102C315.435 18.6551 364.947 43.7143 386.088 54.2948C386.783 54.5732 387.339 54.9909 387.896 55.2693C390.677 56.6615 391.929 60.0027 390.816 62.9263C389.426 66.1283 385.67 67.6597 382.611 65.9891C382.054 65.7106 381.359 65.4322 380.803 65.0146C360.636 54.8517 313.488 31.0455 231.708 42.0437C139.081 54.5732 78.4416 125.853 77.8853 126.688Z" fill="#C6BEB5"/>
<path d="M99.5814 141.723L112.794 144.647L82.0573 189.753L76.355 190.867L99.5814 141.723Z" fill="#723030"/>
<path d="M46.5919 49.9791L44.2275 54.9909C44.2275 54.9909 76.6333 136.99 77.0505 137.129C77.6069 137.129 107.509 146.318 107.509 146.318L112.794 144.786L46.5919 49.9791Z" fill="#C94E45"/>
<path d="M107.509 146.178L44.0885 54.9909C44.0885 54.9909 41.1678 63.6224 24.7563 69.4695C44.923 99.9581 87.2035 163.859 88.177 163.581C89.2897 163.302 107.509 146.178 107.509 146.178Z" fill="#EDDDCA"/>
<path d="M88.4552 159.543C88.4552 159.543 96.8001 149.937 107.509 146.178C93.4621 166.783 77.8851 191.424 77.8851 191.424L67.4541 197.689L88.4552 159.543Z" fill="#BFA990"/>
<path d="M24.4784 66.1283C24.4784 66.1283 90.8197 161.91 90.2634 162.606C89.7071 163.302 85.8128 164.973 85.8128 164.973C85.8128 164.973 21.1404 71.2793 20.7232 69.4695C20.3059 67.6597 24.4784 66.1283 24.4784 66.1283Z" fill="#F46C56"/>
<path d="M50.347 46.6378C50.347 46.6378 116.688 142.419 116.132 143.116C115.576 143.812 111.681 145.482 111.681 145.482C111.681 145.482 46.87 51.7889 46.5918 49.9791C46.1746 48.1692 50.347 46.6378 50.347 46.6378Z" fill="#F46C56"/>
<path d="M20.723 69.4695L0 120.284L63.8379 200.473L85.8126 164.833L20.723 69.4695Z" fill="#C94E45"/>
<path d="M90.1241 162.606L69.5402 195.461L81.0839 189.057L111.542 145.343L115.993 142.976L83.4482 190.45L63.8379 200.473L85.8126 164.833L90.1241 162.606Z" fill="#9B312F"/>
<path d="M40.6115 59.8635L62.8644 91.7443L39.2207 61.2557L40.6115 59.8635Z" fill="#CCBBA3"/>
<path d="M29.0679 67.7989L34.492 72.95L31.015 66.8244L29.0679 67.7989Z" fill="#CCBBA3"/>
<path d="M95.6875 153L69.2622 115.968C69.2622 115.968 93.7404 154.531 94.0185 154.253C94.1576 154.114 95.6875 153 95.6875 153Z" fill="#CCBBA3"/>
<path d="M15.7163 127.523L29.4853 101.768L35.6048 110.956L21.8358 132.396L15.7163 127.523Z" fill="#DDA95E"/>
<path d="M30.5977 130.586L36.3 122.79L40.4724 128.498L35.1873 135.041L30.5977 130.586Z" fill="#DDA95E"/>
<path d="M321.693 49.8399C321.693 49.8399 316.825 46.081 315.574 42.879C314.322 39.5378 316.408 37.5887 317.938 37.0318C319.607 36.475 323.779 38.7025 322.945 40.0946C322.11 41.4868 319.051 39.1201 319.051 39.1201L318.355 43.5751L327.117 45.3849L324.614 50.8144L321.693 49.8399Z" fill="#936764"/>
<path d="M130.736 83.5305C130.736 83.5305 132.126 79.0755 131.431 76.4304C130.736 73.7853 130.179 71.697 129.067 72.2539C127.815 72.8107 124.477 74.4813 124.477 75.7343C124.477 76.9873 124.755 79.4932 125.451 78.6579C126.146 77.8226 125.172 76.4304 126.981 76.4304C128.789 76.2912 128.928 77.9618 128.093 79.6324C127.259 81.303 127.815 83.6697 127.815 83.6697L124.894 85.6187L126.981 88.8207L130.736 83.5305Z" fill="#936764"/>
<path d="M318.216 30.4886C318.216 30.4886 320.163 27.5651 321.693 27.8435C323.223 28.1219 323.084 29.6533 323.084 29.6533C323.084 29.6533 324.475 27.7043 326.004 28.2611C327.534 28.818 326.839 30.2102 326.839 30.2102C326.839 30.2102 327.395 28.5396 328.925 29.2357C330.455 29.7925 330.316 31.0455 330.316 31.0455C330.316 31.0455 332.402 30.071 332.819 31.4632C333.237 32.8553 329.899 35.5005 328.925 35.222C327.952 34.9436 328.508 33.5514 328.508 33.5514C328.508 33.5514 327.395 34.5259 326.144 34.2475C325.031 33.9691 325.031 32.9945 325.031 32.9945C325.031 32.9945 323.501 33.8299 322.388 33.6906C321.276 33.4122 322.388 31.6024 322.388 31.6024C322.388 31.6024 320.858 33.1338 319.19 32.9945C317.521 32.8553 317.381 31.6024 318.216 30.4886Z" fill="#936764"/>
<path d="M126.841 69.3303C126.841 69.3303 123.642 67.7989 122.53 68.6342C121.278 69.6087 122.112 71.0009 122.112 71.0009C122.112 71.0009 119.887 70.0264 118.914 71.1401C117.94 72.3931 119.053 73.2284 119.053 73.2284C119.053 73.2284 117.801 72.1146 116.688 73.3676C115.576 74.6206 116.271 75.5951 116.271 75.5951C116.271 75.5951 114.046 75.7343 114.324 77.1265C114.602 78.5186 118.774 79.2147 119.609 78.5186C120.443 77.8226 119.192 76.848 119.192 76.848C119.192 76.848 120.722 77.1265 121.556 76.2912C122.391 75.4559 121.973 74.6206 121.973 74.6206C121.973 74.6206 123.781 74.6206 124.616 73.9245C125.45 73.2284 123.642 72.1146 123.642 72.1146C123.642 72.1146 125.728 72.6715 127.119 71.8362C128.51 71.0009 127.954 69.8872 126.841 69.3303Z" fill="#936764"/>
<path d="M207.369 36.0573C207.786 35.9181 232.543 30.3494 265.922 29.3749C299.301 28.4004 312.514 32.1592 313.209 35.0828C313.905 38.0064 297.076 35.0828 268.704 35.0828C240.331 35.0828 202.501 43.7143 188.315 46.6378C174.268 49.5614 183.865 41.3476 207.369 36.0573Z" fill="#D6CEC8"/>
</svg>
