<svg width="550" height="336" viewBox="0 0 550 336" fill="none" xmlns="http://www.w3.org/2000/svg">
<g clip-path="url(#clip0)">
<path d="M286.287 73.1666C243.962 67.7226 202.94 67.5049 160.833 73.1666V42.245H286.287V73.1666Z" fill="#393768"/>
<path d="M223.56 62.2787L130.88 32.8814L223.56 0L322.751 31.1393L223.56 62.2787Z" fill="#393768"/>
<path d="M305.387 33.7524H301.914V81.6591H305.387V33.7524Z" fill="#393768"/>
<path d="M303.434 90.8049C306.43 90.8049 308.86 88.3676 308.86 85.361C308.86 82.3544 306.43 79.917 303.434 79.917C300.437 79.917 298.007 82.3544 298.007 85.361C298.007 88.3676 300.437 90.8049 303.434 90.8049Z" fill="#393768"/>
<path d="M64.4633 251.946C63.161 250.203 61.4246 248.461 60.5564 246.502C59.2541 243.671 59.6882 240.187 60.7735 237.356C61.6416 234.307 63.161 231.476 63.8121 228.428C65.7656 221.024 63.8121 212.531 58.603 206.87C57.5177 205.563 56.2154 204.474 55.1302 202.95C52.9597 199.684 52.9597 195.329 53.3938 191.409C54.045 187.489 55.1302 183.57 54.9132 179.65C54.6961 174.859 52.3086 170.286 48.6188 167.238C44.9289 164.189 40.1539 163.1 35.3788 163.1C35.3788 163.1 35.3788 163.1 35.1618 163.1C35.1618 163.1 35.1618 163.1 34.9447 163.1C30.1697 163.1 25.3946 164.189 21.7048 167.02C18.015 170.069 15.6274 174.642 15.1933 179.432C14.9763 183.352 16.0615 187.272 16.4956 191.191C17.5809 195.111 17.3638 199.466 15.1933 202.732C14.3252 204.039 13.0229 205.345 11.7206 206.434C6.51142 212.096 4.34094 220.371 6.29437 227.992C7.16257 231.041 8.46486 233.872 9.33305 236.92C10.2012 239.969 10.6353 243.235 9.33305 246.066C8.46486 248.026 6.72847 249.768 5.42618 251.51C0.217026 258.043 -1.95345 267.624 2.38751 274.592C4.12389 277.423 6.94552 279.383 9.76714 281.343C14.1081 284.174 18.8832 286.351 23.8753 287.44C26.0458 287.876 28.4333 288.311 30.6038 287.876C32.1231 287.44 33.2083 287.658 34.7277 287.658C36.247 287.658 37.3323 287.44 38.8516 287.876C41.0221 288.529 43.4096 288.093 45.5801 287.658C50.5722 286.569 55.3472 284.391 59.6882 281.778C62.5098 280.036 65.1144 277.859 67.0678 275.246C71.8429 268.277 69.6724 258.478 64.4633 251.946Z" fill="#5A5BAE"/>
<path d="M58.8199 245.195L37.1151 268.495L36.2469 222.548C39.5026 218.193 52.5255 200.773 52.5255 200.773L36.2469 218.411L35.8128 190.538C37.3321 188.578 47.5334 174.859 47.5334 174.859L35.8128 187.489L35.3787 167.891L34.9446 192.933L23.6581 180.739C23.6581 180.739 32.7741 193.151 34.9446 196.2L34.5105 224.508L18.449 206.652C18.449 206.652 31.4718 224.29 34.5105 228.645L33.8594 275.028L11.7205 250.857C11.7205 250.857 31.4718 277.859 33.6423 280.907V287.658H37.5492L37.3321 273.939C41.4561 268.495 58.8199 245.195 58.8199 245.195Z" fill="#8888BA"/>
<path d="M37.5494 287.658H33.6426V295.062H37.5494V287.658Z" fill="#8888BA"/>
<path d="M18.2319 295.279H52.7426L46.2311 322.717H24.9604L18.2319 295.279Z" fill="#FBB03B"/>
<path d="M52.7426 293.319H18.2319V295.497H52.7426V293.319Z" fill="#FFD648"/>
<path d="M543.706 259.132C545.659 262.833 550 260.22 550 260.22C550 260.22 549.783 258.914 547.83 258.043C546.31 257.389 544.357 257.825 543.489 258.26H541.101C540.667 258.26 540.016 258.26 539.582 258.478C546.31 256.083 543.272 248.026 543.272 248.026C543.272 248.026 541.101 248.026 538.931 251.074C537.194 253.47 537.845 257.607 538.063 258.696C535.458 259.132 532.853 259.785 530.249 260.656C530.466 260.438 530.9 260.003 531.334 259.567C533.939 256.518 532.853 250.639 532.853 250.639C523.52 251.728 525.474 260.656 525.908 262.616C522.869 264.14 520.048 265.882 517.443 267.624C518.094 266.753 518.745 265.446 519.179 263.487C520.265 259.132 516.358 253.688 516.358 253.688C507.242 259.349 513.753 267.624 515.055 269.148C513.536 270.455 512.017 271.761 510.497 272.85C508.978 274.157 507.676 275.463 506.374 276.77C506.808 275.463 507.242 273.721 506.808 270.89C506.156 265.882 499.862 262.18 499.862 262.18C493.351 271.544 502.684 277.205 504.854 278.294C500.73 282.867 498.126 286.351 498.126 286.569L498.994 287.222C498.994 287.222 500.513 284.827 503.335 281.561C506.808 292.666 518.962 287.005 518.962 287.005C518.962 287.005 518.745 283.956 514.187 280.907C511.366 278.947 507.025 279.383 504.637 280.036C506.374 278.076 508.544 275.899 510.932 273.721C511.8 273.068 512.451 272.197 513.536 271.544C516.575 281.996 527.861 276.77 527.861 276.77C527.861 276.77 527.644 273.939 523.52 271.326C520.916 269.584 517.226 270.019 515.055 270.455C517.66 268.495 520.482 266.318 523.737 264.575C525.691 274.592 536.109 270.455 536.109 270.455C536.109 270.455 536.109 268.06 532.636 265.229C530.466 263.487 526.776 263.704 524.823 263.922C528.295 262.18 532.202 260.656 536.109 260.003C535.892 268.931 545.659 267.189 545.659 267.189C545.659 267.189 546.093 265.011 543.489 262.18C541.535 260.003 537.628 259.785 536.326 259.785C537.846 259.567 539.148 259.349 540.667 259.349L543.706 259.132Z" fill="#5A5BAE"/>
<path d="M465.351 312.7C465.351 312.7 445.166 266.971 459.708 224.508C474.25 182.045 509.629 169.633 509.629 169.633C509.629 169.633 488.793 194.022 500.947 231.912C512.451 267.842 490.529 312.7 490.529 312.7H465.351Z" fill="#FBB03B"/>
<path d="M472.514 312.7C472.514 312.7 467.305 219.717 489.227 195.329C469.258 226.032 477.723 312.7 477.723 312.7H472.514Z" fill="#FFD648"/>
<path d="M507.025 312.7H485.537C486.405 308.78 489.444 297.457 497.258 288.747C506.591 278.294 518.528 279.165 518.528 279.165C518.528 279.165 512.017 286.351 511.149 298.981C510.715 303.99 508.978 308.78 507.025 312.7Z" fill="#8888BA"/>
<path d="M457.104 262.18C472.731 282.649 476.421 309.434 476.638 312.7H446.034C438.22 305.514 428.887 293.973 428.67 280.036C428.453 255.212 416.95 240.404 416.95 240.404C416.95 240.404 440.391 240.187 457.104 262.18Z" fill="#8888BA"/>
<path d="M492.483 312.7H490.963C494.002 305.732 501.816 289.182 509.195 285.698C502.033 290.489 495.304 305.514 492.483 312.7Z" fill="#97BBD3"/>
<path d="M467.088 312.7H463.832C460.142 300.288 448.856 266.1 434.313 254.776C449.29 262.833 463.181 300.941 467.088 312.7Z" fill="#97BBD3"/>
<path d="M428.622 316.167H519.565V312.465H428.622V316.167Z" fill="#8888BA"/>
<path d="M378.315 165.496C397.375 165.496 412.826 149.994 412.826 130.872C412.826 111.75 397.375 96.2489 378.315 96.2489C359.255 96.2489 343.804 111.75 343.804 130.872C343.804 149.994 359.255 165.496 378.315 165.496Z" fill="#8888BA"/>
<path d="M378.315 158.963C393.778 158.963 406.314 146.386 406.314 130.872C406.314 115.358 393.778 102.782 378.315 102.782C362.851 102.782 350.316 115.358 350.316 130.872C350.316 146.386 362.851 158.963 378.315 158.963Z" fill="white"/>
<path d="M378.315 151.995C389.942 151.995 399.369 142.538 399.369 130.872C399.369 119.207 389.942 109.75 378.315 109.75C366.687 109.75 357.261 119.207 357.261 130.872C357.261 142.538 366.687 151.995 378.315 151.995Z" fill="#9B9AD3"/>
<path d="M378.315 143.938C385.507 143.938 391.338 138.088 391.338 130.872C391.338 123.656 385.507 117.807 378.315 117.807C371.122 117.807 365.292 123.656 365.292 130.872C365.292 138.088 371.122 143.938 378.315 143.938Z" fill="white"/>
<path d="M378.315 136.099C381.192 136.099 383.524 133.759 383.524 130.872C383.524 127.986 381.192 125.646 378.315 125.646C375.438 125.646 373.106 127.986 373.106 130.872C373.106 133.759 375.438 136.099 378.315 136.099Z" fill="#8888BA"/>
<path d="M423.027 87.5386L422.81 79.4815L414.562 87.7563L414.996 94.0713L385.043 124.122L382.005 121.291L378.749 131.09L389.167 128.477L385.912 125.211L415.864 95.1601L421.725 96.0311L430.841 86.8853L423.027 87.5386Z" fill="#5A5BAE"/>
<path d="M134.353 196.635C141.306 196.635 146.942 190.981 146.942 184.005C146.942 177.03 141.306 171.375 134.353 171.375C127.4 171.375 121.764 177.03 121.764 184.005C121.764 190.981 127.4 196.635 134.353 196.635Z" fill="#31374F"/>
<path d="M133.051 187.925C133.051 188.143 133.051 188.143 133.051 188.36V188.578V188.796C133.051 188.796 133.051 189.014 132.834 189.014C132.834 189.014 132.617 189.231 132.4 189.231C132.183 189.231 131.966 189.449 131.749 189.449C131.531 189.449 131.097 189.667 130.88 189.667C130.446 189.667 130.229 189.667 129.795 189.667C128.927 189.667 128.276 189.449 127.625 189.231C126.973 189.014 126.539 188.578 126.105 188.143C125.671 187.707 125.237 187.054 125.02 186.401C124.803 185.747 124.586 184.876 124.586 184.005C124.586 183.134 124.803 182.263 125.02 181.392C125.237 180.739 125.671 180.086 126.105 179.432C126.539 178.997 127.191 178.561 127.842 178.343C128.493 178.126 129.144 177.908 130.012 177.908C130.229 177.908 130.663 177.908 130.88 177.908C131.097 177.908 131.531 178.126 131.749 178.126C131.966 178.126 132.183 178.343 132.4 178.343C132.617 178.561 132.834 178.561 132.834 178.561L133.051 178.779V178.997V179.215C133.051 179.432 133.051 179.432 133.051 179.65C133.051 179.868 133.051 179.868 133.051 180.086C133.051 180.303 133.051 180.303 133.051 180.303V180.521C133.051 180.521 133.051 180.521 132.834 180.521C132.834 180.521 132.617 180.521 132.4 180.303C132.183 180.303 132.183 180.086 131.966 179.868C131.749 179.65 131.531 179.65 131.314 179.432C131.097 179.432 130.663 179.215 130.229 179.215C129.795 179.215 129.361 179.215 128.927 179.432C128.493 179.65 128.276 179.868 128.059 180.303C127.842 180.739 127.625 180.957 127.408 181.61C127.191 182.045 127.191 182.699 127.191 183.134C127.191 183.787 127.191 184.441 127.408 184.876C127.625 185.312 127.842 185.747 128.059 186.183C128.276 186.401 128.71 186.836 128.927 186.836C129.361 187.054 129.578 187.054 130.229 187.054C130.663 187.054 130.88 187.054 131.314 186.836C131.531 186.836 131.966 186.618 132.183 186.618C132.4 186.401 132.617 186.401 132.617 186.401C132.834 186.401 132.834 186.183 132.834 186.183C132.834 186.183 132.834 186.183 133.051 186.183C133.051 186.183 133.051 186.183 133.051 186.401V186.618C133.051 187.489 133.051 187.707 133.051 187.925Z" fill="#CCE9F1"/>
<path d="M140.214 189.231C140.214 189.231 140.214 189.449 139.997 189.449C139.997 189.449 139.78 189.449 139.78 189.667C139.78 189.667 139.562 189.667 139.345 189.667C139.128 189.667 138.911 189.667 138.694 189.667C138.477 189.667 138.26 189.667 138.043 189.667C137.826 189.667 137.826 189.667 137.609 189.667C137.392 189.667 137.392 189.667 137.392 189.667H137.175C137.175 189.667 137.175 189.667 136.958 189.449V189.231L133.702 179.215C133.702 178.997 133.485 178.779 133.485 178.779V178.561C133.485 178.561 133.702 178.561 133.919 178.343C134.136 178.343 134.353 178.343 134.57 178.343C134.787 178.343 135.004 178.343 135.221 178.343C135.439 178.343 135.439 178.343 135.656 178.343C135.656 178.343 135.873 178.343 135.873 178.561V178.779L138.694 187.489L141.299 178.779V178.561C141.299 178.561 141.299 178.561 141.516 178.343C141.516 178.343 141.733 178.343 141.95 178.343C142.167 178.343 142.384 178.343 142.601 178.343C142.818 178.343 143.035 178.343 143.252 178.343C143.469 178.343 143.469 178.343 143.469 178.561V178.779C143.469 178.997 143.469 178.997 143.252 179.215L140.214 189.231Z" fill="#CCE9F1"/>
<path d="M293.666 175.295H132.617C126.322 175.295 121.113 170.069 121.113 163.754V148.511C121.113 142.196 126.322 136.97 132.617 136.97H293.666V175.295Z" fill="white"/>
<path d="M299.744 175.295H127.842C124.803 175.295 122.415 172.682 122.415 169.415V144.156C122.415 140.889 124.803 138.276 127.842 138.276H299.527V134.574H127.842C123.067 134.574 119.16 138.929 119.16 144.156V169.415C119.16 174.642 123.067 178.997 127.842 178.997H299.527V175.295H299.744Z" fill="#8888BA"/>
<path d="M147.159 172.9L139.128 161.794L131.097 172.9V144.373H147.159V172.9Z" fill="#8888BA"/>
<path d="M323.619 130.872H132.182C126.322 130.872 121.33 126.082 121.33 119.984C121.33 114.105 126.105 109.097 132.182 109.097H323.619V130.872Z" fill="white"/>
<path d="M330.782 130.872H129.361C125.888 130.872 123.067 128.259 123.067 124.993V116.5C123.067 113.234 125.888 110.621 129.361 110.621H330.782V106.919H129.361C123.718 106.919 119.16 111.274 119.16 116.5V124.993C119.16 130.219 123.718 134.574 129.361 134.574H330.782V130.872Z" fill="#FBB03B"/>
<path d="M282.38 104.306H154.756C148.461 104.306 143.252 99.0797 143.252 92.7647V87.5386C143.252 81.2236 148.461 75.9974 154.756 75.9974H282.38V104.306Z" fill="white"/>
<path d="M287.372 104.306H148.895C146.508 104.306 144.554 102.346 144.554 99.9507V81.2236C144.554 78.8283 146.508 76.8684 148.895 76.8684H287.372V74.2553H148.895C144.988 74.2553 141.95 77.5217 141.95 81.2236V99.9507C141.95 103.87 145.205 106.919 148.895 106.919H287.372V104.306Z" fill="#97BBD3"/>
<path d="M208.8 75.9974H144.12V105.395H208.8V75.9974Z" fill="#97BBD3"/>
<path d="M164.523 102.564L158.011 94.289L151.5 102.564V81.4413H164.523V102.564Z" fill="#DEE3FC"/>
<path d="M153.236 143.72H127.842V144.373H153.236V143.72Z" fill="#8888BA"/>
<path d="M126.539 284.609H311.898C318.193 284.609 323.402 279.383 323.402 273.068V256.083C323.402 249.768 318.193 244.542 311.898 244.542H126.539V284.609Z" fill="white"/>
<path d="M119.594 284.609H315.588C319.061 284.609 321.666 281.778 321.666 278.512V252.163C321.666 248.679 318.844 246.066 315.588 246.066H119.594V242.364H315.588C321.014 242.364 325.572 246.937 325.572 252.381V278.73C325.572 284.174 321.014 288.747 315.588 288.747H119.594V284.609Z" fill="#393768"/>
<path d="M230.783 286.06H322.16V244.686H230.783V286.06Z" fill="#393768"/>
<path d="M293.449 282.214L302.783 270.673L311.898 282.214V252.381H293.449V282.214Z" fill="#DEE3FC"/>
<path d="M364.858 236.703H132.183C125.888 236.703 120.679 231.476 120.679 225.161V194.022C120.679 187.707 125.888 182.481 132.183 182.481H364.858V236.703Z" fill="#F3F1F1"/>
<path d="M373.323 236.703H130.229C126.105 236.703 122.632 233.001 122.632 228.21V192.498C122.632 187.925 126.105 184.005 130.229 184.005H373.323V178.779H130.229C123.5 178.779 117.857 184.876 117.857 192.28V227.992C117.857 235.396 123.283 241.493 130.229 241.493H373.323V236.703Z" fill="#5A5BAE"/>
<path d="M157.577 233.218L146.291 217.54L134.787 233.218V192.715H157.577V233.218Z" fill="#8888BA"/>
<path d="M166.259 191.844H130.229V192.715H166.259V191.844Z" fill="#8888BA"/>
<path d="M112.648 321.628H387.214C393.508 321.628 398.718 316.402 398.718 310.087V302.683C398.718 296.368 393.508 291.142 387.214 291.142H112.648V321.628Z" fill="#DEE3FC"/>
<path d="M102.664 321.628H387.431C392.423 321.628 396.33 317.926 396.33 313.135V301.159C396.33 296.586 392.206 292.666 387.431 292.666H102.664V287.44H387.431C395.462 287.44 401.973 293.537 401.973 300.941V312.918C401.973 320.321 395.462 326.419 387.431 326.419H102.664V321.628Z" fill="#8888BA"/>
<path d="M356.827 196.2H169.732V197.071H356.827V196.2Z" fill="white"/>
<path d="M356.827 200.119H169.732V200.99H356.827V200.119Z" fill="white"/>
<path d="M356.827 204.039H169.732V204.91H356.827V204.039Z" fill="white"/>
<path d="M356.827 207.741H169.732V208.612H356.827V207.741Z" fill="white"/>
<path d="M356.827 211.66H169.732V212.531H356.827V211.66Z" fill="white"/>
<path d="M356.827 215.58H169.732V216.451H356.827V215.58Z" fill="white"/>
<path d="M356.827 219.5H169.732V220.371H356.827V219.5Z" fill="white"/>
<path d="M356.827 223.419H169.732V224.29H356.827V223.419Z" fill="white"/>
<path d="M356.827 192.28H169.732V193.151H356.827V192.28Z" fill="white"/>
<path d="M356.827 227.121H169.732V227.992H356.827V227.121Z" fill="white"/>
<path d="M393.074 297.675H115.904V298.328H393.074V297.675Z" fill="white"/>
<path d="M393.074 300.288H115.904V300.941H393.074V300.288Z" fill="white"/>
<path d="M393.074 303.119H115.904V303.772H393.074V303.119Z" fill="white"/>
<path d="M393.074 305.732H115.904V306.385H393.074V305.732Z" fill="white"/>
<path d="M393.074 308.562H115.904V309.216H393.074V308.562Z" fill="white"/>
<path d="M393.074 311.176H115.904V311.829H393.074V311.176Z" fill="white"/>
<path d="M393.074 314.006H115.904V314.66H393.074V314.006Z" fill="white"/>
<path d="M393.074 316.62H115.904V317.273H393.074V316.62Z" fill="white"/>
<path d="M393.074 294.844H115.904V295.497H393.074V294.844Z" fill="white"/>
<path d="M393.074 319.45H115.904V320.104H393.074V319.45Z" fill="white"/>
<path d="M292.147 146.769H154.973V147.64H292.147V146.769Z" fill="#DEE3FC"/>
<path d="M292.147 150.035H154.973V150.906H292.147V150.035Z" fill="#DEE3FC"/>
<path d="M292.147 153.084H154.973V153.955H292.147V153.084Z" fill="#DEE3FC"/>
<path d="M292.147 156.35H154.973V157.221H292.147V156.35Z" fill="#DEE3FC"/>
<path d="M292.147 159.399H154.973V160.27H292.147V159.399Z" fill="#DEE3FC"/>
<path d="M292.147 162.665H154.973V163.536H292.147V162.665Z" fill="#DEE3FC"/>
<path d="M292.147 165.714H154.973V166.585H292.147V165.714Z" fill="#DEE3FC"/>
<path d="M292.147 168.98H154.973V169.851H292.147V168.98Z" fill="#DEE3FC"/>
<path d="M292.147 143.502H154.973V144.373H292.147V143.502Z" fill="#DEE3FC"/>
<path d="M292.147 172.029H154.973V172.9H292.147V172.029Z" fill="#DEE3FC"/>
<path d="M321.882 113.887H126.322V114.323H321.882V113.887Z" fill="white"/>
<path d="M321.882 115.629H126.322V116.065H321.882V115.629Z" fill="white"/>
<path d="M321.882 117.371H126.322V117.807H321.882V117.371Z" fill="white"/>
<path d="M321.882 119.113H126.322V119.549H321.882V119.113Z" fill="white"/>
<path d="M321.882 121.073H126.322V121.509H321.882V121.073Z" fill="white"/>
<path d="M321.882 122.815H126.322V123.251H321.882V122.815Z" fill="white"/>
<path d="M321.882 124.557H126.322V124.993H321.882V124.557Z" fill="white"/>
<path d="M321.882 126.299H126.322V126.735H321.882V126.299Z" fill="white"/>
<path d="M321.882 111.927H126.322V112.363H321.882V111.927Z" fill="white"/>
<path d="M321.882 128.259H126.322V128.695H321.882V128.259Z" fill="white"/>
<path d="M230.288 250.639H130.229V251.51H230.288V250.639Z" fill="#EAECFD"/>
<path d="M230.288 254.559H130.229V255.43H230.288V254.559Z" fill="#EAECFD"/>
<path d="M230.288 258.478H130.229V259.349H230.288V258.478Z" fill="#EAECFD"/>
<path d="M230.288 262.18H130.229V263.051H230.288V262.18Z" fill="#EAECFD"/>
<path d="M230.288 266.1H130.229V266.971H230.288V266.1Z" fill="#EAECFD"/>
<path d="M230.288 270.019H130.229V270.89H230.288V270.019Z" fill="#EAECFD"/>
<path d="M230.288 273.939H130.229V274.81H230.288V273.939Z" fill="#EAECFD"/>
<path d="M230.288 277.859H130.229V278.73H230.288V277.859Z" fill="#EAECFD"/>
<path d="M230.288 246.719H130.229V247.59H230.288V246.719Z" fill="#EAECFD"/>
<path d="M230.288 281.561H130.229V282.432H230.288V281.561Z" fill="#EAECFD"/>
<path d="M282.38 80.3526H208.8V81.0058H282.38V80.3526Z" fill="#DEE3FC"/>
<path d="M282.38 83.1834H208.8V83.8367H282.38V83.1834Z" fill="#DEE3FC"/>
<path d="M282.38 85.7965H208.8V86.4498H282.38V85.7965Z" fill="#DEE3FC"/>
<path d="M282.38 88.6273H208.8V89.2806H282.38V88.6273Z" fill="#DEE3FC"/>
<path d="M282.38 91.2404H208.8V91.8937H282.38V91.2404Z" fill="#DEE3FC"/>
<path d="M282.38 94.0713H208.8V94.7246H282.38V94.0713Z" fill="#DEE3FC"/>
<path d="M282.38 96.9021H208.8V97.5554H282.38V96.9021Z" fill="#DEE3FC"/>
<path d="M282.38 99.5152H208.8V100.168H282.38V99.5152Z" fill="#DEE3FC"/>
<path d="M282.38 77.7395H208.8V78.3927H282.38V77.7395Z" fill="#DEE3FC"/>
<path d="M282.38 102.346H208.8V102.999H282.38V102.346Z" fill="#DEE3FC"/>
<path d="M401.973 170.722C401.322 168.98 401.322 166.802 402.19 165.06C403.059 163.318 405.012 162.229 406.966 162.229C407.4 162.229 407.834 162.229 408.268 162.447C408.485 162.665 408.702 162.883 409.136 163.1C410.221 164.407 411.524 165.278 413.26 165.931C415.213 166.802 417.167 167.02 419.12 167.456C420.205 167.673 421.508 168.327 422.159 169.198C423.027 170.504 423.027 172.029 422.593 173.553C422.159 175.077 422.376 176.601 421.942 177.908C421.725 178.997 421.725 178.997 421.508 180.521C421.291 181.828 420.857 182.699 420.423 183.787C419.988 184.441 419.988 186.618 419.12 186.836C418.686 186.836 418.686 185.094 418.469 184.658C418.252 184.223 418.035 183.787 417.818 183.352C417.167 180.957 417.167 178.343 415.647 176.601C414.779 175.513 413.477 175.077 412.175 174.859C410.655 174.642 409.57 175.73 408.051 175.513C405.663 175.295 402.842 172.9 401.973 170.722Z" fill="#59595C"/>
<path d="M418.469 181.61H410.655V192.062H418.469V181.61Z" fill="#F27677"/>
<path d="M406.531 175.295C406.531 175.295 406.097 185.529 409.136 187.272C412.175 188.796 416.299 186.183 417.818 185.094C419.337 184.005 420.205 181.61 420.205 181.61C420.205 181.61 421.291 179.868 421.291 178.779C421.291 177.472 421.291 175.948 419.988 176.819C418.252 178.126 419.12 177.037 419.12 177.037C419.12 177.037 419.771 175.73 418.469 174.206C416.733 172.682 406.531 169.633 406.531 175.295Z" fill="#F27677"/>
<path d="M424.98 326.201V329.467C425.415 329.467 429.538 329.467 429.538 329.467V326.201H424.98Z" fill="#F27677"/>
<path d="M423.895 328.378C423.895 328.378 414.345 333.387 414.128 333.605C414.128 333.605 413.477 333.822 413.043 333.822C412.175 334.04 411.74 334.693 411.74 335.565C411.74 335.782 411.74 336 411.74 336C411.74 336.218 430.407 335.565 430.407 335.565C430.407 335.565 430.624 329.467 429.756 329.249C428.67 329.249 425.415 330.121 423.895 328.378Z" fill="#393768"/>
<path d="M418.252 331.209L419.337 332.951L418.686 333.169L417.818 331.645L418.252 331.209Z" fill="white"/>
<path d="M417.167 331.863L418.035 333.387L417.601 333.822L416.733 332.298L417.167 331.863Z" fill="white"/>
<path d="M416.299 332.516L417.167 333.822L416.516 334.258L415.647 332.734L416.299 332.516Z" fill="white"/>
<path d="M401.973 326.201L401.539 329.467C401.973 329.467 406.097 329.467 406.097 329.467L406.314 326.201H401.973Z" fill="#F27677"/>
<path d="M400.454 328.378C400.454 328.378 390.687 333.387 390.47 333.387C390.47 333.387 389.818 333.605 389.384 333.605C388.516 333.822 388.082 334.476 388.082 335.347C388.082 335.565 388.082 335.782 388.082 335.782C388.082 336 406.748 335.565 406.748 335.565C406.748 335.565 407.182 329.467 406.097 329.249C405.446 329.249 401.973 330.121 400.454 328.378Z" fill="#393768"/>
<path d="M395.027 331.209L395.896 332.734L395.244 333.169L394.376 331.427L395.027 331.209Z" fill="white"/>
<path d="M393.942 331.645L394.81 333.169L394.159 333.605L393.291 332.08L393.942 331.645Z" fill="white"/>
<path d="M392.857 332.298L393.725 333.605L393.074 334.04L392.206 332.516L392.857 332.298Z" fill="white"/>
<path d="M401.756 244.106L400.237 326.636L406.531 326.419L418.469 244.106H401.756Z" fill="#393768"/>
<path d="M411.089 245.848L422.593 326.636H430.19L429.973 244.324L410.438 244.106L411.089 245.848Z" fill="#393768"/>
<path d="M378.532 193.804C378.532 193.804 377.447 192.498 377.23 191.409C377.013 190.102 376.362 186.836 375.71 187.707C375.059 188.578 375.927 190.32 375.059 189.667C373.974 189.014 372.238 185.094 371.804 185.747C371.152 186.401 370.284 188.143 371.586 190.756C372.889 193.151 373.974 193.587 374.625 194.24C375.493 194.893 376.796 196.417 376.796 196.417L378.532 193.804Z" fill="#F27677"/>
<path d="M401.105 193.587L391.555 201.426C391.338 201.861 390.904 201.861 390.687 201.426L378.315 192.933L375.71 196.2L391.772 211.443C391.989 211.66 392.206 211.66 392.206 211.443L402.19 203.821L401.105 193.587Z" fill="#8888BA"/>
<path d="M401.105 193.587L406.097 191.627L410.655 189.885C413.26 191.844 415.864 191.409 418.469 189.449L422.81 191.191L431.926 194.675L430.189 244.324H422.81H405.88V244.106H401.973L401.105 193.587Z" fill="#9B9AD3"/>
<path d="M414.345 196.853H398.718V223.855H414.345V196.853Z" fill="#F2F2F2"/>
<path d="M416.95 214.274C416.95 214.274 416.081 214.274 415.864 213.402C415.647 212.531 414.779 210.789 414.562 211.443C414.345 212.096 411.306 210.354 411.089 211.878C410.872 213.402 410.872 215.58 411.957 216.233C412.826 216.887 416.081 218.411 416.081 218.411L416.95 214.274Z" fill="#F27677"/>
<path d="M431.709 194.675C431.709 194.675 438.654 212.749 438.437 217.758C438.003 222.766 416.081 219.282 416.081 219.282C416.081 219.282 414.779 217.104 415.647 215.798C416.516 214.274 417.167 213.838 417.167 213.838L430.407 214.274C430.407 214.274 422.159 190.538 431.709 194.675Z" fill="#8888BA"/>
<path d="M82.9124 264.14C82.9124 264.14 69.6725 284.391 71.6259 289.182C73.5793 293.973 80.959 301.159 80.959 301.159L86.3852 298.981C86.3852 298.981 81.3931 290.706 81.8272 288.964C82.2613 287.222 87.0363 277.641 87.0363 277.641L82.9124 264.14Z" fill="#393768"/>
<path d="M116.772 263.922C116.772 263.922 129.795 284.174 127.841 288.747C125.888 293.537 118.942 300.505 118.942 300.505L113.516 298.328C113.516 298.328 117.857 289.182 118.074 288.311C118.508 286.569 112.648 277.205 112.648 277.205L116.772 263.922Z" fill="#393768"/>
<path d="M116.989 264.358C116.121 262.398 103.315 259.567 103.315 259.567C103.315 259.567 101.144 261.962 100.927 261.962C100.71 261.962 100.059 264.793 99.6249 266.535C99.1908 264.793 98.5397 261.962 98.3226 261.962C98.1056 261.962 95.9351 259.785 95.9351 259.785C95.9351 259.785 83.3463 262.18 82.261 264.14C81.3929 266.1 83.7804 308.127 85.0827 308.998C86.385 309.869 92.6794 311.393 94.6328 312.482C96.1521 313.353 98.7567 312.7 99.6249 312.482C100.493 312.7 102.229 312.047 103.749 310.958C105.702 309.869 112.648 308.345 113.95 307.474C115.686 307.038 118.074 266.318 116.989 264.358Z" fill="#393768"/>
<path d="M77.269 299.199C77.269 299.199 70.3235 296.368 66.8507 297.675C63.3779 299.199 60.7733 305.296 64.4632 308.78C68.153 312.482 97.6715 323.588 100.059 324.241C102.447 324.894 108.958 324.894 108.958 324.894L110.26 319.45C110.477 319.668 87.9044 303.772 77.269 299.199Z" fill="#FBB03B"/>
<path d="M120.679 299.199C120.679 299.199 127.624 296.368 131.097 297.675C134.57 299.199 137.174 305.296 133.485 308.78C129.795 312.482 100.276 323.588 97.8886 324.241C95.284 325.112 88.9896 324.894 88.9896 324.894L87.6874 319.45C87.4703 319.668 109.826 303.772 120.679 299.199Z" fill="#FBB03B"/>
<path d="M77.4861 316.402C77.4861 316.402 76.1838 315.313 75.0986 315.313C74.0133 315.313 73.3622 316.62 72.711 318.362C72.0599 320.104 71.8428 325.765 72.494 326.419C73.1451 327.072 75.7497 326.636 75.7497 326.636L77.4861 316.402Z" fill="black"/>
<path d="M88.7727 324.677C88.7727 324.677 81.6101 324.459 80.0907 325.112C78.5714 325.765 75.9668 327.725 75.5327 326.201C74.8816 324.894 75.5327 315.313 77.9202 316.402C79.2225 317.055 81.176 317.708 82.9124 318.579C84.6487 319.45 87.9045 319.668 87.9045 319.668L88.7727 324.677Z" fill="#393768"/>
<path d="M120.244 316.402C120.244 316.402 121.547 315.313 122.632 315.313C123.717 315.313 124.368 316.62 125.019 318.362C125.671 320.104 125.888 325.765 125.236 326.419C124.585 327.072 121.981 326.636 121.981 326.636L120.244 316.402Z" fill="black"/>
<path d="M108.958 324.677C108.958 324.677 116.121 324.459 117.64 325.112C119.159 325.765 121.764 327.725 122.198 326.201C122.849 324.894 122.198 315.313 119.81 316.402C118.508 317.055 116.555 317.708 114.818 318.579C113.082 319.45 109.826 319.668 109.826 319.668L108.958 324.677Z" fill="#393768"/>
<path d="M118.942 307.909H78.5714C77.7032 307.909 77.0521 307.256 77.0521 306.385L75.5327 284.391C75.5327 283.52 76.1839 282.867 77.0521 282.867H120.028C120.896 282.867 121.547 283.52 121.547 284.391L120.245 306.385C120.245 307.256 119.594 307.909 118.942 307.909Z" fill="#F2F2F2"/>
<path d="M108.741 253.688C108.741 253.47 108.524 253.252 108.307 253.034H108.09C107.656 253.034 107.222 253.47 107.005 253.688C107.005 253.252 107.005 253.034 107.005 253.034C107.222 249.332 99.842 249.55 99.842 249.55C99.842 249.55 92.4624 249.332 92.6794 253.034C92.6794 253.034 92.6794 253.252 92.6794 253.688C92.4624 253.47 92.0283 253.034 91.5942 253.034H91.3771C91.1601 253.034 91.1601 253.47 90.9431 253.688C90.726 254.559 90.726 255.43 90.9431 256.083C91.1601 256.954 91.5942 257.607 92.0283 258.261C92.2453 258.478 92.4624 258.696 92.6794 258.696C92.6794 259.785 92.8965 260.656 93.1135 261.091C93.5476 262.616 96.8034 266.318 99.842 266.318C102.664 266.1 105.919 262.616 106.571 261.091C106.788 260.656 106.788 259.785 107.005 258.696C107.222 258.696 107.439 258.478 107.656 258.261C108.307 257.607 108.741 256.954 108.741 256.083C108.958 255.43 108.958 254.559 108.741 253.688Z" fill="#F27677"/>
<path d="M108.524 253.252C108.741 252.599 108.741 251.728 108.741 251.075C108.741 250.421 108.958 249.768 108.741 248.897C108.741 248.461 108.524 248.026 108.307 247.59C107.873 246.502 107.439 245.631 106.57 244.76C105.485 243.671 103.749 243.235 102.012 243.017C99.1908 242.8 96.1521 242.8 93.3305 242.146C92.4623 241.929 91.8111 241.275 91.16 240.84C90.7259 240.622 90.2918 240.187 89.8577 240.187C89.4236 240.404 89.2065 240.84 89.2065 241.275C89.2065 242.364 89.6406 243.453 89.8577 244.324C90.0747 244.977 90.0747 245.631 90.0747 246.066C90.2918 246.719 90.5088 247.373 90.9429 247.59C90.5088 247.373 90.0747 247.155 89.8577 246.937C90.0747 247.808 90.2918 248.679 90.9429 249.332C91.16 249.55 91.16 249.768 90.9429 249.986H90.7259V250.203C91.16 251.075 91.5941 252.163 92.2452 253.034C92.4623 253.252 92.2452 253.47 92.6793 253.47C92.8964 253.47 93.5475 253.252 93.7646 253.034C94.4157 252.163 95.2839 251.074 96.3691 250.857C96.8032 250.857 97.4544 250.857 97.8885 250.857C98.7567 250.857 99.6249 250.857 100.493 250.857C101.144 250.857 101.795 250.639 102.446 250.639C103.098 250.639 103.749 251.075 104.4 251.51C105.051 251.946 105.702 252.599 106.353 253.034C106.353 253.034 106.57 253.252 106.787 253.252C107.004 253.252 107.439 253.034 107.656 252.817C107.873 253.252 108.524 253.034 108.524 253.252Z" fill="black"/>
</g>
<defs>
<clipPath id="clip0">
<rect width="550" height="336" fill="white"/>
</clipPath>
</defs>
</svg>
