<svg width="24" height="24" viewBox="0 0 24 24" fill="none" xmlns="http://www.w3.org/2000/svg">
<path fill-rule="evenodd" clip-rule="evenodd" d="M12 0C18.633 0 24 5.36774 24 12C24 18.6037 18.6504 24 12 24C5.32214 24 0 18.5735 0 12C0 5.367 5.36774 0 12 0ZM22.5938 12C22.5938 6.15857 17.8414 1.40625 12 1.40625C6.15857 1.40625 1.40625 6.15857 1.40625 12C1.40625 14.1368 2.04181 16.1907 3.22046 17.9304C7.96198 12.8302 16.0466 12.8394 20.7795 17.9304C21.9582 16.1907 22.5938 14.1368 22.5938 12ZM4.09753 19.0547C8.30566 14.3346 15.6954 14.3357 19.9023 19.0547C15.6801 23.7784 8.32159 23.7799 4.09753 19.0547ZM16.2188 9.23438C16.2188 11.5605 14.3262 13.4531 12 13.4531C9.67383 13.4531 7.78125 11.5605 7.78125 9.23438V7.82812C7.78125 5.50195 9.67383 3.60938 12 3.60938C14.3262 3.60938 16.2188 5.50195 16.2188 7.82812V9.23438ZM12 5.01562C10.4491 5.01562 9.1875 6.27722 9.1875 7.82812V9.23438C9.1875 10.7853 10.4491 12.0469 12 12.0469C13.5509 12.0469 14.8125 10.7853 14.8125 9.23438V7.82812C14.8125 6.27722 13.5509 5.01562 12 5.01562Z" fill="#94BDD1"/>
</svg>
