<svg width="32" height="32" viewBox="0 0 32 32" fill="none" xmlns="http://www.w3.org/2000/svg">
<path fill-rule="evenodd" clip-rule="evenodd" d="M31.375 0H0.625C0.279785 0 0 0.279785 0 0.625V4.125C0 4.47021 0.279785 4.75 0.625 4.75H0.875V24.125C0.875 25.1589 1.71606 26 2.75 26H15.375V27.1775C14.325 27.4546 13.5483 28.4124 13.5483 29.5483C13.5483 30.9001 14.6482 32 16 32C17.3518 32 18.4517 30.9001 18.4517 29.5483C18.4517 28.4124 17.675 27.4546 16.625 27.1775V26H29.25C30.2839 26 31.125 25.1589 31.125 24.125V4.75H31.375C31.7202 4.75 32 4.47021 32 4.125V0.625C32 0.279785 31.7202 0 31.375 0ZM17.2017 29.5483C17.2017 30.2109 16.6626 30.75 16 30.75C15.3374 30.75 14.7983 30.2109 14.7983 29.5483C14.7983 28.8855 15.3374 28.3464 16 28.3464C16.6626 28.3464 17.2017 28.8857 17.2017 29.5483ZM29.875 24.125C29.875 24.4697 29.5947 24.75 29.25 24.75H2.75C2.40527 24.75 2.125 24.4697 2.125 24.125V4.75H13.5C13.8452 4.75 14.125 4.47021 14.125 4.125C14.125 3.77979 13.8452 3.5 13.5 3.5H1.25V1.25H30.75V3.5H18.5C18.1548 3.5 17.875 3.77979 17.875 4.125C17.875 4.47021 18.1548 4.75 18.5 4.75H29.875V24.125ZM12.6562 8.25H4.5C4.15479 8.25 3.875 7.97021 3.875 7.625C3.875 7.27979 4.15479 7 4.5 7H12.6562C13.0015 7 13.2812 7.27979 13.2812 7.625C13.2812 7.97021 13.0015 8.25 12.6562 8.25ZM7.78198 11.75H4.5C4.15479 11.75 3.875 11.4702 3.875 11.125C3.875 10.7798 4.15479 10.5 4.5 10.5H7.78198C8.1272 10.5 8.40698 10.7798 8.40698 11.125C8.40698 11.4702 8.1272 11.75 7.78198 11.75ZM18.2188 18.1292C18.2188 18.4744 18.4985 18.7542 18.8438 18.7542H27.5C27.8452 18.7542 28.125 18.4744 28.125 18.1292C28.125 17.7842 27.8452 17.5042 27.5 17.5042H18.8438C18.4985 17.5042 18.2188 17.7842 18.2188 18.1292ZM18.8438 21.0042H27.5C27.8452 21.0042 28.125 21.2842 28.125 21.6292C28.125 21.9744 27.8452 22.2542 27.5 22.2542H18.8438C18.4985 22.2542 18.2188 21.9744 18.2188 21.6292C18.2188 21.2842 18.4985 21.0042 18.8438 21.0042ZM23.5 16.25C26.0503 16.25 28.125 14.1753 28.125 11.625C28.125 9.07471 26.0503 7 23.5 7C20.9497 7 18.875 9.07471 18.875 11.625C18.875 14.1753 20.9497 16.25 23.5 16.25ZM26.2861 13.5271L25.009 12.25H26.8162C26.7283 12.7166 26.5449 13.1494 26.2861 13.5271ZM26.8162 11H24.125V8.30884C25.4856 8.56494 26.5601 9.6394 26.8162 11ZM22.875 8.30884V11.625C22.875 11.7976 22.9448 11.9539 23.0581 12.0669L25.4021 14.4111C24.8601 14.7822 24.2051 15 23.5 15C21.6392 15 20.125 13.4858 20.125 11.625C20.125 9.97754 21.3118 8.60303 22.875 8.30884ZM11.25 11.0312H14.625C14.9702 11.0312 15.25 11.3113 15.25 11.6562V21.6292C15.25 21.9744 14.9702 22.2542 14.625 22.2542H4.5C4.15479 22.2542 3.875 21.9744 3.875 21.6292V18.2585C3.875 17.9133 4.15479 17.6335 4.5 17.6335H7.25V14.5652C7.25 14.22 7.52979 13.9402 7.875 13.9402H10.625V11.6562C10.625 11.3113 10.9048 11.0312 11.25 11.0312ZM7.25 18.8835H5.125V21.0042H7.25V18.8835ZM8.5 15.1902V18.2585V21.0042H10.625V15.1902H8.5ZM11.875 21.0042H14V12.2812H11.875V21.0042ZM15.5581 3.68311C15.6743 3.56689 15.8357 3.5 16 3.5C16.1643 3.5 16.3257 3.56689 16.4419 3.68311C16.5581 3.79932 16.625 3.96069 16.625 4.125C16.625 4.28931 16.5581 4.45068 16.4419 4.56689C16.3257 4.68311 16.1643 4.75 16 4.75C15.8357 4.75 15.6743 4.68311 15.5581 4.56689C15.4419 4.45068 15.375 4.28931 15.375 4.125C15.375 3.96069 15.4419 3.79932 15.5581 3.68311Z" fill="white"/>
</svg>
