<svg width="32" height="32" viewBox="0 0 32 32" fill="none" xmlns="http://www.w3.org/2000/svg">
<path fill-rule="evenodd" clip-rule="evenodd" d="M12.6667 7.33333C12.6667 6.88303 12.7565 6.45335 12.919 6.06121L12.9269 6.04229C13.4325 4.84332 14.62 4 16.0001 4C17.3762 4 18.5609 4.8385 19.0689 6.032C19.0741 6.04524 19.0796 6.05834 19.0853 6.0713C19.2452 6.46071 19.3334 6.88688 19.3334 7.33333V8H12.6667V7.33333ZM7.33325 2C9.29609 2 10.9023 3.54819 10.9956 5.48822C10.783 6.06341 10.6667 6.68503 10.6667 7.33333V8.13841C9.12893 8.57445 8 9.99054 8 11.6667V12.9457L5.85339 12.2307L4.64272 6.78138C4.52272 6.24271 3.98939 5.90405 3.44939 6.02271C2.91072 6.14271 2.57072 6.67871 2.69072 7.21738L4.02405 13.2174C4.10005 13.56 4.35072 13.8374 4.68405 13.9494L8 15.0547V17.9999H5.30275L1.55474 15.5012C1.09474 15.1959 0.474745 15.3186 0.168078 15.7786C-0.138589 16.2386 -0.0145888 16.8599 0.445411 17.1652L4.44541 19.8319C4.60941 19.9412 4.80275 19.9999 5.00008 19.9999H8V22.9891L4.99862 24.0587C4.79062 24.1333 4.61195 24.2733 4.49328 24.46L1.49328 29.1267C1.19462 29.5907 1.32928 30.2093 1.79328 30.508C1.95995 30.616 2.14795 30.6667 2.33328 30.6667C2.66128 30.6667 2.98395 30.5053 3.17462 30.2067L5.99062 25.8267L8.0732 25.0846C8.60049 28.9599 11.9123 31.9608 15.9212 31.9996C15.9472 32.0016 15.9735 32.0027 16 32.0027C16.0265 32.0027 16.0528 32.0016 16.0788 31.9996C19.9784 31.9618 23.2184 29.1213 23.8775 25.3996L26.0094 26.16L28.8254 30.54C29.016 30.8387 29.3374 31 29.6667 31C29.8534 31 30.04 30.9494 30.2067 30.84C30.6707 30.5427 30.8054 29.9227 30.5067 29.4587L27.5067 24.792C27.388 24.6054 27.2094 24.4654 27.0014 24.3907L24 23.3211V19.9999H27C27.1973 19.9999 27.3907 19.9412 27.5547 19.8319L31.5547 17.1652C32.0147 16.8599 32.1387 16.2386 31.832 15.7786C31.5253 15.3186 30.9027 15.1959 30.4453 15.5012L26.6973 17.9999H24V15.0561L27.316 13.9507C27.6493 13.8387 27.9 13.5614 27.976 13.2187L29.3093 7.21872C29.4293 6.67872 29.0893 6.14405 28.5507 6.02405C28.0067 5.90539 27.4773 6.24405 27.3573 6.78272L26.1467 12.2307L24 12.9457V11.6667C24 9.9906 22.8712 8.57455 21.3334 8.13846V7.33333C21.3334 6.68481 21.2171 6.06298 21.0043 5.48762C21.0979 3.54787 22.704 2 24.6667 2C25.2187 2 25.6667 1.552 25.6667 1C25.6667 0.448 25.2187 0 24.6667 0C22.379 0 20.4031 1.36278 19.5091 3.31973C18.5706 2.49831 17.3426 2 16.0001 2C14.6575 2 13.4294 2.49838 12.4909 3.31989C11.597 1.36286 9.62099 0 7.33325 0C6.78125 0 6.33325 0.448 6.33325 1C6.33325 1.552 6.78125 2 7.33325 2ZM17 29.9166C19.8151 29.4422 21.9714 26.9999 21.9997 24.0587C21.9989 24.0339 21.999 24.0089 22 23.9839V18.9999V11.6667C22 10.748 21.252 10 20.3333 10H16.944C16.9803 10.1035 17 10.2148 17 10.3307V29.9166ZM15.056 10H11.6667H11.6667C10.748 10 10 10.748 10 11.6667V18.9872L10.0001 18.9999L10 19.0126V23.65C10.0013 23.6793 10.0013 23.7085 10 23.7375V24C10 26.9674 12.1662 29.4391 15 29.9166V10.3307C15 10.2148 15.0197 10.1035 15.056 10Z" fill="#4D4D4D"/>
</svg>
