<svg width="16" height="16" viewBox="0 0 16 16" fill="none" xmlns="http://www.w3.org/2000/svg">
<path fill-rule="evenodd" clip-rule="evenodd" d="M14.5938 1.875H14.125V1.40625C14.125 0.630844 13.4942 0 12.7188 0C11.9433 0 11.3125 0.630844 11.3125 1.40625V1.875H4.6875V1.40625C4.6875 0.630844 4.05666 0 3.28125 0C2.50584 0 1.875 0.630844 1.875 1.40625V1.875H1.40625C0.630844 1.875 0 2.50584 0 3.28125L0 14.5938C0 15.3692 0.630844 16 1.40625 16H14.5938C15.3692 16 16 15.3692 16 14.5938V3.28125C16 2.50584 15.3692 1.875 14.5938 1.875ZM12.25 1.40625C12.25 1.14778 12.4603 0.9375 12.7188 0.9375C12.9772 0.9375 13.1875 1.14778 13.1875 1.40625V3.28125C13.1875 3.53972 12.9772 3.75 12.7188 3.75C12.4603 3.75 12.25 3.53972 12.25 3.28125V1.40625ZM2.8125 1.40625C2.8125 1.14778 3.02278 0.9375 3.28125 0.9375C3.53972 0.9375 3.75 1.14778 3.75 1.40625V3.28125C3.75 3.53972 3.53972 3.75 3.28125 3.75C3.02278 3.75 2.8125 3.53972 2.8125 3.28125V1.40625ZM15.0625 14.5938C15.0625 14.8522 14.8522 15.0625 14.5938 15.0625H1.40625C1.14778 15.0625 0.9375 14.8522 0.9375 14.5938L0.9375 6.625H15.0625V14.5938ZM15.0625 5.6875H0.9375V3.28125C0.9375 3.02278 1.14778 2.8125 1.40625 2.8125H1.875V3.28125C1.875 4.05666 2.50584 4.6875 3.28125 4.6875C4.05666 4.6875 4.6875 4.05666 4.6875 3.28125V2.8125L11.3125 2.8125V3.28125C11.3125 4.05666 11.9433 4.6875 12.7188 4.6875C13.4942 4.6875 14.125 4.05666 14.125 3.28125V2.8125H14.5938C14.8522 2.8125 15.0625 3.02278 15.0625 3.28125V5.6875ZM5.1875 7.5625H3.3125C3.05363 7.5625 2.84375 7.77238 2.84375 8.03125V9.90625C2.84375 10.1651 3.05363 10.375 3.3125 10.375H5.1875C5.44637 10.375 5.65625 10.1651 5.65625 9.90625V8.03125C5.65625 7.77238 5.44637 7.5625 5.1875 7.5625ZM4.71875 9.4375H3.78125V8.5H4.71875V9.4375ZM3.3125 11.3125H5.1875C5.44637 11.3125 5.65625 11.5224 5.65625 11.7812V13.6562C5.65625 13.9151 5.44637 14.125 5.1875 14.125H3.3125C3.05363 14.125 2.84375 13.9151 2.84375 13.6562V11.7812C2.84375 11.5224 3.05363 11.3125 3.3125 11.3125ZM3.78125 13.1875H4.71875V12.25H3.78125V13.1875ZM8.9375 11.3125H7.0625C6.80363 11.3125 6.59375 11.5224 6.59375 11.7812V13.6562C6.59375 13.9151 6.80363 14.125 7.0625 14.125H8.9375C9.19637 14.125 9.40625 13.9151 9.40625 13.6562V11.7812C9.40625 11.5224 9.19637 11.3125 8.9375 11.3125ZM8.46875 13.1875H7.53125V12.25H8.46875V13.1875ZM7.0625 7.5625H8.9375C9.19637 7.5625 9.40625 7.77238 9.40625 8.03125V9.90625C9.40625 10.1651 9.19637 10.375 8.9375 10.375H7.0625C6.80363 10.375 6.59375 10.1651 6.59375 9.90625V8.03125C6.59375 7.77238 6.80363 7.5625 7.0625 7.5625ZM7.53125 9.4375H8.46875V8.5H7.53125V9.4375ZM12.6875 7.5625H10.8125C10.5536 7.5625 10.3438 7.77238 10.3438 8.03125V9.90625C10.3438 10.1651 10.5536 10.375 10.8125 10.375H12.6875C12.9464 10.375 13.1562 10.1651 13.1562 9.90625V8.03125C13.1562 7.77238 12.9464 7.5625 12.6875 7.5625ZM12.2188 9.4375H11.2812V8.5H12.2188V9.4375ZM10.8125 11.3125H12.6875C12.9464 11.3125 13.1562 11.5224 13.1562 11.7812V13.6562C13.1562 13.9151 12.9464 14.125 12.6875 14.125H10.8125C10.5536 14.125 10.3438 13.9151 10.3438 13.6562V11.7812C10.3438 11.5224 10.5536 11.3125 10.8125 11.3125ZM11.2812 13.1875H12.2188V12.25H11.2812V13.1875Z" fill="#4D4D4D"/>
</svg>
