<svg width="16" height="15" viewBox="0 0 16 15" fill="none" xmlns="http://www.w3.org/2000/svg">
<path fill-rule="evenodd" clip-rule="evenodd" d="M14.7088 1.70862C15.0993 1.3181 15.0993 0.68493 14.7088 0.294406C14.3182 -0.0961185 13.6851 -0.0961186 13.2945 0.294406L7.77793 5.81103L2.26131 0.294406C1.87078 -0.0961181 1.23762 -0.0961181 0.847092 0.294406C0.456568 0.684931 0.456568 1.3181 0.847092 1.70862L6.36371 7.22524L0.850102 12.7388C0.459577 13.1294 0.459577 13.7625 0.850102 14.1531C1.24063 14.5436 1.87379 14.5436 2.26432 14.1531L7.77793 8.63945L13.2915 14.1531C13.6821 14.5436 14.3152 14.5436 14.7057 14.1531C15.0963 13.7625 15.0963 13.1294 14.7057 12.7388L9.19214 7.22524L14.7088 1.70862Z" fill="#A6A6A6"/>
</svg>
