<svg width="32" height="32" viewBox="0 0 32 32" fill="none" xmlns="http://www.w3.org/2000/svg">
<g clip-path="url(#clip0)">
<path d="M31.9075 1.86482C31.7474 1.51463 31.4056 1.29126 31.0302 1.29126H0.96991C0.594512 1.29126 0.252865 1.51463 0.0926448 1.86482C-0.0674457 2.21501 -0.0172719 2.62894 0.221571 2.92766L11.7772 17.3812V30.7087C11.7772 31.0547 11.9506 31.3761 12.2356 31.5586C12.3918 31.6584 12.5691 31.7088 12.747 31.7088C12.8941 31.7088 13.0416 31.6743 13.1777 31.6048L19.6702 28.2863C20.0001 28.1177 20.2088 27.7711 20.2093 27.3915L20.222 17.3816L31.7783 2.92752C32.0173 2.62894 32.0676 2.21488 31.9075 1.86482ZM18.5045 16.3857C18.3616 16.5644 18.2832 16.7888 18.283 17.0206L18.2705 26.7692L13.717 29.0967V17.0219C13.717 16.7898 13.6388 16.5648 13.4955 16.3857L3.02652 3.29145H28.9735L18.5045 16.3857Z" fill="#4D4D4D"/>
</g>
<defs>
<clipPath id="clip0">
<path d="M0 0H32V32H0V0Z" fill="white"/>
</clipPath>
</defs>
</svg>
