<svg width="32" height="32" viewBox="0 0 32 32" fill="none" xmlns="http://www.w3.org/2000/svg">
<path fill-rule="evenodd" clip-rule="evenodd" d="M5.125 0H26.875C28.0466 0 29 0.953369 29 2.125V29.875C29 31.0466 28.0466 32 26.875 32H5.125C3.95337 32 3 31.0466 3 29.875V20.1875V18.8125V2.125C3 0.953369 3.95337 0 5.125 0ZM4.25 18.8125V20.1875V29.875C4.25 30.3574 4.64258 30.75 5.125 30.75H26.875C27.3574 30.75 27.75 30.3574 27.75 29.875V2.125C27.75 1.64258 27.3574 1.25 26.875 1.25H21.323V2.5H25.5C25.8452 2.5 26.125 2.77979 26.125 3.125V28.375C26.125 28.7202 25.8452 29 25.5 29H6.5C6.15479 29 5.875 28.7202 5.875 28.375V3.125C5.875 2.77979 6.15479 2.5 6.5 2.5H10.677V1.25H5.125C4.64258 1.25 4.25 1.64258 4.25 2.125V18.8125ZM24.875 27.75V18.0183V3.75H21.3218C21.301 4.80884 20.4336 5.66406 19.3696 5.66406H12.6301C11.5664 5.66406 10.699 4.80884 10.678 3.75H7.125V27.75H24.875ZM19.3699 4.41406C19.7576 4.41406 20.073 4.09863 20.073 3.71094L20.0728 1.25H11.927V3.71094C11.927 4.09863 12.2424 4.41406 12.6301 4.41406H19.3699ZM15.9915 7.28406C16.0063 7.28357 16.0183 7.28333 16.0305 7.28333C19.5942 7.28333 22.5105 10.1827 22.5312 13.7465C22.5322 13.913 22.4668 14.0726 22.3494 14.1908C22.2322 14.3087 22.0725 14.3751 21.9062 14.3751H21.4641C21.1528 17.1146 18.8213 19.2501 16 19.2501C12.9673 19.2501 10.5 16.7828 10.5 13.7501C10.5 10.9288 12.6355 8.59729 15.375 8.28577V7.90906C15.375 7.56677 15.6499 7.2887 15.9915 7.28406ZM15.375 9.54651C13.3269 9.84973 11.75 11.619 11.75 13.7501C11.75 16.0936 13.6565 18.0001 16 18.0001C16.9468 18.0001 17.822 17.6886 18.5293 17.1632L15.5581 14.192C15.4448 14.079 15.375 13.9227 15.375 13.7501V9.54651ZM17.509 14.3751L19.4131 16.2794C19.8208 15.7308 20.0991 15.0809 20.2036 14.3751H17.509ZM16.625 8.56677V13.1251H21.24C20.938 10.7364 19.0198 8.83923 16.625 8.56677ZM20.6218 21H11.394C11.0488 21 10.769 21.2798 10.769 21.625C10.769 21.9702 11.0488 22.25 11.394 22.25H20.6218C20.967 22.25 21.2468 21.9702 21.2468 21.625C21.2468 21.2798 20.967 21 20.6218 21ZM11.394 24H20.6218C20.967 24 21.2468 24.2798 21.2468 24.625C21.2468 24.9702 20.967 25.25 20.6218 25.25H11.394C11.0488 25.25 10.769 24.9702 10.769 24.625C10.769 24.2798 11.0488 24 11.394 24Z" fill="white"/>
</svg>
