<svg width="32" height="32" viewBox="0 0 32 32" fill="none" xmlns="http://www.w3.org/2000/svg">
<path fill-rule="evenodd" clip-rule="evenodd" d="M28.7373 12.6528C29.3539 12.7332 29.9717 12.8197 30.5735 12.9098C31.3868 13.0313 32 13.745 32 14.5693V17.4302C32 18.2548 31.3868 18.9683 30.5734 19.0899C29.9716 19.18 29.3537 19.2664 28.7373 19.3468C28.6625 19.3566 28.602 19.4072 28.583 19.476C28.2984 20.5085 27.8856 21.505 27.3557 22.4377C27.3201 22.5004 27.3269 22.5795 27.3728 22.6392C27.7519 23.1321 28.1279 23.6303 28.4901 24.1197C28.9791 24.7809 28.9081 25.7191 28.3251 26.3021L26.3022 28.325C25.7191 28.9081 24.781 28.9789 24.1199 28.4899C23.6313 28.1285 23.1331 27.7526 22.6393 27.3727C22.5795 27.3269 22.5005 27.3201 22.4378 27.3556C21.5054 27.8852 20.5088 28.2981 19.476 28.5829C19.4074 28.6018 19.3567 28.6624 19.3469 28.7372C19.2664 29.354 19.18 29.9717 19.0901 30.5732C18.9685 31.3866 18.255 31.9999 17.4304 31.9999H14.5696C13.745 31.9999 13.0315 31.3866 12.9098 30.5733C12.82 29.9726 12.7335 29.3548 12.653 28.7373C12.6432 28.6626 12.5925 28.602 12.5238 28.5831C11.491 28.2984 10.4945 27.8856 9.56202 27.3558C9.49939 27.3203 9.42027 27.3269 9.36058 27.3729C8.8667 27.7529 8.36858 28.1287 7.88002 28.4901C7.21895 28.9793 6.28076 28.9083 5.69764 28.3252L3.67476 26.3024C3.09169 25.7193 3.02082 24.7811 3.50988 24.12C3.8717 23.6308 4.24757 23.1327 4.62707 22.6394C4.67301 22.5797 4.67976 22.5007 4.6442 22.438C4.11438 21.5052 3.70144 20.5087 3.41688 19.4762C3.39801 19.4075 3.33751 19.3569 3.26269 19.347C2.64644 19.2667 2.02863 19.1803 1.4265 19.0902C0.613251 18.9685 0 18.255 0 17.4304V14.5695C0 13.745 0.613251 13.0314 1.42663 12.9098C2.02875 12.8197 2.64651 12.7333 3.26276 12.6529C3.33751 12.6431 3.39813 12.5924 3.41694 12.5238C3.70151 11.4913 4.11438 10.4948 4.64426 9.56202C4.67982 9.49933 4.67307 9.42027 4.62713 9.36058C4.24857 8.86852 3.8727 8.37045 3.50994 7.88008C3.02082 7.21901 3.09176 6.28083 3.67482 5.6977L5.6977 3.67482C6.28064 3.09188 7.2187 3.02076 7.88002 3.50982C8.36864 3.87126 8.86683 4.24713 9.36064 4.62707C9.42039 4.67288 9.49952 4.67976 9.56221 4.6442C10.4946 4.11451 11.4911 3.70163 12.5239 3.41688C12.5927 3.39801 12.6433 3.33751 12.6531 3.26269C12.7337 2.64507 12.82 2.02738 12.91 1.4265C13.0315 0.613251 13.745 0 14.5696 0H17.4304C18.255 0 18.9685 0.613251 19.0902 1.42657C19.18 2.02732 19.2664 2.64507 19.347 3.26257C19.3567 3.33744 19.4074 3.39807 19.4761 3.41688C20.5089 3.70151 21.5054 4.11445 22.4379 4.6442C22.5005 4.67976 22.5797 4.67307 22.6394 4.62707C23.1332 4.24713 23.6314 3.87126 24.1199 3.50988C24.7812 3.02076 25.7192 3.09176 26.3023 3.67476L28.3252 5.69764C28.9082 6.2807 28.9792 7.21883 28.4902 7.87995C28.128 8.36958 27.7521 8.86777 27.3729 9.36058C27.3269 9.42039 27.3202 9.49939 27.3559 9.56202C27.8856 10.4946 28.2986 11.4911 28.5831 12.5238C28.602 12.5925 28.6626 12.6432 28.7373 12.6528ZM30.3524 17.6125C30.4399 17.5993 30.5057 17.5212 30.5057 17.4305H30.5059V14.5697C30.5059 14.4791 30.4401 14.4009 30.3526 14.3878C29.7599 14.2992 29.1515 14.214 28.5442 14.1348C27.8721 14.0472 27.3218 13.5708 27.1427 12.9212C26.8909 12.0074 26.5255 11.1256 26.0567 10.3003C25.7234 9.71352 25.7752 8.98714 26.1887 8.44958C26.5622 7.96408 26.9324 7.47358 27.2889 6.99145C27.3414 6.92045 27.3328 6.81851 27.2687 6.75439L25.2458 4.73151C25.1817 4.66732 25.0797 4.65863 25.0087 4.71126C24.5277 5.06713 24.037 5.43732 23.5506 5.81151C23.0132 6.22501 22.2869 6.27676 21.7001 5.94364C20.8747 5.47489 19.993 5.10945 19.0792 4.85757C18.4296 4.67851 17.9531 4.12838 17.8654 3.45594C17.786 2.84757 17.701 2.23925 17.6124 1.64769C17.5993 1.56025 17.5211 1.49438 17.4305 1.49438H14.5697C14.479 1.49438 14.4008 1.56032 14.3877 1.64763C14.2992 2.23938 14.2141 2.84776 14.1347 3.45594C14.047 4.12838 13.5705 4.67851 12.9208 4.85757C12.0071 5.10945 11.1253 5.47489 10.3001 5.94364C9.71321 6.27695 8.98689 6.22501 8.44939 5.81164C7.96295 5.43739 7.47233 5.0672 6.99126 4.71132C6.9202 4.65888 6.81826 4.66745 6.75426 4.73157L4.73145 6.75451C4.66738 6.81851 4.6587 6.92051 4.7112 6.99158C5.06845 7.47445 5.43864 7.96495 5.81145 8.44971C6.22489 8.98708 6.27676 9.71346 5.94351 10.3003C5.47457 11.1258 5.10914 12.0076 4.85745 12.9212C4.67838 13.5708 4.12826 14.0473 3.45582 14.1349C2.84888 14.2141 2.2405 14.2992 1.64757 14.3879C1.56013 14.401 1.49425 14.4792 1.49425 14.5698V17.4307C1.49425 17.5213 1.56013 17.5995 1.64757 17.6127C2.2405 17.7013 2.84894 17.7865 3.45594 17.8657C4.12832 17.9534 4.67845 18.4298 4.85751 19.0794C5.10932 19.993 5.47464 20.8747 5.94357 21.7003C6.27676 22.287 6.22489 23.0134 5.81145 23.5509C5.43764 24.0367 5.06751 24.5273 4.7112 25.009C4.65857 25.0801 4.66732 25.1819 4.73145 25.2461L6.75439 27.2689C6.81845 27.3331 6.92026 27.3416 6.99139 27.2892C7.47245 26.9332 7.96308 26.5631 8.44952 26.1889C8.75121 25.9566 9.11252 25.8384 9.47527 25.8384C9.75852 25.8384 10.0427 25.9106 10.3 26.0566C11.1253 26.5254 12.0071 26.8909 12.9209 27.1427C13.5705 27.3218 14.047 27.8719 14.1347 28.5444C14.214 29.1526 14.2992 29.7609 14.3877 30.3525C14.4007 30.44 14.479 30.5059 14.5696 30.5059H17.4304C17.521 30.5059 17.5993 30.44 17.6123 30.3526C17.701 29.7603 17.7861 29.1519 17.8653 28.5443C17.9531 27.8719 18.4295 27.3217 19.0791 27.1427C19.9929 26.8908 20.8747 26.5254 21.7 26.0566C22.2867 25.7234 23.0131 25.7752 23.5505 26.1887C24.0369 26.5629 24.5276 26.9331 25.0087 27.2891C25.0797 27.3415 25.1816 27.3329 25.2457 27.2688L27.2687 25.2459C27.3327 25.1819 27.3415 25.0799 27.2889 25.0088C26.9323 24.5268 26.5621 24.0362 26.1886 23.5507C25.7751 23.0132 25.7233 22.2868 26.0566 21.7C26.5254 20.8747 26.8907 19.9929 27.1426 19.0792C27.3217 18.4295 27.8718 17.9531 28.5442 17.8655C29.1514 17.7862 29.7598 17.7012 30.3524 17.6125ZM9.0542 16.0001C9.0542 12.1701 12.1701 9.0542 16.0001 9.0542C19.8301 9.0542 22.946 12.1701 22.946 16.0001C22.946 19.8301 19.8301 22.946 16.0001 22.946C12.1701 22.946 9.0542 19.8301 9.0542 16.0001ZM10.5485 16.0001C10.5485 19.0061 12.994 21.4517 16.0001 21.4517C19.0062 21.4517 21.4517 19.0061 21.4517 16.0001C21.4517 12.9941 19.0061 10.5485 16.0001 10.5485C12.9941 10.5485 10.5485 12.994 10.5485 16.0001Z" fill="white"/>
</svg>
