<svg width="23" height="29" viewBox="0 0 23 29" fill="none" xmlns="http://www.w3.org/2000/svg">
<path d="M19.9737 13.75C19.6396 13.75 19.3685 14.03 19.3685 14.375C19.3685 14.72 19.6396 15 19.9737 15C20.3078 15 20.579 14.72 20.579 14.375C20.579 14.03 20.3078 13.75 19.9737 13.75Z" fill="#1F7EAD"/>
<path d="M5.44735 15C5.11327 15 4.84209 15.28 4.84209 15.625C4.84209 15.97 5.11327 16.25 5.44735 16.25C5.78143 16.25 6.05261 15.97 6.05261 15.625C6.05261 15.28 5.78143 15 5.44735 15Z" fill="#1F7EAD"/>
<path fill-rule="evenodd" clip-rule="evenodd" d="M0 11.875C0 5.3125 5.14355 0 11.5 0C17.8411 0 23 5.32715 23 11.875L23 17.125C23 17.1273 23 17.1296 23 17.1319V17.5H22.9944C22.9881 17.7098 22.9766 17.9181 22.9599 18.125C22.4688 24.2188 17.5302 29 11.5 29C5.48504 29 0.533762 24.2067 0.0403948 18.125C0.0236116 17.9181 0.0119866 17.7097 0.00565414 17.5H0V11.875ZM1.21053 17.125C1.21053 22.9836 5.82637 27.75 11.5 27.75C17.1843 27.75 21.7861 23.0013 21.7895 17.1315C21.7895 17.1294 21.7895 17.1272 21.7895 17.125L21.7895 11.875C21.7895 6.01636 17.1736 1.25 11.5 1.25C5.8136 1.25 1.21053 6.0022 1.21053 11.875L1.21053 17.125Z" fill="#1F7EAD"/>
<path d="M7.86845 12.5C7.53414 12.5 7.26319 12.7798 7.26319 13.125V16.875C7.26319 19.2874 9.16386 21.25 11.5 21.25C12.785 21.25 13.9861 20.658 14.7952 19.6257C15.0056 19.3574 14.9654 18.9639 14.7056 18.7468C14.4457 18.5295 14.0646 18.571 13.8544 18.8394C13.2761 19.5769 12.4179 20 11.5 20C9.8313 20 8.47372 18.5981 8.47372 16.875V13.125C8.47372 12.7798 8.20277 12.5 7.86845 12.5Z" fill="#1F7EAD"/>
<path d="M15.7369 16.8749V12.0231C15.7369 9.84638 14.3081 7.97944 12.3394 7.58393C10.2406 7.16303 8.20609 8.35834 7.502 10.4265C7.39111 10.7521 7.55685 11.1088 7.87225 11.2233C8.18765 11.3378 8.53307 11.1667 8.64396 10.841C9.14732 9.36298 10.6044 8.50898 12.1084 8.81098C13.5095 9.09247 14.5264 10.4433 14.5264 12.0231V16.8749C14.5264 17.2202 14.7973 17.4999 15.1316 17.4999C15.4659 17.4999 15.7369 17.2202 15.7369 16.8749Z" fill="#1F7EAD"/>
<path d="M14.7334 5.8667C13.7489 5.2998 12.6308 5 11.5 5C7.82892 5 4.84209 8.08423 4.84209 11.875V13.125C4.84209 13.4702 5.11304 13.75 5.44735 13.75C5.78166 13.75 6.05261 13.4702 6.05261 13.125V11.875C6.05261 8.77344 8.49636 6.25 11.5 6.25C12.4249 6.25 13.3392 6.49487 14.1438 6.95825C14.4355 7.12646 14.8043 7.01855 14.967 6.71704C15.1299 6.41553 15.0252 6.03467 14.7334 5.8667Z" fill="#1F7EAD"/>
<path d="M18.1579 11.875C18.1579 10.6653 17.8477 9.47412 17.2609 8.43066C17.093 8.13208 16.7226 8.03052 16.4334 8.20386C16.1445 8.3772 16.0461 8.75977 16.214 9.05835C16.6937 9.91138 16.9474 10.8855 16.9474 11.875V16.875C16.9474 19.9766 14.5036 22.5 11.5 22.5C8.9182 22.5 6.67281 20.6064 6.16094 17.9978C6.09474 17.6594 5.77532 17.4407 5.44763 17.5093C5.12017 17.5779 4.90833 17.9077 4.97477 18.2461C5.60013 21.4353 8.34438 23.75 11.5 23.75C15.1711 23.75 18.1579 20.6658 18.1579 16.875V11.875Z" fill="#1F7EAD"/>
<path d="M19.9737 16.25C19.6394 16.25 19.3685 16.5298 19.3685 16.875C19.3685 19.0142 18.5701 21.0334 17.1203 22.5613C16.8864 22.8079 16.8902 23.2036 17.129 23.4451C17.3683 23.6873 17.7515 23.6821 17.9851 23.4363C19.6576 21.6733 20.579 19.343 20.579 16.875C20.579 16.5298 20.3081 16.25 19.9737 16.25Z" fill="#1F7EAD"/>
<path d="M14.872 24.2185C13.8147 24.737 12.6803 25 11.5001 25C7.16131 25 3.63163 21.3552 3.63163 16.875V12.1799C3.63163 8.92235 5.39919 5.92333 8.13469 4.54003C8.43496 4.38817 8.55909 4.0139 8.41203 3.70384C8.26497 3.39403 7.90252 3.26561 7.60225 3.41747C4.45488 5.00902 2.4211 8.44872 2.4211 12.1799V16.875C2.4211 22.0444 6.49386 26.25 11.5001 26.25C12.8612 26.25 14.1705 25.9465 15.3912 25.3476C15.6932 25.1994 15.8218 24.8266 15.6783 24.5149C15.535 24.2034 15.174 24.0705 14.872 24.2185Z" fill="#1F7EAD"/>
<path d="M10.1973 2.59497C9.86697 2.64746 9.64047 2.96655 9.6913 3.30786C9.74237 3.64892 10.0514 3.88305 10.3817 3.83007C15.0332 3.09204 19.3684 6.90332 19.3684 11.875C19.3684 12.2202 19.6394 12.5 19.9737 12.5C20.308 12.5 20.5789 12.2202 20.5789 11.875C20.5789 6.07006 15.5058 1.74804 10.1973 2.59497Z" fill="#1F7EAD"/>
<path d="M11.5 17.5C11.1659 17.5 10.8947 17.22 10.8947 16.875C10.8947 16.5298 10.6237 16.25 10.2894 16.25C9.95512 16.25 9.68417 16.5298 9.68417 16.875C9.68417 17.9109 10.4968 18.75 11.5 18.75C12.5012 18.75 13.3158 17.9089 13.3158 16.875V11.875C13.3158 10.8391 12.5031 10 11.5 10C10.4987 10 9.68417 10.8411 9.68417 11.875C9.68417 12.2202 9.95512 12.5 10.2894 12.5C10.6237 12.5 10.8947 12.2202 10.8947 11.875C10.8947 11.5303 11.1661 11.25 11.5 11.25C11.834 11.25 12.1052 11.53 12.1052 11.875V16.875C12.1052 17.2197 11.8338 17.5 11.5 17.5Z" fill="#1F7EAD"/>
</svg>
