<svg width="32" height="32" viewBox="0 0 32 32" fill="none" xmlns="http://www.w3.org/2000/svg">
<path d="M27.205 27.0997L27.205 4.90062C27.205 2.66852 25.384 0.847591 23.1519 0.847591L10.0595 0.84759C7.82743 0.84759 6.00651 2.66852 6.00651 4.90062L6.00651 7.52432C6.00651 7.96813 6.36547 8.32709 6.80928 8.32709C7.25309 8.32709 7.61205 7.96813 7.61205 7.52432L7.61205 4.90062C7.61205 3.54961 8.71505 2.44661 10.0661 2.44661L23.1519 2.44661C24.5029 2.44661 25.6059 3.54961 25.6059 4.90062L25.6059 27.0997C25.6059 28.4507 24.5029 29.5537 23.1519 29.5537L10.0595 29.5537C8.70852 29.5537 7.60553 28.4507 7.60553 27.0997L7.60553 24.476C7.60553 24.0322 7.24656 23.6732 6.80275 23.6732C6.35894 23.6732 5.99998 24.0322 5.99998 24.476L5.99998 27.0997C5.99998 29.3318 7.8209 31.1527 10.053 31.1527L23.1519 31.1527C25.384 31.1527 27.205 29.3383 27.205 27.0997Z" fill="#1F7EAD"/>
<path d="M12.6892 22.0372C12.8458 22.1938 13.0481 22.2721 13.257 22.2721C13.4658 22.2721 13.6682 22.1938 13.8248 22.0372L19.3006 16.5613C19.6139 16.2481 19.6139 15.7455 19.3006 15.4322L13.8248 9.95639C13.5115 9.64312 13.009 9.64312 12.6957 9.95639C12.3824 10.2697 12.3824 10.7722 12.6957 11.0855L16.8075 15.1973H1.80277C1.35896 15.1973 1 15.5562 1 16C1 16.4439 1.35896 16.8028 1.80277 16.8028H16.8009L12.6892 20.9146C12.3759 21.2213 12.3759 21.7304 12.6892 22.0372Z" fill="#1F7EAD"/>
</svg>
