<svg width="24" height="24" viewBox="0 0 24 24" fill="none" xmlns="http://www.w3.org/2000/svg">
<g clip-path="url(#clip0)">
<path fill-rule="evenodd" clip-rule="evenodd" d="M0 20.3247V3.67539C0 1.99642 1.36569 0.63562 3.03977 0.63562H12.864C14.538 0.63562 15.9037 2.00131 15.9037 3.67539V5.64317C15.9037 5.97602 15.6345 6.24525 15.3017 6.24525C14.9688 6.24525 14.6996 5.97602 14.6996 5.64317V3.67539C14.6996 2.66213 13.8723 1.83489 12.8591 1.83489H3.03977C2.02651 1.83489 1.19927 2.66213 1.19927 3.67539V20.3247C1.19927 21.3379 2.02651 22.1652 3.03977 22.1652H12.8542C13.8674 22.1652 14.6947 21.3379 14.6947 20.3247V18.3569C14.6947 18.0241 14.9639 17.7548 15.2968 17.7548C15.6296 17.7548 15.8988 18.0241 15.8988 18.3569V20.3247C15.8988 21.9988 14.5331 23.3645 12.8591 23.3645H3.03977C1.36569 23.3645 0 21.9988 0 20.3247ZM19.2911 16.7041C19.1345 16.7041 18.9827 16.6453 18.8652 16.5278C18.6303 16.2978 18.6303 15.916 18.8652 15.6859L21.9491 12.6021H10.7004C10.3676 12.6021 10.0984 12.3329 10.0984 12C10.0984 11.6671 10.3676 11.3979 10.7004 11.3979H21.954L18.8701 8.31409C18.6352 8.07914 18.6352 7.70222 18.8701 7.46726C19.1051 7.23231 19.482 7.23231 19.717 7.46726L23.8238 11.5741C24.0588 11.8091 24.0588 12.186 23.8238 12.421L19.717 16.5278C19.5995 16.6453 19.4477 16.7041 19.2911 16.7041Z" fill="#94BDD1"/>
</g>
<defs>
<clipPath id="clip0">
<path d="M0 0H24V24H0V0Z" fill="white"/>
</clipPath>
</defs>
</svg>
