<svg width="20" height="20" viewBox="0 0 20 20" fill="none" xmlns="http://www.w3.org/2000/svg">
<path d="M15.8594 2.34375H14.1016V1.75781C14.1016 0.788555 13.313 0 12.3438 0H7.65625C6.68699 0 5.89844 0.788555 5.89844 1.75781V2.34375H4.14062C2.5252 2.34375 1.21094 3.65801 1.21094 5.27344V6.44531C1.21094 6.76891 1.47328 7.03125 1.79688 7.03125H2.43332L3.4602 18.4013C3.54309 19.3127 4.2957 20 5.21078 20H14.7892C15.7043 20 16.4569 19.3127 16.5398 18.401L17.5667 7.03125H18.2031C18.5267 7.03125 18.7891 6.76891 18.7891 6.44531V5.27344C18.7891 3.65801 17.4748 2.34375 15.8594 2.34375ZM7.07031 1.75781C7.07031 1.43473 7.33316 1.17188 7.65625 1.17188H12.3438C12.6668 1.17188 12.9297 1.43473 12.9297 1.75781V2.34375H7.07031V1.75781ZM15.3727 18.2952C15.3451 18.599 15.0942 18.8281 14.7892 18.8281H5.21078C4.90574 18.8281 4.65488 18.599 4.62727 18.2956L3.61 7.03125H16.39L15.3727 18.2952ZM17.6172 5.85938H2.38281V5.27344C2.38281 4.30418 3.17137 3.51562 4.14062 3.51562H15.8594C16.8286 3.51562 17.6172 4.30418 17.6172 5.27344V5.85938Z" fill="#1F7EAD"/>
<path d="M10 8.20312C9.67641 8.20312 9.41406 8.46547 9.41406 8.78906V17.0703C9.41406 17.3939 9.67641 17.6562 10 17.6562C10.3236 17.6562 10.5859 17.3939 10.5859 17.0703V8.78906C10.5859 8.46547 10.3236 8.20312 10 8.20312Z" fill="#1F7EAD"/>
<path d="M7.17615 8.76269C7.16158 8.43941 6.88768 8.18902 6.56447 8.20371C6.24123 8.21828 5.99092 8.49215 6.00549 8.81543L6.37834 17.0967C6.39244 17.411 6.65166 17.6562 6.96318 17.6562C6.97209 17.6562 6.98103 17.6561 6.99002 17.6557C7.31326 17.6411 7.56357 17.3672 7.549 17.0439L7.17615 8.76269Z" fill="#1F7EAD"/>
<path d="M13.4353 8.2037C13.1117 8.18917 12.8381 8.43944 12.8237 8.76268L12.4508 17.0439C12.4362 17.3672 12.6865 17.6411 13.0098 17.6556C13.0187 17.656 13.0277 17.6562 13.0366 17.6562C13.3481 17.6562 13.6073 17.4109 13.6215 17.0967L13.9943 8.81542C14.0089 8.49213 13.7586 8.21827 13.4353 8.2037Z" fill="#1F7EAD"/>
</svg>
